<svg xmlns="http://www.w3.org/2000/svg" width="35" height="35" viewBox="0 0 100 100">
  <g id="envelope" fill="currentColor">
    <path d="M84.073 18.41c-.456 0-.9-.18-1.236-.529a46.914 46.914 0 00-8.69-7.08 1.701 1.701 0 01-.528-2.365 1.727 1.727 0 012.377-.54 51.52 51.52 0 019.313 7.609c.66.672.637 1.764-.036 2.424-.336.312-.768.48-1.2.48"/>
    <path d="M49.97 99.5C23.658 99.513 1.693 78.69.549 52.153c-.577-13.21 4.019-25.854 12.963-35.6C22.443 6.808 34.64 1.116 47.85.55c7.13-.318 14.07.872 20.634 3.511a1.687 1.687 0 01.93 2.204 1.685 1.685 0 01-2.191.93 45.693 45.693 0 00-19.22-3.275c-12.314.53-23.686 5.833-32.006 14.907-8.33 9.085-12.62 20.87-12.09 33.184 1.108 25.406 22.684 45.18 48.09 44.072 25.42-1.107 45.193-22.672 44.085-48.079a46.226 46.226 0 00-2.628-13.528 1.676 1.676 0 011.025-2.145 1.667 1.667 0 012.145 1.026 49.205 49.205 0 012.828 14.494c1.19 27.28-20.033 50.424-47.301 51.603-.73.035-1.45.047-2.18.047"/>
    <path d="M75.766 65.506l-17.64-14.978 17.64-15.33zm-3.677 2.981H28.382a3.684 3.684 0 01-2.545-.99l18.077-15.496 6.328 5.55 6.304-5.55L74.6 67.497c-.636.613-1.52.99-2.51.99M24.706 35.221l17.617 15.307-17.617 14.978zm3.676-3.205H72.09c.99 0 1.874.341 2.51.99L50.242 53.898 25.837 33.005c.66-.648 1.555-.99 2.545-.99M50.23 13.068c-20.54 0-37.179 16.662-37.179 37.179 0 20.551 16.64 37.19 37.179 37.19 20.516 0 37.167-16.639 37.167-37.19 0-20.517-16.651-37.18-37.167-37.18"/>
  </g>
</svg>
