<svg xmlns="http://www.w3.org/2000/svg" width="100%" height="100%" viewBox="0 0 100 100">
  <g id="facebook" fill="currentColor">
    <path d="M49.976 99.496C23.665 99.496 1.7 78.687.546 52.14-.018 38.932 4.577 26.3 13.52 16.556 22.45 6.812 34.646 1.12 47.855.555a49.062 49.062 0 0120.632 3.511 1.687 1.687 0 01.93 2.204 1.685 1.685 0 01-2.19.93c-6.116-2.474-12.585-3.57-19.23-3.275-12.302.53-23.672 5.82-31.991 14.905C7.676 27.915 3.386 39.698 3.916 52 5.025 77.415 26.6 97.174 52.004 96.079c25.415-1.108 45.187-22.682 44.08-48.086a46.144 46.144 0 00-2.628-13.515 1.67 1.67 0 011.013-2.145 1.67 1.67 0 012.156 1.014 49.203 49.203 0 012.828 14.504c1.19 27.266-20.03 50.42-47.296 51.597-.73.036-1.45.048-2.18.048" />
    <path d="M84.398 18.477c-.447 0-.883-.177-1.213-.519a46.057 46.057 0 00-8.531-6.952c-.79-.506-1.025-1.543-.518-2.32a1.684 1.684 0 012.32-.531 50.686 50.686 0 019.156 7.458 1.704 1.704 0 01-.035 2.392 1.74 1.74 0 01-1.179.472" />
    <path d="M87.287 50.226c0-20.679-16.689-37.433-37.287-37.433S12.713 29.547 12.713 50.226c0 18.684 13.635 34.17 31.46 36.981v-26.16h-9.471v-10.82h9.472v-8.248c0-9.381 5.563-14.563 14.083-14.563 4.08 0 8.348.73 8.348.73v9.208h-4.703c-4.631 0-6.076 2.886-6.076 5.846v7.026h10.341l-1.654 10.821h-8.687v26.16c17.826-2.81 31.461-18.297 31.461-36.98z" stroke-width=".151"/>
  </g>
</svg>