<?xml version="1.0" encoding="UTF-8" standalone="no"?>
<svg
   xmlns:dc="http://purl.org/dc/elements/1.1/"
   xmlns:cc="http://creativecommons.org/ns#"
   xmlns:rdf="http://www.w3.org/1999/02/22-rdf-syntax-ns#"
   xmlns:svg="http://www.w3.org/2000/svg"
   xmlns="http://www.w3.org/2000/svg"
   version="1.1"
   id="svg2"
   xml:space="preserve"
   width="1080"
   height="550"
   viewBox="0 0 1080 550"><metadata
     id="metadata8"><rdf:RDF><cc:Work
         rdf:about=""><dc:format>image/svg+xml</dc:format><dc:type
           rdf:resource="http://purl.org/dc/dcmitype/StillImage" /><dc:title></dc:title></cc:Work></rdf:RDF></metadata><defs
     id="defs6"><clipPath
       clipPathUnits="userSpaceOnUse"
       id="clipPath22"><path
         d="M 0,512 H 905.88 V 0 H 0 Z"
         id="path20" /></clipPath></defs><g
     id="g10"
     transform="matrix(1.3477123,0,0,-1.3477123,-15.931337,687.06305)"><g
       id="g1974"
       transform="translate(-41.04319,51.821415)"><g
         id="g1727"><g
           id="g12"
           transform="translate(407.1665,214.6405)"><path
             d="M 0,0 H 4.775 L 4.721,38.314 H 0.604 L -15.546,10.726 -31.92,38.314 h -4.118 V 0 h 4.776 V 28.879 L -16.778,4.72 h 2.239 l 14.481,24.328 z"
             style="fill:#048dca;fill-opacity:1;fill-rule:nonzero;stroke:none"
             id="path14" /></g><g
           id="g24"
           transform="translate(452.0322,220.5623)"><path
             d="m 0,0 c -2.309,-1.313 -4.943,-1.979 -7.829,-1.979 -2.886,0 -5.538,0.666 -7.881,1.979 -2.347,1.312 -4.213,3.15 -5.547,5.462 -1.333,2.308 -2.009,4.924 -2.009,7.773 0,2.851 0.676,5.467 2.009,7.775 1.332,2.307 3.198,4.145 5.547,5.462 2.345,1.313 4.997,1.978 7.881,1.978 2.884,0 5.518,-0.665 7.829,-1.978 C 2.309,25.154 4.156,23.317 5.489,21.01 6.822,18.7 7.498,16.086 7.498,13.235 7.498,10.386 6.822,7.771 5.489,5.462 4.154,3.15 2.307,1.313 0,0 m 9.867,3.188 c 1.744,2.96 2.628,6.34 2.628,10.047 0,3.707 -0.884,7.088 -2.628,10.049 -1.742,2.958 -4.191,5.316 -7.279,7.005 -3.09,1.69 -6.594,2.548 -10.417,2.548 -3.859,0 -7.383,-0.858 -10.472,-2.548 -3.088,-1.689 -5.547,-4.057 -7.307,-7.033 -1.762,-2.978 -2.655,-6.348 -2.655,-10.021 0,-3.672 0.893,-7.043 2.655,-10.019 1.759,-2.977 4.218,-5.343 7.307,-7.033 3.089,-1.692 6.613,-2.548 10.472,-2.548 3.823,0 7.327,0.856 10.417,2.548 3.088,1.689 5.537,4.046 7.279,7.005"
             style="fill:#048dca;fill-opacity:1;fill-rule:nonzero;stroke:none"
             id="path26" /></g><g
           id="g28"
           transform="translate(506.1919,226.0223)"><path
             d="m 0,0 c -1.319,-2.239 -3.216,-4.002 -5.639,-5.243 -2.414,-1.236 -5.249,-1.862 -8.427,-1.862 h -10.773 v 29.761 h 10.773 c 3.178,0 6.013,-0.627 8.427,-1.861 C -3.216,19.554 -1.319,17.79 0,15.552 1.314,13.314 1.981,10.698 1.981,7.775 1.981,4.853 1.314,2.237 0,0 m 4.38,-2.216 c 1.725,2.888 2.599,6.249 2.599,9.991 0,3.744 -0.874,7.104 -2.599,9.993 -1.724,2.883 -4.18,5.156 -7.302,6.752 -3.129,1.6 -6.767,2.413 -10.811,2.413 h -16.104 v -38.315 h 16.104 c 4.044,0 7.682,0.813 10.811,2.413 3.122,1.597 5.578,3.869 7.302,6.753"
             style="fill:#048dca;fill-opacity:1;fill-rule:nonzero;stroke:none"
             id="path30" /></g><g
           id="g32"
           transform="translate(549.4844,232.0204)"><path
             d="M 0,0 V 4.165 H -19.49 V 16.658 H 2.389 v 4.277 H -24.487 V -17.38 H 3.166 v 4.276 H -19.49 V 0 Z"
             style="fill:#048dca;fill-opacity:1;fill-rule:nonzero;stroke:none"
             id="path34" /></g><g
           id="g36"
           transform="translate(564.9775,252.9549)"><path
             d="m 0,0 v -38.314 h 26.043 v 4.276 H 4.997 V 0 Z"
             style="fill:#048dca;fill-opacity:1;fill-rule:nonzero;stroke:none"
             id="path38" /></g><g
           id="g40"
           transform="translate(625.1123,220.5623)"><path
             d="m 0,0 c -2.308,-1.313 -4.941,-1.979 -7.828,-1.979 -2.886,0 -5.537,0.666 -7.881,1.979 -2.348,1.313 -4.214,3.15 -5.548,5.462 -1.332,2.307 -2.008,4.923 -2.008,7.773 0,2.852 0.676,5.468 2.008,7.775 1.332,2.307 3.198,4.144 5.548,5.462 2.346,1.313 4.997,1.978 7.881,1.978 2.885,0 5.518,-0.665 7.828,-1.978 C 2.311,25.154 4.157,23.317 5.49,21.01 6.822,18.7 7.498,16.085 7.498,13.235 7.498,10.387 6.822,7.771 5.49,5.462 4.155,3.15 2.308,1.313 0,0 m 9.868,3.188 c 1.743,2.959 2.627,6.339 2.627,10.047 0,3.708 -0.884,7.089 -2.627,10.049 -1.742,2.958 -4.191,5.316 -7.279,7.005 -3.09,1.69 -6.594,2.548 -10.417,2.548 -3.86,0 -7.383,-0.858 -10.473,-2.548 -3.087,-1.689 -5.546,-4.057 -7.307,-7.033 -1.761,-2.977 -2.654,-6.347 -2.654,-10.021 0,-3.672 0.893,-7.044 2.654,-10.019 1.76,-2.978 4.219,-5.344 7.307,-7.033 3.09,-1.692 6.613,-2.548 10.473,-2.548 3.823,0 7.327,0.856 10.417,2.548 3.088,1.689 5.537,4.046 7.279,7.005"
             style="fill:#048dca;fill-opacity:1;fill-rule:nonzero;stroke:none"
             id="path42" /></g><g
           id="g44"
           transform="translate(697.7783,252.9549)"><path
             d="M 0,0 -10.917,-32.354 -21.832,0 h -4.713 L -37.687,-32.183 -48.377,0 h -5.133 l 12.808,-38.314 h 5.544 l 10.804,31.622 10.804,-31.622 h 5.433 L 4.689,0 Z"
             style="fill:#048dca;fill-opacity:1;fill-rule:nonzero;stroke:none"
             id="path46" /></g><g
           id="g48"
           transform="translate(725.6221,248.2567)"><path
             d="M 0,0 8.81,-20.012 H -8.81 Z m 10.509,-23.898 4.276,-9.718 h 5.219 L 2.598,4.698 h -5.14 l -17.351,-38.314 h 5.108 l 4.276,9.718 z"
             style="fill:#048dca;fill-opacity:1;fill-rule:nonzero;stroke:none"
             id="path50" /></g><g
           id="g52"
           transform="translate(783.6152,214.6405)"><path
             d="M 0,0 H 4.142 V 38.314 H -0.855 V 8.817 l -0.494,0.616 -23.24,28.881 H -28.73 V 0 h 4.998 v 29.497 l 0.493,-0.614 z"
             style="fill:#048dca;fill-opacity:1;fill-rule:nonzero;stroke:none"
             id="path54" /></g><path
           d="m 802.75,214.64 h 4.997 v 38.314 h -4.997 z"
           style="fill:#048dca;fill-opacity:1;fill-rule:nonzero;stroke:none"
           id="path56" /><g
           id="g58"
           transform="translate(847.2275,232.0204)"><path
             d="M 0,0 V 4.165 H -19.49 V 16.658 H 2.389 v 4.277 H -24.487 V -17.38 H 3.166 v 4.276 H -19.49 V 0 Z"
             style="fill:#048dca;fill-opacity:1;fill-rule:nonzero;stroke:none"
             id="path60" /></g><g
           id="g62"
           transform="translate(476.1255,148.6737)"><path
             d="m 0,0 c 3.241,0 6.005,0.487 8.219,1.448 2.197,0.954 3.856,2.264 4.931,3.896 1.075,1.631 1.621,3.457 1.621,5.427 0,2.363 -0.622,4.262 -1.846,5.647 -1.241,1.403 -2.746,2.462 -4.475,3.147 -1.753,0.693 -4.113,1.399 -7.016,2.099 -2.255,0.516 -4.068,1.014 -5.386,1.479 -1.342,0.471 -2.488,1.145 -3.401,2.002 -0.942,0.884 -1.421,2.045 -1.421,3.452 0,1.898 0.832,3.468 2.474,4.667 1.616,1.176 4.053,1.773 7.244,1.773 1.791,0 3.649,-0.274 5.519,-0.815 1.762,-0.511 3.446,-1.257 5.012,-2.217 l 1.62,3.931 c -1.522,1.025 -3.353,1.829 -5.448,2.388 -2.189,0.582 -4.444,0.878 -6.703,0.878 -3.242,0 -5.987,-0.496 -8.16,-1.474 -2.164,-0.974 -3.796,-2.286 -4.851,-3.897 -1.057,-1.611 -1.593,-3.447 -1.593,-5.457 0,-2.4 0.622,-4.329 1.847,-5.731 1.243,-1.423 2.757,-2.49 4.501,-3.173 1.78,-0.697 4.15,-1.403 7.044,-2.098 2.33,-0.556 4.161,-1.061 5.44,-1.508 C 6.48,15.41 7.599,14.744 8.493,13.888 9.416,13.004 9.884,11.843 9.884,10.438 9.884,8.535 9.04,6.992 7.376,5.852 5.746,4.731 3.265,4.165 0,4.165 c -2.465,0 -4.897,0.426 -7.229,1.266 -2.196,0.79 -4.046,1.817 -5.504,3.057 l -1.809,-3.812 c 1.507,-1.35 3.58,-2.47 6.162,-3.33 C -5.704,0.452 -2.884,0 0,0"
             style="fill:#048dca;fill-opacity:1;fill-rule:nonzero;stroke:none"
             id="path64" /></g><g
           id="g66"
           transform="translate(526.2012,187.4315)"><path
             d="M 0,0 -12.65,-20.747 -25.244,0 h -5.291 l 15.22,-24.965 v -13.349 h 4.942 v 13.239 L 4.848,0 Z"
             style="fill:#048dca;fill-opacity:1;fill-rule:nonzero;stroke:none"
             id="path68" /></g><g
           id="g70"
           transform="translate(539.5381,187.4315)"><path
             d="m 0,0 v -38.314 h 26.044 v 4.276 H 4.998 V 0 Z"
             style="fill:#048dca;fill-opacity:1;fill-rule:nonzero;stroke:none"
             id="path72" /></g><g
           id="g74"
           transform="translate(621.9766,187.4315)"><path
             d="M 0,0 -10.917,-32.354 -21.833,0 h -4.712 L -37.687,-32.183 -48.377,0 h -5.133 l 12.807,-38.314 h 5.545 l 10.804,31.622 10.803,-31.622 h 5.433 L 4.689,0 Z"
             style="fill:#048dca;fill-opacity:1;fill-rule:nonzero;stroke:none"
             id="path76" /></g><g
           id="g78"
           transform="translate(661.3682,166.4969)"><path
             d="M 0,0 V 4.165 H -19.49 V 16.658 H 2.388 v 4.277 H -24.488 V -17.38 H 3.165 v 4.276 H -19.49 V 0 Z"
             style="fill:#048dca;fill-opacity:1;fill-rule:nonzero;stroke:none"
             id="path80" /></g><g
           id="g82"
           transform="translate(702.8486,187.4315)"><path
             d="m 0,0 h -31.597 v -4.276 h 13.327 v -34.038 h 4.943 V -4.276 H 0 Z"
             style="fill:#048dca;fill-opacity:1;fill-rule:nonzero;stroke:none"
             id="path84" /></g><g
           id="g86"
           transform="translate(724.8252,166.2899)"><path
             d="m 0,0 14.798,-17.173 h 5.781 L 3.139,3.941 19.467,21.142 H 13.899 L -7.596,-0.977 v 22.119 h -4.998 v -38.315 h 4.998 v 9.887 l 7.4,7.515 z"
             style="fill:#048dca;fill-opacity:1;fill-rule:nonzero;stroke:none"
             id="path88" /></g><path
           d="m 754.934,149.117 h 4.997 v 38.314 h -4.997 z"
           style="fill:#048dca;fill-opacity:1;fill-rule:nonzero;stroke:none"
           id="path90" /><g
           id="g92"
           transform="translate(396.3296,323.7664)"><path
             d="M 0,0 C -0.071,-0.071 -0.106,-0.143 -0.106,-0.213 L 3.199,1.173 C 2.914,1.456 2.647,1.706 2.399,1.919 2.149,2.133 1.883,2.346 1.6,2.559 Z M -1.919,4.798 C -2.702,5.081 -3.661,5.294 -4.797,5.437 -5.65,5.508 -6.521,5.384 -7.41,5.064 -8.299,4.745 -9.027,4.3 -9.595,3.732 c -0.57,-0.57 -0.836,-1.191 -0.8,-1.866 0.036,-0.676 0.586,-1.369 1.653,-2.079 0.427,-0.285 0.888,-0.479 1.386,-0.586 0.497,-0.107 0.994,-0.197 1.493,-0.267 L -5.117,0 Z M 79.427,36.462 C 77.792,36.532 76.176,36.373 74.576,35.983 72.978,35.591 71.378,35.077 69.779,34.437 68.18,33.797 66.616,33.104 65.088,32.358 63.559,31.612 62.12,30.882 60.771,30.172 57.146,28.253 53.591,26.263 50.109,24.202 46.626,22.139 43.143,20.079 39.661,18.018 36.106,15.886 32.571,13.771 29.053,11.675 25.535,9.577 21.926,7.57 18.231,5.651 16.526,4.727 14.767,3.785 12.954,2.826 11.142,1.866 9.311,0.96 7.463,0.107 c 2.415,-2.772 4.353,-5.864 5.811,-9.275 1.456,-3.412 2.842,-6.86 4.158,-10.342 1.315,-3.483 2.754,-6.877 4.318,-10.182 1.562,-3.305 3.695,-6.272 6.396,-8.902 1.28,-1.208 2.701,-2.202 4.265,-2.986 1.563,-0.78 3.269,-1.207 5.118,-1.279 0.567,0 1.207,0.107 1.918,0.32 0.711,0.213 1.349,0.25 1.92,0.106 0.496,-0.141 0.923,-0.442 1.279,-0.905 0.354,-0.462 0.107,-0.87 -0.747,-1.226 -3.198,-1.208 -6.29,-1.475 -9.274,-0.8 -2.986,0.676 -5.722,2.151 -8.209,4.425 -2.916,2.63 -5.262,5.721 -7.037,9.275 -1.778,3.553 -3.271,7.143 -4.478,10.768 -1.138,3.412 -2.204,6.858 -3.199,10.341 -0.996,3.482 -2.595,6.718 -4.798,9.702 -1.137,-0.426 -2.257,-0.817 -3.358,-1.172 -1.102,-0.356 -2.222,-0.64 -3.358,-0.853 -1.849,-2.985 -3.662,-5.954 -5.438,-8.903 -1.777,-2.949 -3.555,-5.916 -5.33,-8.902 -0.853,-1.492 -1.689,-2.985 -2.506,-4.478 -0.817,-1.492 -1.618,-2.985 -2.398,-4.478 -0.214,-0.426 -0.463,-0.977 -0.747,-1.652 -0.285,-0.676 -0.604,-1.351 -0.959,-2.026 -0.356,-0.675 -0.747,-1.261 -1.173,-1.759 -0.427,-0.496 -0.925,-0.746 -1.492,-0.746 -0.997,0 -1.637,0.231 -1.919,0.693 -0.285,0.463 -0.373,1.013 -0.268,1.653 0.107,0.639 0.321,1.279 0.641,1.919 0.319,0.639 0.586,1.172 0.799,1.599 0.853,1.634 1.706,3.287 2.559,4.958 0.853,1.668 1.74,3.321 2.665,4.957 1.634,2.985 3.305,5.898 5.011,8.742 1.706,2.842 3.482,5.686 5.331,8.53 -0.997,0.213 -1.937,0.567 -2.826,1.065 -0.889,0.497 -1.582,1.102 -2.078,1.813 -0.498,0.71 -0.73,1.475 -0.694,2.292 0.035,0.816 0.55,1.723 1.546,2.719 1.493,1.492 3.146,2.274 4.958,2.345 1.813,0.07 3.607,-0.284 5.384,-1.066 2.913,4.193 6.077,8.423 9.489,12.687 1.066,1.35 2.149,2.701 3.252,4.051 1.1,1.35 2.255,2.666 3.464,3.946 0.214,0.283 0.587,0.746 1.12,1.385 0.533,0.64 1.119,1.297 1.759,1.973 0.64,0.674 1.261,1.243 1.866,1.706 0.603,0.461 1.119,0.621 1.546,0.48 0.354,-0.144 0.586,-0.374 0.692,-0.693 0.107,-0.32 0.054,-0.659 -0.159,-1.014 C 18.871,26.511 15.547,22.123 12.314,17.752 9.079,13.38 5.899,8.884 2.772,4.265 3.767,3.625 4.655,2.949 5.437,2.239 l 0.214,0.107 c 3.695,1.706 7.303,3.571 10.821,5.597 3.518,2.026 7,4.105 10.448,6.237 3.447,2.132 6.893,4.281 10.342,6.45 3.447,2.168 6.946,4.246 10.502,6.237 3.198,1.776 6.36,3.482 9.488,5.118 3.127,1.634 6.397,3.092 9.809,4.371 1.563,0.568 3.161,1.066 4.797,1.492 1.634,0.427 3.268,0.71 4.905,0.853 0.354,0.07 0.815,0.124 1.385,0.16 0.568,0.035 1.03,-0.018 1.386,-0.16 0.71,-0.143 1.03,-0.551 0.959,-1.226 -0.071,-0.676 -0.426,-1.013 -1.066,-1.013"
             style="fill:#048dca;fill-opacity:1;fill-rule:nonzero;stroke:none"
             id="path94" /></g><g
           id="g96"
           transform="translate(441.8535,305.8553)"><path
             d="M 0,0 C 0.781,0.995 1.582,1.883 2.399,2.666 3.216,3.447 4.122,4.051 5.118,4.478 5.187,5.331 4.975,5.899 4.478,6.184 3.98,6.467 3.375,6.573 2.666,6.503 1.955,6.432 1.208,6.272 0.426,6.024 c -0.782,-0.25 -1.422,-0.517 -1.918,-0.8 -2.986,-1.705 -5.651,-3.91 -7.996,-6.61 -0.427,-0.426 -1.138,-1.209 -2.133,-2.345 -0.996,-1.138 -1.972,-2.329 -2.931,-3.572 -0.96,-1.244 -1.706,-2.399 -2.24,-3.465 -0.532,-1.066 -0.514,-1.742 0.053,-2.025 0.854,-0.285 1.76,-0.232 2.719,0.159 0.96,0.39 1.883,0.923 2.772,1.599 0.889,0.676 1.741,1.387 2.559,2.133 0.816,0.746 1.51,1.402 2.079,1.972 1.136,0.995 2.239,2.096 3.306,3.305 C -2.238,-2.417 -1.138,-1.209 0,0 M 5.971,7.89 C 6.61,7.25 7,6.36 7.143,5.224 7.854,5.437 8.458,5.366 8.957,5.011 9.452,4.655 9.559,4.335 9.276,4.051 8.991,3.767 8.743,3.482 8.529,3.199 7.89,2.203 7.179,1.296 6.397,0.48 5.614,-0.338 4.868,-1.209 4.158,-2.132 3.732,-2.63 3.216,-3.234 2.613,-3.944 2.008,-4.656 1.386,-5.437 0.747,-6.29 c -0.641,-0.853 -1.226,-1.724 -1.76,-2.612 -0.532,-0.89 -0.871,-1.724 -1.013,-2.506 -0.143,-0.782 -0.053,-1.35 0.267,-1.705 0.32,-0.357 0.907,-0.391 1.759,-0.107 0.781,0.213 1.563,0.568 2.346,1.066 0.781,0.496 1.455,0.923 2.026,1.279 1.633,1.208 3.214,2.522 4.744,3.945 1.528,1.421 3.002,2.879 4.425,4.372 0.141,0.141 0.319,0.373 0.532,0.693 0.214,0.32 0.444,0.603 0.693,0.853 0.249,0.247 0.515,0.479 0.799,0.693 0.285,0.213 0.569,0.283 0.854,0.213 0.568,-0.144 0.87,-0.357 0.906,-0.64 0.035,-0.285 -0.036,-0.586 -0.213,-0.906 -0.178,-0.32 -0.426,-0.64 -0.746,-0.96 -0.32,-0.32 -0.516,-0.551 -0.587,-0.693 -1.423,-1.564 -2.878,-3.057 -4.371,-4.478 -1.493,-1.423 -3.057,-2.737 -4.691,-3.945 -0.783,-0.569 -1.849,-1.226 -3.198,-1.972 -1.352,-0.746 -2.649,-1.226 -3.892,-1.439 -1.244,-0.213 -2.293,-0.053 -3.145,0.48 -0.853,0.533 -1.138,1.794 -0.853,3.784 0.213,1.493 0.639,3.127 1.279,4.905 l -3.624,-3.518 c -0.57,-0.498 -1.53,-1.263 -2.879,-2.293 -1.351,-1.031 -2.756,-1.865 -4.211,-2.505 -1.458,-0.64 -2.754,-0.853 -3.891,-0.64 -1.137,0.213 -1.814,1.28 -2.026,3.198 -0.214,1.919 0.106,3.767 0.96,5.544 0.852,1.777 1.971,3.447 3.357,5.012 1.386,1.562 2.933,2.966 4.638,4.211 1.706,1.242 3.306,2.255 4.798,3.038 0.709,0.355 1.599,0.782 2.666,1.279 1.066,0.497 2.148,0.889 3.251,1.173 C 1.048,8.813 2.132,8.938 3.199,8.902 4.265,8.866 5.187,8.529 5.971,7.89"
             style="fill:#048dca;fill-opacity:1;fill-rule:nonzero;stroke:none"
             id="path98" /></g><g
           id="g100"
           transform="translate(490.1489,341.4647)"><path
             d="m 0,0 c -1.849,-1.636 -3.625,-3.323 -5.331,-5.064 -1.706,-1.743 -3.377,-3.537 -5.01,-5.384 l 6.29,-0.427 c 1.776,1.706 3.572,3.447 5.384,5.225 1.812,1.775 3.393,3.411 4.744,4.904 1.35,1.493 2.399,2.753 3.145,3.785 0.746,1.029 1.012,1.687 0.8,1.972 C 9.452,5.507 8.689,5.597 7.729,5.278 6.77,4.958 5.774,4.459 4.745,3.785 3.713,3.109 2.753,2.38 1.865,1.6 0.976,0.816 0.354,0.284 0,0 m -12.581,-13.007 c -4.336,-5.33 -8.459,-11.018 -12.366,-17.058 1.634,1.42 3.251,2.86 4.85,4.318 1.599,1.456 3.215,2.932 4.851,4.424 l 8.529,7.996 z m -45.524,0 c 1.21,0.923 2.595,1.616 4.158,2.079 1.565,0.462 3.198,0.8 4.905,1.013 1.706,0.213 3.412,0.336 5.118,0.373 1.705,0.035 3.269,0.053 4.69,0.053 4.052,0.07 8.12,0.017 12.208,-0.16 4.086,-0.178 8.155,-0.373 12.207,-0.586 1.492,1.563 3.037,3.109 4.637,4.638 1.6,1.528 3.216,3.002 4.851,4.425 1.421,1.207 2.842,2.38 4.265,3.518 1.42,1.136 2.913,2.202 4.478,3.198 0.426,0.213 1.047,0.515 1.865,0.906 0.817,0.39 1.653,0.693 2.505,0.906 0.854,0.214 1.67,0.267 2.452,0.16 0.783,-0.106 1.315,-0.551 1.6,-1.332 0.355,-0.64 0.408,-1.386 0.16,-2.239 C 11.744,3.092 11.354,2.239 10.821,1.386 10.288,0.533 9.702,-0.267 9.062,-1.013 8.422,-1.759 7.924,-2.345 7.57,-2.771 6.29,-4.265 5.028,-5.687 3.785,-7.037 2.54,-8.387 1.208,-9.739 -0.214,-11.088 l 9.916,-0.32 c 1.847,-0.143 3.695,-0.231 5.544,-0.266 1.847,-0.037 3.694,0.017 5.543,0.16 0.782,0.07 1.6,0.106 2.453,0.106 0.853,0 1.706,0.07 2.559,0.214 0.426,0.07 1.066,0.213 1.918,0.426 0.854,0.213 1.457,0.142 1.813,-0.213 0.497,-0.498 0.515,-0.925 0.052,-1.28 -0.462,-0.356 -1.101,-0.639 -1.917,-0.852 -0.819,-0.214 -1.636,-0.374 -2.453,-0.48 -0.818,-0.107 -1.333,-0.16 -1.546,-0.16 -2.062,-0.285 -4.088,-0.426 -6.077,-0.426 h -5.97 c -2.49,0 -4.923,0.053 -7.304,0.159 -2.381,0.107 -4.78,0.23 -7.195,0.374 -4.265,-4.124 -8.637,-8.104 -13.115,-11.941 -4.477,-3.838 -8.991,-7.676 -13.539,-11.515 -0.853,-1.351 -1.653,-2.718 -2.399,-4.105 -0.746,-1.385 -1.298,-2.825 -1.652,-4.317 -0.355,-1.423 -0.23,-2.364 0.373,-2.825 0.603,-0.464 1.386,-0.64 2.345,-0.533 0.96,0.106 1.973,0.389 3.039,0.853 1.066,0.461 1.919,0.906 2.559,1.332 1.705,1.136 3.304,2.381 4.797,3.731 1.492,1.35 2.948,2.772 4.371,4.265 0.354,0.355 0.764,0.8 1.226,1.333 0.461,0.533 0.906,0.976 1.332,1.332 0.569,0.427 1.084,0.427 1.547,0 0.461,-0.426 0.442,-0.924 -0.053,-1.492 -2.276,-2.276 -4.603,-4.568 -6.984,-6.877 -2.382,-2.31 -5.029,-4.176 -7.942,-5.597 -0.64,-0.356 -1.369,-0.64 -2.186,-0.853 -0.817,-0.213 -1.635,-0.336 -2.452,-0.373 -0.817,-0.035 -1.582,0.09 -2.292,0.373 -0.71,0.283 -1.315,0.816 -1.813,1.6 -0.496,0.78 -0.762,1.652 -0.799,2.611 -0.035,0.96 0.053,1.919 0.267,2.879 0.212,0.959 0.479,1.901 0.799,2.825 0.32,0.923 0.658,1.776 1.013,2.559 1.493,3.625 3.34,7.053 5.544,10.288 2.202,3.234 4.513,6.413 6.929,9.542 0.782,0.995 1.563,1.973 2.346,2.932 0.782,0.96 1.599,1.936 2.452,2.932 -3.412,0.213 -6.788,0.39 -10.128,0.533 -3.342,0.142 -6.717,0.213 -10.129,0.213 -1.775,0 -3.553,-0.036 -5.33,-0.106 -1.775,-0.072 -3.553,-0.179 -5.331,-0.32 -1.349,-0.143 -2.788,-0.339 -4.317,-0.586 -1.528,-0.25 -2.861,-0.765 -3.999,-1.547 -0.283,-0.212 -0.603,-0.302 -0.958,-0.266 -0.356,0.035 -0.658,0.123 -0.907,0.266 -0.249,0.142 -0.373,0.355 -0.373,0.64 0,0.284 0.178,0.568 0.532,0.853"
             style="fill:#048dca;fill-opacity:1;fill-rule:nonzero;stroke:none"
             id="path102" /></g><g
           id="g104"
           transform="translate(491.2148,305.8553)"><path
             d="M 0,0 C 0.781,0.995 1.581,1.883 2.399,2.666 3.216,3.447 4.121,4.051 5.118,4.478 5.187,5.331 4.975,5.899 4.478,6.184 3.98,6.467 3.375,6.573 2.666,6.503 1.954,6.432 1.208,6.272 0.426,6.024 c -0.783,-0.25 -1.422,-0.517 -1.918,-0.8 -2.986,-1.705 -5.651,-3.91 -7.997,-6.61 -0.426,-0.426 -1.137,-1.209 -2.132,-2.345 -0.997,-1.138 -1.973,-2.329 -2.931,-3.572 -0.96,-1.244 -1.706,-2.399 -2.24,-3.465 -0.532,-1.066 -0.514,-1.742 0.053,-2.025 0.854,-0.285 1.76,-0.232 2.719,0.159 0.96,0.39 1.883,0.923 2.772,1.599 0.889,0.676 1.741,1.387 2.559,2.133 0.816,0.746 1.509,1.402 2.079,1.972 1.136,0.995 2.239,2.096 3.305,3.305 C -2.238,-2.417 -1.138,-1.209 0,0 M 5.97,7.89 C 6.61,7.25 7,6.36 7.143,5.224 7.853,5.437 8.457,5.366 8.956,5.011 9.452,4.655 9.559,4.335 9.276,4.051 8.991,3.767 8.742,3.482 8.529,3.199 7.89,2.203 7.179,1.296 6.396,0.48 5.614,-0.338 4.867,-1.209 4.158,-2.132 3.732,-2.63 3.216,-3.234 2.613,-3.944 2.007,-4.656 1.386,-5.437 0.746,-6.29 c -0.64,-0.853 -1.225,-1.724 -1.759,-2.612 -0.532,-0.89 -0.871,-1.724 -1.013,-2.506 -0.143,-0.782 -0.053,-1.35 0.267,-1.705 0.32,-0.357 0.906,-0.391 1.759,-0.107 0.781,0.213 1.563,0.568 2.346,1.066 0.78,0.496 1.455,0.923 2.026,1.279 1.633,1.208 3.214,2.522 4.744,3.945 1.528,1.421 3.002,2.879 4.425,4.372 0.141,0.141 0.319,0.373 0.532,0.693 0.214,0.32 0.444,0.603 0.693,0.853 0.248,0.247 0.515,0.479 0.799,0.693 0.285,0.213 0.568,0.283 0.854,0.213 0.568,-0.144 0.87,-0.357 0.905,-0.64 0.036,-0.285 -0.035,-0.586 -0.212,-0.906 -0.178,-0.32 -0.426,-0.64 -0.746,-0.96 -0.32,-0.32 -0.516,-0.551 -0.587,-0.693 C 14.356,-4.869 12.9,-6.362 11.408,-7.783 9.915,-9.206 8.351,-10.52 6.716,-11.728 5.934,-12.297 4.867,-12.954 3.518,-13.7 c -1.351,-0.746 -2.648,-1.226 -3.891,-1.439 -1.244,-0.213 -2.293,-0.053 -3.145,0.48 -0.853,0.533 -1.138,1.794 -0.853,3.784 0.213,1.493 0.639,3.127 1.279,4.905 l -3.625,-3.518 c -0.569,-0.498 -1.529,-1.263 -2.878,-2.293 -1.351,-1.031 -2.756,-1.865 -4.211,-2.505 -1.458,-0.64 -2.754,-0.853 -3.892,-0.64 -1.136,0.213 -1.813,1.28 -2.026,3.198 -0.213,1.919 0.107,3.767 0.96,5.544 0.853,1.777 1.972,3.447 3.358,5.012 1.386,1.562 2.933,2.966 4.637,4.211 1.706,1.242 3.306,2.255 4.799,3.038 0.709,0.355 1.599,0.782 2.665,1.279 1.067,0.497 2.149,0.889 3.252,1.173 C 1.048,8.813 2.132,8.938 3.198,8.902 4.264,8.866 5.187,8.529 5.97,7.89"
             style="fill:#048dca;fill-opacity:1;fill-rule:nonzero;stroke:none"
             id="path106" /></g><g
           id="g108"
           transform="translate(512.6436,312.3587)"><path
             d="M 0,0 C -0.144,-0.356 -0.144,-0.676 0,-0.959 0.923,0.035 1.795,1.03 2.612,2.026 3.429,3.021 4.157,4.015 4.798,5.011 3.802,4.655 2.842,3.927 1.919,2.826 0.994,1.723 0.355,0.782 0,0 m -6.823,-7.676 2.505,2.506 c 0.888,0.887 1.794,1.794 2.719,2.718 -0.854,0.853 -0.997,1.919 -0.426,3.199 0.213,0.639 0.64,1.386 1.278,2.238 0.641,0.853 1.35,1.653 2.133,2.399 C 2.168,6.13 3.02,6.717 3.945,7.144 4.868,7.57 5.721,7.64 6.504,7.356 7.356,7.144 7.693,6.627 7.517,5.811 7.339,4.993 6.911,4.122 6.236,3.199 5.562,2.274 4.813,1.386 3.998,0.533 3.181,-0.319 2.559,-0.959 2.133,-1.385 c 0.638,0 1.242,0.07 1.812,0.213 0.853,0.141 1.828,0.266 2.932,0.373 1.101,0.106 1.973,-0.232 2.612,-1.013 0.639,-0.853 0.834,-1.778 0.586,-2.772 C 9.825,-5.581 9.363,-6.557 8.688,-7.516 8.014,-8.476 7.25,-9.365 6.397,-10.182 5.544,-11 4.868,-11.657 4.371,-12.154 c -0.426,-0.356 -1.05,-0.889 -1.865,-1.599 -0.819,-0.711 -1.618,-1.493 -2.4,-2.345 -0.782,-0.853 -1.422,-1.706 -1.918,-2.559 -0.499,-0.853 -0.57,-1.599 -0.213,-2.239 0.64,-0.426 1.349,-0.552 2.131,-0.374 0.782,0.178 1.581,0.515 2.4,1.014 0.815,0.496 1.58,1.048 2.292,1.652 0.709,0.603 1.279,1.083 1.706,1.439 1.775,1.421 3.465,2.914 5.063,4.478 1.6,1.563 3.181,3.162 4.745,4.798 0.283,0.283 0.569,0.603 0.852,0.959 0.284,0.355 0.641,0.462 1.066,0.321 0.356,-0.072 0.587,-0.214 0.694,-0.427 0.107,-0.214 0.141,-0.426 0.107,-0.64 -0.037,-0.213 -0.143,-0.445 -0.32,-0.693 -0.179,-0.25 -0.338,-0.445 -0.481,-0.587 -1.421,-1.492 -2.861,-2.968 -4.317,-4.424 -1.458,-1.457 -3.003,-2.897 -4.638,-4.318 -0.569,-0.426 -1.529,-1.156 -2.878,-2.185 -1.351,-1.032 -2.772,-1.883 -4.264,-2.559 -1.493,-0.675 -2.88,-1.013 -4.158,-1.013 -1.28,0 -2.098,0.818 -2.453,2.453 -0.285,0.922 -0.319,1.882 -0.107,2.878 0.214,0.995 0.568,1.972 1.066,2.932 0.497,0.959 1.049,1.865 1.653,2.718 0.603,0.853 1.19,1.599 1.76,2.239 l 4.158,4.265 c 0.496,0.496 0.887,0.888 1.172,1.173 0.283,0.283 0.587,0.568 0.907,0.853 0.319,0.283 0.55,0.461 0.692,0.533 -0.214,0.07 -0.604,0.106 -1.172,0.106 -0.57,0 -1.156,-0.018 -1.759,-0.053 C 3.287,-3.395 2.735,-3.43 2.239,-3.464 1.741,-3.501 1.421,-3.518 1.279,-3.518 c -0.498,0 -0.852,0.035 -1.066,0.107 -0.853,-0.853 -1.706,-1.743 -2.558,-2.666 -0.854,-0.924 -1.637,-1.777 -2.346,-2.559 -0.143,-0.143 -0.303,-0.302 -0.479,-0.479 -0.18,-0.178 -0.373,-0.303 -0.587,-0.373 -0.498,-0.144 -0.889,0.035 -1.173,0.532 -0.282,0.498 -0.248,0.923 0.107,1.28"
             style="fill:#048dca;fill-opacity:1;fill-rule:nonzero;stroke:none"
             id="path110" /></g><g
           id="g112"
           transform="translate(528.8486,304.3631)"><path
             d="m 0,0 c 1.349,1.421 2.878,2.948 4.584,4.584 1.706,1.635 3.269,3.092 4.691,4.372 0.355,0.354 0.782,0.799 1.28,1.332 0.496,0.533 1.029,0.87 1.599,1.013 0.495,0.07 0.869,-0.125 1.119,-0.586 C 13.521,10.251 13.469,9.843 13.112,9.489 13.041,9.132 12.9,8.759 12.687,8.369 12.474,7.978 12.366,7.64 12.366,7.356 c 0,0.07 0.214,0.142 0.641,0.213 0.426,0.071 0.906,0.16 1.438,0.267 0.534,0.106 1.048,0.195 1.547,0.267 0.496,0.069 0.853,0.141 1.067,0.212 1.42,0.427 2.825,0.889 4.211,1.387 1.385,0.496 2.753,1.066 4.103,1.706 0.356,0.07 0.73,0.053 1.121,-0.054 0.389,-0.106 0.693,-0.285 0.905,-0.533 0.214,-0.25 0.302,-0.533 0.267,-0.853 C 27.629,9.648 27.399,9.345 26.974,9.063 L 26.547,8.849 C 26.476,8.493 26.243,8.244 25.854,8.103 25.462,7.959 25.055,7.746 24.627,7.463 24.556,7.391 24.484,7.356 24.415,7.356 23.489,6.645 22.584,5.97 21.695,5.331 20.807,4.691 19.937,4.014 19.084,3.305 L 8.103,-5.011 3.198,-8.743 c 0.781,-0.356 1.634,-0.996 2.56,-1.919 l 0.105,0.107 c 0.853,-0.996 1.919,-1.404 3.2,-1.226 1.279,0.177 2.575,0.621 3.89,1.333 1.315,0.709 2.559,1.546 3.733,2.505 1.171,0.96 2.079,1.723 2.717,2.293 1.493,1.279 2.914,2.593 4.266,3.944 0.212,0.213 0.461,0.497 0.746,0.853 0.283,0.354 0.585,0.71 0.905,1.066 0.321,0.355 0.657,0.656 1.013,0.906 0.354,0.249 0.711,0.337 1.066,0.267 0.71,-0.143 0.923,-0.552 0.64,-1.226 -0.285,-0.676 -0.783,-1.386 -1.492,-2.132 -0.711,-0.747 -1.44,-1.458 -2.186,-2.133 -0.747,-0.676 -1.191,-1.084 -1.333,-1.226 -1.279,-1.21 -2.594,-2.345 -3.944,-3.412 -1.352,-1.066 -2.809,-2.062 -4.371,-2.985 -1.21,-0.783 -2.577,-1.599 -4.106,-2.452 -1.529,-0.853 -3.038,-1.208 -4.531,-1.066 -0.995,0.143 -1.759,0.445 -2.292,0.906 -0.533,0.464 -1.155,0.976 -1.865,1.546 -0.499,0.283 -0.96,0.515 -1.386,0.693 -0.428,0.177 -0.888,0.267 -1.386,0.267 -0.213,-0.214 -0.444,-0.41 -0.693,-0.587 -0.248,-0.178 -0.515,-0.338 -0.801,-0.479 -0.354,-0.285 -0.727,-0.57 -1.119,-0.853 -0.388,-0.284 -0.799,-0.497 -1.225,-0.64 -0.569,-0.07 -0.942,0.018 -1.12,0.267 -0.176,0.25 -0.266,0.532 -0.266,0.852 0,0.32 0.071,0.675 0.213,1.066 0.142,0.39 0.319,0.693 0.533,0.907 1.777,2.274 3.838,3.305 6.185,3.092 1.632,1.136 3.198,2.292 4.69,3.465 1.492,1.172 3.02,2.362 4.584,3.571 l 6.717,5.331 C 16.488,4.086 16.099,4.033 15.672,3.998 15.246,3.961 14.818,3.944 14.393,3.944 13.396,3.873 12.384,4.014 11.354,4.371 10.323,4.726 9.63,5.294 9.275,6.077 8.351,5.224 7.427,4.371 6.504,3.518 5.578,2.665 4.69,1.776 3.838,0.853 3.694,0.709 3.34,0.301 2.771,-0.373 2.202,-1.05 1.775,-1.423 1.492,-1.493 0.994,-1.778 0.479,-1.742 -0.054,-1.386 -0.587,-1.031 -0.568,-0.57 0,0"
             style="fill:#048dca;fill-opacity:1;fill-rule:nonzero;stroke:none"
             id="path114" /></g><g
           id="g116"
           transform="translate(566.4814,313.2118)"><path
             d="m 0,0 c -1.706,-2.275 -3.412,-4.514 -5.117,-6.716 -1.705,-2.204 -3.377,-4.478 -5.011,-6.824 -0.214,-0.356 -0.498,-0.817 -0.852,-1.386 -0.358,-0.569 -0.677,-1.173 -0.96,-1.812 -0.286,-0.64 -0.516,-1.263 -0.694,-1.866 -0.177,-0.604 -0.195,-1.119 -0.053,-1.546 0.213,-0.569 0.709,-0.64 1.493,-0.213 0.781,0.426 1.74,1.119 2.878,2.079 1.136,0.959 2.346,2.096 3.626,3.411 1.278,1.315 2.487,2.576 3.625,3.785 1.134,1.208 2.094,2.256 2.877,3.146 0.783,0.887 1.28,1.439 1.493,1.652 0.142,0.142 0.284,0.283 0.427,0.427 0.141,0.141 0.284,0.282 0.426,0.426 0.709,0.923 1.456,1.812 2.238,2.665 0.783,0.853 1.67,1.563 2.667,2.133 0.568,0.354 1.029,0.533 1.385,0.533 0.071,0 0.123,0.016 0.16,0.053 C 10.643,-0.019 10.697,0 10.769,0 v -0.106 c 0.496,0 0.781,-0.25 0.852,-0.747 0.07,-0.498 -0.178,-1.031 -0.746,-1.599 -1.85,-1.919 -3.483,-4.088 -4.904,-6.504 -1.423,-2.417 -2.844,-4.762 -4.265,-7.036 -1.423,-2.417 -2.844,-4.816 -4.265,-7.196 -1.422,-2.381 -2.842,-4.78 -4.263,-7.197 -1.85,-3.34 -3.751,-6.717 -5.705,-10.128 -1.953,-3.412 -3.535,-6.93 -4.744,-10.554 -0.142,-0.428 -0.355,-0.817 -0.64,-1.174 -0.283,-0.355 -0.709,-0.533 -1.279,-0.533 -0.569,0 -0.942,0.144 -1.12,0.427 -0.176,0.284 -0.283,0.605 -0.32,0.958 -0.034,0.358 0,0.746 0.107,1.174 0.107,0.426 0.232,0.818 0.374,1.173 0.638,1.991 1.369,3.927 2.185,5.81 0.818,1.884 1.689,3.784 2.611,5.704 3.341,6.966 7.144,13.86 11.409,20.683 l 0.106,0.213 c -1.351,-1.422 -2.756,-2.771 -4.211,-4.051 -1.458,-1.279 -2.683,-1.989 -3.678,-2.132 -1.421,-0.142 -2.506,0.319 -3.252,1.386 -0.747,1.066 -1.12,2.202 -1.12,3.411 0,1.635 0.321,3.162 0.96,4.585 0.64,1.421 1.386,2.771 2.239,4.051 0.994,1.493 2.114,2.914 3.359,4.265 1.242,1.349 2.574,2.594 3.997,3.731 0.64,0.568 1.28,1.083 1.92,1.546 0.639,0.462 1.349,0.906 2.132,1.333 0.427,0.07 0.905,0 1.439,-0.213 C 0.479,1.066 0.497,0.64 0,0"
             style="fill:#048dca;fill-opacity:1;fill-rule:nonzero;stroke:none"
             id="path118" /></g><g
           id="g120"
           transform="translate(605.8213,311.1864)"><path
             d="m 0,0 c -0.284,-0.285 -0.783,-0.924 -1.492,-1.919 -0.712,-0.996 -1.529,-2.169 -2.452,-3.518 -0.924,-1.352 -1.866,-2.772 -2.826,-4.265 -0.959,-1.492 -1.831,-2.879 -2.612,-4.158 -0.782,-1.28 -1.423,-2.346 -1.919,-3.199 -0.498,-0.852 -0.676,-1.315 -0.533,-1.385 0.781,-0.285 1.634,-0.285 2.559,0 0.922,0.283 1.812,0.728 2.665,1.332 0.853,0.603 1.652,1.243 2.399,1.919 0.746,0.675 1.403,1.226 1.973,1.653 2.771,2.346 5.33,4.904 7.675,7.676 0.355,0.355 0.816,0.462 1.387,0.32 0.568,-0.143 0.78,-0.533 0.64,-1.173 C 7.32,-7.286 6.946,-7.836 6.344,-8.369 5.739,-8.902 5.259,-9.347 4.904,-9.702 c -1.422,-1.423 -2.879,-2.825 -4.371,-4.212 -1.492,-1.385 -3.056,-2.683 -4.691,-3.891 -0.57,-0.356 -1.226,-0.783 -1.972,-1.279 -0.746,-0.499 -1.547,-0.906 -2.399,-1.226 -0.853,-0.32 -1.706,-0.497 -2.558,-0.533 -0.853,-0.035 -1.601,0.232 -2.24,0.799 -0.639,0.568 -0.977,1.315 -1.013,2.239 -0.036,0.923 0.07,1.901 0.32,2.932 0.249,1.03 0.586,2.008 1.013,2.933 0.426,0.922 0.782,1.669 1.067,2.238 0.567,0.994 1.172,1.973 1.811,2.932 0.64,0.959 1.351,1.9 2.134,2.825 -0.997,-0.711 -1.92,-1.439 -2.773,-2.185 -0.853,-0.746 -1.706,-1.512 -2.559,-2.292 -1.209,-1.067 -2.398,-2.151 -3.571,-3.252 -1.172,-1.103 -2.364,-2.186 -3.572,-3.252 -0.426,-0.427 -0.925,-0.96 -1.492,-1.599 -0.57,-0.64 -1.174,-1.28 -1.812,-1.919 -0.64,-0.64 -1.298,-1.191 -1.973,-1.653 -0.677,-0.462 -1.333,-0.693 -1.973,-0.693 -0.709,0.072 -1.1,0.39 -1.173,0.96 -0.07,0.568 0.054,1.261 0.373,2.079 0.321,0.816 0.764,1.706 1.333,2.665 0.569,0.96 1.155,1.882 1.76,2.772 0.603,0.888 1.154,1.669 1.653,2.346 0.496,0.674 0.852,1.119 1.066,1.332 0.78,1.208 1.616,2.434 2.505,3.678 0.888,1.243 1.723,2.506 2.506,3.785 0.14,0.283 0.301,0.587 0.478,0.906 0.178,0.32 0.374,0.587 0.587,0.8 -0.569,-0.285 -1.084,-0.604 -1.545,-0.96 -0.463,-0.356 -0.907,-0.711 -1.333,-1.066 -0.712,-0.569 -1.386,-1.137 -2.026,-1.706 -0.64,-0.569 -1.243,-1.137 -1.812,-1.705 -0.357,-0.357 -0.853,-0.89 -1.493,-1.599 -0.639,-0.712 -1.138,-1.21 -1.493,-1.493 -0.426,-0.357 -0.853,-0.426 -1.278,-0.213 -0.428,0.213 -0.569,0.603 -0.428,1.172 0,0.214 0.214,0.55 0.64,1.013 0.426,0.462 0.711,0.763 0.854,0.907 1.066,1.136 2.185,2.221 3.358,3.251 1.172,1.03 2.398,2.008 3.678,2.932 0.426,0.283 0.994,0.656 1.706,1.12 0.709,0.461 1.421,0.799 2.132,1.012 0.709,0.214 1.332,0.214 1.865,0 0.534,-0.213 0.87,-0.853 1.014,-1.919 0.141,-0.783 0.105,-1.546 -0.106,-2.292 -0.214,-0.746 -0.499,-1.404 -0.854,-1.972 -0.924,-1.636 -1.99,-3.145 -3.198,-4.531 -1.21,-1.386 -2.418,-2.755 -3.625,-4.105 -0.711,-0.783 -1.404,-1.511 -2.079,-2.186 -0.677,-0.676 -1.333,-1.404 -1.973,-2.185 l -1.386,-1.6 1.386,1.386 c 0.782,0.64 1.51,1.296 2.186,1.973 0.674,0.675 1.333,1.368 1.972,2.079 1.421,1.349 2.807,2.665 4.158,3.945 1.349,1.279 2.736,2.522 4.159,3.731 1.207,0.995 2.467,1.989 3.784,2.985 1.314,0.995 2.682,1.883 4.104,2.665 0.427,0.214 1.013,0.444 1.759,0.694 0.747,0.248 1.404,0.301 1.974,0.159 C -0.036,1.882 0.267,1.599 0.373,1.172 0.48,0.746 0.355,0.354 0,0"
             style="fill:#048dca;fill-opacity:1;fill-rule:nonzero;stroke:none"
             id="path122" /></g><g
           id="g124"
           transform="translate(626.1846,305.8553)"><path
             d="M 0,0 C 0.78,0.995 1.581,1.883 2.398,2.666 3.216,3.447 4.121,4.051 5.118,4.478 5.187,5.331 4.975,5.899 4.478,6.184 3.98,6.467 3.375,6.573 2.666,6.503 1.954,6.432 1.208,6.272 0.426,6.024 c -0.783,-0.25 -1.422,-0.517 -1.918,-0.8 -2.987,-1.705 -5.651,-3.91 -7.997,-6.61 -0.426,-0.426 -1.137,-1.209 -2.132,-2.345 -0.996,-1.138 -1.973,-2.329 -2.932,-3.572 -0.96,-1.244 -1.706,-2.399 -2.239,-3.465 -0.532,-1.066 -0.514,-1.742 0.053,-2.025 0.853,-0.285 1.76,-0.232 2.719,0.159 0.959,0.39 1.882,0.923 2.772,1.599 0.889,0.676 1.741,1.387 2.559,2.133 0.816,0.746 1.509,1.402 2.079,1.972 1.136,0.995 2.239,2.096 3.305,3.305 C -2.238,-2.417 -1.138,-1.209 0,0 M 5.971,7.89 C 6.61,7.25 6.999,6.36 7.143,5.224 7.853,5.437 8.457,5.366 8.956,5.011 9.451,4.655 9.559,4.335 9.276,4.051 8.99,3.767 8.742,3.482 8.528,3.199 7.89,2.203 7.179,1.296 6.396,0.48 5.613,-0.338 4.867,-1.209 4.158,-2.132 3.731,-2.63 3.216,-3.234 2.612,-3.944 2.007,-4.656 1.386,-5.437 0.746,-6.29 c -0.64,-0.853 -1.225,-1.724 -1.759,-2.612 -0.533,-0.89 -0.871,-1.724 -1.013,-2.506 -0.143,-0.782 -0.053,-1.35 0.267,-1.705 0.32,-0.357 0.906,-0.391 1.759,-0.107 0.78,0.213 1.562,0.568 2.346,1.066 0.781,0.496 1.455,0.923 2.026,1.279 1.633,1.208 3.214,2.522 4.743,3.945 1.529,1.421 3.002,2.879 4.425,4.372 0.142,0.141 0.32,0.373 0.533,0.693 0.213,0.32 0.444,0.603 0.693,0.853 0.249,0.247 0.515,0.479 0.799,0.693 0.285,0.213 0.569,0.283 0.854,0.213 0.568,-0.144 0.869,-0.357 0.905,-0.64 0.036,-0.285 -0.036,-0.586 -0.213,-0.906 -0.177,-0.32 -0.425,-0.64 -0.746,-0.96 -0.319,-0.32 -0.515,-0.551 -0.587,-0.693 -1.423,-1.564 -2.878,-3.057 -4.37,-4.478 -1.493,-1.423 -3.057,-2.737 -4.691,-3.945 -0.783,-0.569 -1.85,-1.226 -3.198,-1.972 -1.352,-0.746 -2.649,-1.226 -3.892,-1.439 -1.244,-0.213 -2.293,-0.053 -3.146,0.48 -0.852,0.533 -1.137,1.794 -0.852,3.784 0.213,1.493 0.639,3.127 1.279,4.905 l -3.625,-3.518 c -0.569,-0.498 -1.529,-1.263 -2.878,-2.293 -1.351,-1.031 -2.756,-1.865 -4.212,-2.505 -1.457,-0.64 -2.753,-0.853 -3.89,-0.64 -1.137,0.213 -1.814,1.28 -2.027,3.198 -0.213,1.919 0.107,3.767 0.96,5.544 0.853,1.777 1.972,3.447 3.358,5.012 1.386,1.562 2.932,2.966 4.637,4.211 1.706,1.242 3.306,2.255 4.798,3.038 0.709,0.355 1.6,0.782 2.666,1.279 1.067,0.497 2.149,0.889 3.251,1.173 C 1.048,8.813 2.132,8.938 3.198,8.902 4.265,8.866 5.187,8.529 5.971,7.89"
             style="fill:#048dca;fill-opacity:1;fill-rule:nonzero;stroke:none"
             id="path126" /></g><g
           id="g128"
           transform="translate(684.0762,323.7664)"><path
             d="M 0,0 C -0.072,-0.071 -0.107,-0.143 -0.107,-0.213 L 3.198,1.173 C 2.913,1.456 2.646,1.706 2.398,1.919 2.148,2.133 1.882,2.346 1.599,2.559 Z M -1.92,4.798 C -2.703,5.081 -3.662,5.294 -4.798,5.437 -5.65,5.508 -6.522,5.384 -7.41,5.064 -8.3,4.745 -9.028,4.3 -9.597,3.732 c -0.569,-0.57 -0.836,-1.191 -0.799,-1.866 0.036,-0.676 0.587,-1.369 1.653,-2.079 0.427,-0.285 0.888,-0.479 1.387,-0.586 0.495,-0.107 0.994,-0.197 1.492,-0.267 L -5.118,0 Z M 79.427,36.462 C 77.791,36.532 76.176,36.373 74.576,35.983 72.978,35.591 71.378,35.077 69.779,34.437 68.18,33.797 66.615,33.104 65.087,32.358 63.558,31.612 62.119,30.882 60.77,30.172 57.146,28.253 53.59,26.263 50.108,24.202 46.625,22.139 43.142,20.079 39.66,18.018 36.105,15.886 32.57,13.771 29.053,11.675 25.534,9.577 21.926,7.57 18.23,5.651 16.524,4.727 14.766,3.785 12.953,2.826 11.14,1.866 9.31,0.96 7.463,0.107 c 2.415,-2.772 4.352,-5.864 5.81,-9.275 1.456,-3.412 2.842,-6.86 4.158,-10.342 1.314,-3.483 2.754,-6.877 4.318,-10.182 1.562,-3.305 3.695,-6.272 6.397,-8.902 1.28,-1.208 2.7,-2.202 4.264,-2.986 1.563,-0.78 3.269,-1.207 5.118,-1.279 0.568,0 1.207,0.107 1.918,0.32 0.711,0.213 1.35,0.25 1.92,0.106 0.496,-0.141 0.923,-0.442 1.279,-0.905 0.354,-0.462 0.107,-0.87 -0.747,-1.226 -3.198,-1.208 -6.29,-1.475 -9.274,-0.8 -2.986,0.676 -5.723,2.151 -8.21,4.425 -2.915,2.63 -5.261,5.721 -7.037,9.275 -1.777,3.553 -3.27,7.143 -4.478,10.768 -1.137,3.412 -2.204,6.858 -3.198,10.341 -0.996,3.482 -2.596,6.718 -4.797,9.702 -1.137,-0.426 -2.258,-0.817 -3.359,-1.172 -1.103,-0.356 -2.222,-0.64 -3.357,-0.853 -1.85,-2.985 -3.663,-5.954 -5.438,-8.903 -1.778,-2.949 -3.556,-5.916 -5.331,-8.902 -0.854,-1.492 -1.69,-2.985 -2.505,-4.478 -0.818,-1.492 -1.618,-2.985 -2.399,-4.478 -0.214,-0.426 -0.463,-0.977 -0.746,-1.652 -0.286,-0.676 -0.606,-1.351 -0.96,-2.026 -0.357,-0.675 -0.746,-1.261 -1.172,-1.759 -0.428,-0.496 -0.926,-0.746 -1.493,-0.746 -0.997,0 -1.636,0.231 -1.919,0.693 -0.286,0.463 -0.373,1.013 -0.267,1.653 0.106,0.639 0.319,1.279 0.64,1.919 0.32,0.639 0.587,1.172 0.798,1.599 0.854,1.634 1.707,3.287 2.56,4.958 0.853,1.668 1.741,3.321 2.665,4.957 1.635,2.985 3.306,5.898 5.011,8.742 1.706,2.842 3.482,5.686 5.331,8.53 -0.996,0.213 -1.938,0.567 -2.825,1.065 -0.89,0.497 -1.583,1.102 -2.079,1.813 -0.498,0.71 -0.73,1.475 -0.693,2.292 0.034,0.816 0.55,1.723 1.545,2.719 1.492,1.492 3.146,2.274 4.958,2.345 1.812,0.07 3.607,-0.284 5.385,-1.066 2.913,4.193 6.076,8.423 9.488,12.687 1.067,1.35 2.149,2.701 3.252,4.051 1.101,1.35 2.255,2.666 3.465,3.946 0.212,0.283 0.585,0.746 1.119,1.385 0.532,0.64 1.119,1.297 1.759,1.973 0.64,0.674 1.262,1.243 1.865,1.706 0.604,0.461 1.121,0.621 1.547,0.48 0.355,-0.144 0.586,-0.374 0.693,-0.693 0.107,-0.32 0.053,-0.659 -0.161,-1.014 C 18.871,26.511 15.547,22.123 12.313,17.752 9.078,13.38 5.898,8.884 2.771,4.265 3.767,3.625 4.653,2.949 5.437,2.239 L 5.65,2.346 c 3.696,1.706 7.303,3.571 10.822,5.597 3.518,2.026 7,4.105 10.447,6.237 3.447,2.132 6.894,4.281 10.342,6.45 3.447,2.168 6.947,4.246 10.502,6.237 3.198,1.776 6.359,3.482 9.488,5.118 3.127,1.634 6.397,3.092 9.809,4.371 1.563,0.568 3.162,1.066 4.798,1.492 1.633,0.427 3.268,0.71 4.905,0.853 0.354,0.07 0.815,0.124 1.385,0.16 0.568,0.035 1.03,-0.018 1.385,-0.16 0.71,-0.143 1.03,-0.551 0.96,-1.226 -0.071,-0.676 -0.427,-1.013 -1.066,-1.013"
             style="fill:#048dca;fill-opacity:1;fill-rule:nonzero;stroke:none"
             id="path130" /></g><g
           id="g132"
           transform="translate(727.8936,307.6683)"><path
             d="m 0,0 c -0.355,-0.925 -0.532,-1.831 -0.532,-2.719 0,-0.889 0.212,-1.617 0.639,-2.185 0.426,0.496 0.941,1.154 1.545,1.972 0.604,0.816 1.155,1.669 1.654,2.559 C 3.801,0.515 4.192,1.402 4.478,2.292 4.761,3.18 4.798,3.944 4.584,4.584 4.441,5.01 4.14,5.027 3.679,4.637 3.216,4.246 2.719,3.731 2.186,3.091 1.652,2.452 1.173,1.812 0.746,1.172 0.319,0.533 0.07,0.142 0,0 m -2.133,0.213 c 0.214,0.64 0.534,1.403 0.96,2.292 0.427,0.888 0.96,1.688 1.599,2.399 C -0.427,4.76 -1.263,4.424 -2.079,3.891 -2.896,3.358 -3.678,2.718 -4.424,1.972 -5.171,1.226 -5.847,0.479 -6.45,-0.267 c -0.605,-0.746 -1.119,-1.369 -1.546,-1.865 -0.853,-0.997 -1.636,-2.079 -2.345,-3.252 -0.712,-1.173 -1.317,-2.364 -1.812,-3.572 -0.072,-0.213 -0.198,-0.569 -0.374,-1.066 -0.178,-0.498 -0.32,-1.031 -0.427,-1.6 -0.107,-0.569 -0.178,-1.102 -0.212,-1.599 -0.037,-0.497 0.053,-0.782 0.266,-0.853 0.71,-0.639 1.599,-0.782 2.665,-0.426 1.066,0.355 2.148,0.959 3.252,1.812 1.101,0.854 2.149,1.848 3.145,2.986 0.994,1.136 1.848,2.132 2.56,2.985 -0.784,0.923 -1.228,2.008 -1.333,3.252 -0.108,1.243 0.052,2.469 0.478,3.678 M 1.92,7.143 C 2.132,7.071 2.381,6.893 2.666,6.61 3.021,6.751 3.358,6.858 3.679,6.93 3.999,7 4.335,7 4.691,6.93 5.971,6.716 6.681,6.112 6.824,5.117 6.965,4.121 6.787,2.985 6.29,1.706 5.792,0.426 5.081,-0.925 4.158,-2.346 3.234,-3.768 2.381,-5.011 1.6,-6.077 c 0.283,-0.072 0.549,-0.125 0.798,-0.16 0.249,-0.036 0.55,-0.054 0.908,-0.054 0.78,0 1.545,0.161 2.291,0.48 0.747,0.32 1.439,0.693 2.079,1.12 0.568,0.355 1.12,0.816 1.653,1.386 0.532,0.568 1.013,1.066 1.44,1.492 0.496,0.497 0.906,0.622 1.225,0.373 0.319,-0.249 0.337,-0.765 0.054,-1.545 -0.145,-0.498 -0.587,-1.12 -1.333,-1.866 C 9.969,-5.597 9.382,-6.114 8.956,-6.397 7.747,-7.25 6.396,-7.873 4.904,-8.263 3.412,-8.654 1.954,-8.529 0.533,-7.89 c -0.142,0 -0.214,0.035 -0.214,0.107 L -0.32,-8.529 c -0.711,-0.784 -1.599,-1.76 -2.664,-2.932 -1.067,-1.173 -2.223,-2.257 -3.466,-3.252 -1.245,-0.996 -2.542,-1.759 -3.891,-2.292 -1.351,-0.533 -2.666,-0.515 -3.946,0.053 -1.704,0.71 -2.681,1.794 -2.931,3.252 -0.249,1.455 -0.106,3.001 0.426,4.637 0.533,1.635 1.264,3.199 2.187,4.692 0.922,1.492 1.74,2.665 2.452,3.518 1.278,1.492 2.699,2.932 4.264,4.317 1.562,1.387 3.268,2.47 5.117,3.252 0.71,0.355 1.475,0.587 2.293,0.694 0.815,0.106 1.616,0.016 2.399,-0.267"
             style="fill:#048dca;fill-opacity:1;fill-rule:nonzero;stroke:none"
             id="path134" /></g><g
           id="g136"
           transform="translate(743.3525,307.9876)"><path
             d="m 0,0 10.768,9.916 c 4.974,4.547 9.878,9.238 14.712,14.072 l 6.93,7.25 c 0.283,0.355 0.728,0.835 1.333,1.44 0.603,0.603 1.208,1.242 1.813,1.919 0.602,0.674 1.119,1.367 1.546,2.079 0.426,0.709 0.603,1.314 0.533,1.812 -0.498,0.426 -1.192,0.514 -2.079,0.267 -0.89,-0.25 -1.779,-0.64 -2.665,-1.173 C 32,37.049 31.166,36.498 30.385,35.929 29.602,35.36 29.034,34.933 28.679,34.65 26.76,33.158 24.91,31.558 23.135,29.853 21.357,28.146 19.617,26.404 17.911,24.628 14.642,21.073 11.567,17.413 8.688,13.646 5.81,9.878 3.232,5.899 0.959,1.706 Z m 17.591,-4.051 c -2.203,-2.204 -4.462,-4.389 -6.77,-6.557 -2.311,-2.169 -4.816,-4.035 -7.516,-5.597 -1.423,-0.783 -3.022,-1.315 -4.798,-1.599 -1.777,-0.283 -3.271,0.284 -4.478,1.706 -0.639,0.709 -1.065,1.562 -1.279,2.558 -0.214,0.995 -0.283,2.008 -0.214,3.039 0.071,1.029 0.233,2.042 0.481,3.038 0.249,0.995 0.479,1.92 0.693,2.773 1.065,3.837 2.611,7.497 4.637,10.981 2.026,3.481 4.335,6.786 6.93,9.915 2.593,3.127 5.384,6.093 8.369,8.902 2.985,2.807 5.971,5.454 8.956,7.943 0.71,0.568 1.812,1.456 3.305,2.665 1.492,1.208 3.073,2.309 4.744,3.305 1.669,0.995 3.306,1.669 4.905,2.026 1.599,0.355 2.895,-0.037 3.89,-1.173 0.427,-0.57 0.569,-1.245 0.427,-2.026 C 39.729,37.065 39.429,36.284 38.968,35.503 38.504,34.72 37.989,33.992 37.421,33.317 36.852,32.641 36.425,32.091 36.143,31.665 34.933,30.029 33.618,28.448 32.197,26.92 30.774,25.391 29.354,23.917 27.933,22.496 23.028,17.592 18.018,12.829 12.9,8.209 7.782,3.589 2.593,-0.959 -2.666,-5.437 -3.022,-6.361 -3.359,-7.25 -3.679,-8.103 c -0.32,-0.853 -0.55,-1.742 -0.693,-2.665 -0.284,-1.492 -0.196,-2.577 0.267,-3.252 0.46,-0.676 1.083,-1.084 1.866,-1.226 0.781,-0.143 1.687,-0.071 2.718,0.214 1.03,0.283 2.007,0.709 2.932,1.279 1.848,1.136 3.607,2.434 5.277,3.891 1.67,1.456 3.288,3.002 4.851,4.638 0.355,0.355 0.764,0.816 1.227,1.386 0.461,0.568 0.87,0.995 1.225,1.279 0.569,0.427 1.103,0.427 1.6,0 0.497,-0.426 0.497,-0.924 0,-1.492"
             style="fill:#048dca;fill-opacity:1;fill-rule:nonzero;stroke:none"
             id="path138" /></g><g
           id="g140"
           transform="translate(772.2432,307.6683)"><path
             d="m 0,0 c -0.355,-0.925 -0.532,-1.831 -0.532,-2.719 0,-0.889 0.213,-1.617 0.639,-2.185 0.427,0.496 0.941,1.154 1.546,1.972 0.603,0.816 1.154,1.669 1.653,2.559 C 3.802,0.515 4.193,1.402 4.479,2.292 4.762,3.18 4.798,3.944 4.585,4.584 4.441,5.01 4.14,5.027 3.679,4.637 3.216,4.246 2.719,3.731 2.186,3.091 1.653,2.452 1.174,1.812 0.746,1.172 0.32,0.533 0.07,0.142 0,0 m -2.132,0.213 c 0.214,0.64 0.533,1.403 0.96,2.292 0.426,0.888 0.96,1.688 1.599,2.399 C -0.426,4.76 -1.262,4.424 -2.079,3.891 -2.896,3.358 -3.678,2.718 -4.424,1.972 -5.171,1.226 -5.847,0.479 -6.449,-0.267 c -0.606,-0.746 -1.119,-1.369 -1.547,-1.865 -0.853,-0.997 -1.636,-2.079 -2.345,-3.252 -0.712,-1.173 -1.316,-2.364 -1.812,-3.572 -0.072,-0.213 -0.198,-0.569 -0.374,-1.066 -0.178,-0.498 -0.319,-1.031 -0.426,-1.6 -0.107,-0.569 -0.178,-1.102 -0.213,-1.599 -0.037,-0.497 0.053,-0.782 0.266,-0.853 0.71,-0.639 1.599,-0.782 2.666,-0.426 1.066,0.355 2.148,0.959 3.251,1.812 1.102,0.854 2.149,1.848 3.145,2.986 0.994,1.136 1.848,2.132 2.56,2.985 -0.784,0.923 -1.227,2.008 -1.333,3.252 -0.108,1.243 0.052,2.469 0.479,3.678 M 1.92,7.143 C 2.133,7.071 2.381,6.893 2.666,6.61 3.021,6.751 3.359,6.858 3.679,6.93 3.999,7 4.335,7 4.692,6.93 5.971,6.716 6.681,6.112 6.824,5.117 6.965,4.121 6.787,2.985 6.291,1.706 5.793,0.426 5.081,-0.925 4.158,-2.346 3.234,-3.768 2.381,-5.011 1.6,-6.077 c 0.283,-0.072 0.549,-0.125 0.799,-0.16 0.248,-0.036 0.55,-0.054 0.907,-0.054 0.781,0 1.546,0.161 2.292,0.48 0.746,0.32 1.439,0.693 2.079,1.12 0.568,0.355 1.119,0.816 1.652,1.386 0.533,0.568 1.014,1.066 1.44,1.492 0.497,0.497 0.907,0.622 1.225,0.373 0.32,-0.249 0.337,-0.765 0.055,-1.545 -0.145,-0.498 -0.587,-1.12 -1.333,-1.866 C 9.97,-5.597 9.383,-6.114 8.956,-6.397 7.747,-7.25 6.396,-7.873 4.904,-8.263 3.412,-8.654 1.954,-8.529 0.534,-7.89 0.391,-7.89 0.32,-7.855 0.32,-7.783 l -0.639,-0.746 c -0.712,-0.784 -1.599,-1.76 -2.665,-2.932 -1.067,-1.173 -2.223,-2.257 -3.465,-3.252 -1.245,-0.996 -2.542,-1.759 -3.892,-2.292 -1.351,-0.533 -2.666,-0.515 -3.945,0.053 -1.705,0.71 -2.682,1.794 -2.932,3.252 -0.248,1.455 -0.106,3.001 0.426,4.637 0.534,1.635 1.264,3.199 2.187,4.692 0.922,1.492 1.741,2.665 2.452,3.518 1.279,1.492 2.699,2.932 4.264,4.317 1.562,1.387 3.268,2.47 5.118,3.252 0.709,0.355 1.474,0.587 2.292,0.694 0.816,0.106 1.616,0.016 2.399,-0.267"
             style="fill:#048dca;fill-opacity:1;fill-rule:nonzero;stroke:none"
             id="path142" /></g><g
           id="g144"
           transform="translate(820.5391,331.8695)"><path
             d="m 0,0 c -2.63,-3.27 -5.17,-6.575 -7.622,-9.915 -2.452,-3.342 -4.816,-6.788 -7.091,-10.342 1.493,1.422 2.985,2.842 4.478,4.265 1.493,1.421 2.986,2.879 4.478,4.371 2.275,2.274 4.531,4.531 6.77,6.77 2.239,2.239 4.46,4.495 6.663,6.77 1.137,1.208 2.274,2.434 3.412,3.679 1.137,1.242 2.239,2.505 3.305,3.784 0.427,0.568 0.853,1.136 1.28,1.706 0.426,0.568 0.816,1.136 1.172,1.706 0.142,0.142 0.301,0.479 0.48,1.012 0.177,0.533 0.302,0.8 0.373,0.8 0.142,0.07 -0.018,0.142 -0.48,0.213 -0.463,0.07 -0.657,0.107 -0.585,0.107 C 16.062,14.854 15.548,14.713 15.086,14.5 14.623,14.286 14.181,14.036 13.754,13.753 12.829,13.183 11.977,12.58 11.194,11.941 10.411,11.301 9.631,10.625 8.85,9.915 7.213,8.351 5.687,6.733 4.266,5.064 2.843,3.393 1.422,1.706 0,0 m -26.014,-30.492 c 0.214,0.142 0.515,0.427 0.907,0.853 0.389,0.427 0.799,0.781 1.225,1.067 0.569,1.634 1.227,3.179 1.973,4.637 0.746,1.456 1.546,2.895 2.399,4.318 -0.499,0.141 -1.085,0.16 -1.759,0.053 -0.676,-0.106 -1.298,-0.266 -1.867,-0.479 -1.563,-0.57 -3.021,-1.352 -4.37,-2.346 -1.351,-0.996 -2.63,-2.097 -3.839,-3.305 -0.356,-0.356 -1.137,-1.173 -2.345,-2.452 -1.209,-1.279 -2.399,-2.649 -3.572,-4.104 -1.172,-1.458 -2.113,-2.826 -2.825,-4.105 -0.709,-1.28 -0.746,-2.098 -0.106,-2.453 0.64,-0.356 1.369,-0.409 2.185,-0.16 0.817,0.249 1.616,0.604 2.4,1.067 0.78,0.461 1.545,0.976 2.291,1.546 0.746,0.567 1.368,1.029 1.867,1.385 1.918,1.35 3.73,2.843 5.436,4.478 m 24.202,2.559 c -2.205,-2.204 -4.461,-4.461 -6.77,-6.77 -2.312,-2.311 -4.816,-4.176 -7.517,-5.597 -1.137,-0.57 -2.363,-0.994 -3.677,-1.279 -1.316,-0.284 -2.542,-0.07 -3.679,0.639 -0.711,0.427 -1.226,0.96 -1.546,1.599 -0.32,0.64 -0.517,1.333 -0.587,2.079 -0.071,0.746 -0.053,1.51 0.055,2.292 0.106,0.782 0.229,1.493 0.373,2.133 l -3.519,-2.772 c -0.711,-0.57 -1.564,-1.21 -2.559,-1.919 -0.995,-0.712 -2.025,-1.37 -3.092,-1.973 -1.066,-0.604 -2.15,-1.066 -3.251,-1.385 -1.104,-0.32 -2.148,-0.337 -3.146,-0.054 -1.066,0.283 -1.758,0.816 -2.079,1.599 -0.32,0.781 -0.461,1.653 -0.426,2.612 0.037,0.96 0.232,1.936 0.586,2.932 0.357,0.995 0.712,1.813 1.067,2.452 1.066,2.061 2.505,3.962 4.317,5.704 1.813,1.741 3.714,3.215 5.704,4.425 0.71,0.496 1.634,1.048 2.772,1.652 1.137,0.603 2.328,1.136 3.571,1.599 1.243,0.462 2.47,0.747 3.679,0.853 1.209,0.107 2.274,-0.09 3.198,-0.586 0.781,1.208 1.601,2.399 2.452,3.572 0.853,1.172 1.706,2.327 2.559,3.465 4.974,6.61 10.412,12.793 16.312,18.551 0.427,0.354 1.048,0.923 1.866,1.705 0.817,0.781 1.741,1.616 2.772,2.506 1.029,0.888 2.132,1.759 3.306,2.612 1.173,0.852 2.307,1.509 3.411,1.972 1.101,0.462 2.097,0.656 2.985,0.586 0.888,-0.071 1.616,-0.569 2.186,-1.492 0.354,-0.64 0.443,-1.37 0.266,-2.186 -0.178,-0.818 -0.499,-1.617 -0.96,-2.398 C 18.354,10.412 17.84,9.649 17.272,8.902 16.702,8.156 16.241,7.57 15.886,7.143 14.606,5.437 13.255,3.801 11.834,2.239 10.411,0.675 8.99,-0.853 7.57,-2.346 4.798,-5.189 1.989,-7.961 -0.853,-10.661 c -2.843,-2.702 -5.721,-5.403 -8.635,-8.103 l -6.93,-6.184 c -0.356,-0.356 -0.818,-0.836 -1.386,-1.439 -0.57,-0.605 -1.138,-1.156 -1.706,-1.653 -0.639,-1.209 -1.226,-2.398 -1.759,-3.571 -0.534,-1.173 -0.978,-2.364 -1.333,-3.572 -0.357,-1.422 -0.32,-2.435 0.107,-3.038 0.426,-0.605 1.028,-0.943 1.811,-1.013 0.783,-0.072 1.669,0.07 2.666,0.426 0.995,0.355 1.883,0.782 2.666,1.28 1.706,1.066 3.287,2.292 4.744,3.678 1.457,1.386 2.896,2.788 4.318,4.211 l 2.879,3.092 c 0.213,0.283 0.479,0.427 0.8,0.427 0.319,0 0.586,-0.09 0.799,-0.267 0.213,-0.178 0.335,-0.41 0.373,-0.693 0.036,-0.285 -0.09,-0.569 -0.373,-0.853"
             style="fill:#048dca;fill-opacity:1;fill-rule:nonzero;stroke:none"
             id="path146" /></g><g
           id="g148"
           transform="translate(831.9473,305.8553)"><path
             d="M 0,0 C 0.781,0.995 1.581,1.883 2.399,2.666 3.216,3.447 4.121,4.051 5.118,4.478 5.187,5.331 4.975,5.899 4.478,6.184 3.98,6.467 3.375,6.573 2.666,6.503 1.954,6.432 1.208,6.272 0.426,6.024 c -0.782,-0.25 -1.422,-0.517 -1.918,-0.8 -2.987,-1.705 -5.651,-3.91 -7.996,-6.61 -0.427,-0.426 -1.138,-1.209 -2.133,-2.345 -0.996,-1.138 -1.973,-2.329 -2.932,-3.572 -0.959,-1.244 -1.706,-2.399 -2.239,-3.465 -0.532,-1.066 -0.514,-1.742 0.053,-2.025 0.853,-0.285 1.76,-0.232 2.719,0.159 0.959,0.39 1.883,0.923 2.772,1.599 0.889,0.676 1.741,1.387 2.559,2.133 0.816,0.746 1.509,1.402 2.079,1.972 1.136,0.995 2.239,2.096 3.305,3.305 C -2.238,-2.417 -1.138,-1.209 0,0 M 5.971,7.89 C 6.61,7.25 7,6.36 7.143,5.224 7.854,5.437 8.457,5.366 8.956,5.011 9.452,4.655 9.559,4.335 9.276,4.051 8.991,3.767 8.742,3.482 8.528,3.199 7.89,2.203 7.179,1.296 6.396,0.48 5.613,-0.338 4.867,-1.209 4.158,-2.132 3.731,-2.63 3.216,-3.234 2.612,-3.944 2.008,-4.656 1.386,-5.437 0.746,-6.29 c -0.64,-0.853 -1.225,-1.724 -1.759,-2.612 -0.533,-0.89 -0.871,-1.724 -1.013,-2.506 -0.143,-0.782 -0.053,-1.35 0.267,-1.705 0.32,-0.357 0.906,-0.391 1.759,-0.107 0.781,0.213 1.562,0.568 2.346,1.066 0.781,0.496 1.455,0.923 2.026,1.279 1.633,1.208 3.214,2.522 4.743,3.945 1.529,1.421 3.002,2.879 4.425,4.372 0.142,0.141 0.32,0.373 0.533,0.693 0.213,0.32 0.444,0.603 0.693,0.853 0.249,0.247 0.515,0.479 0.799,0.693 0.285,0.213 0.569,0.283 0.854,0.213 0.568,-0.144 0.869,-0.357 0.905,-0.64 0.036,-0.285 -0.036,-0.586 -0.213,-0.906 -0.177,-0.32 -0.425,-0.64 -0.746,-0.96 C 16.046,-2.932 15.85,-3.163 15.779,-3.305 14.356,-4.869 12.9,-6.362 11.408,-7.783 9.915,-9.206 8.351,-10.52 6.717,-11.728 5.934,-12.297 4.867,-12.954 3.519,-13.7 c -1.352,-0.746 -2.649,-1.226 -3.892,-1.439 -1.244,-0.213 -2.293,-0.053 -3.146,0.48 -0.852,0.533 -1.137,1.794 -0.852,3.784 0.213,1.493 0.639,3.127 1.279,4.905 l -3.625,-3.518 c -0.569,-0.498 -1.529,-1.263 -2.878,-2.293 -1.351,-1.031 -2.756,-1.865 -4.212,-2.505 -1.457,-0.64 -2.753,-0.853 -3.89,-0.64 -1.137,0.213 -1.814,1.28 -2.027,3.198 -0.213,1.919 0.107,3.767 0.96,5.544 0.853,1.777 1.972,3.447 3.358,5.012 1.386,1.562 2.932,2.966 4.637,4.211 1.706,1.242 3.306,2.255 4.798,3.038 0.71,0.355 1.6,0.782 2.666,1.279 1.067,0.497 2.149,0.889 3.252,1.173 C 1.048,8.813 2.132,8.938 3.198,8.902 4.265,8.866 5.187,8.529 5.971,7.89"
             style="fill:#048dca;fill-opacity:1;fill-rule:nonzero;stroke:none"
             id="path150" /></g><g
           id="g152"
           transform="translate(785.3398,333.6073)"><path
             d="M 0,0 C 0.693,0.208 1.211,0.219 1.549,0.037 1.887,-0.146 2.037,-0.435 2.004,-0.832 1.969,-1.226 1.757,-1.62 1.364,-2.015 0.973,-2.407 0.465,-2.704 -0.159,-2.906 l -52.588,-14.836 c -0.553,-0.194 -0.964,-0.178 -1.235,0.046 -0.271,0.225 -0.388,0.536 -0.355,0.931 0.035,0.396 0.213,0.787 0.534,1.174 0.322,0.388 0.793,0.681 1.417,0.881 z"
             style="fill:#048dca;fill-opacity:1;fill-rule:nonzero;stroke:none"
             id="path154" /></g></g><g
         id="g1854"><g
           id="g156"
           transform="translate(254.126,180.2625)"><path
             d="m 0,0 c -6.384,-4.331 -11.138,-10.454 -15.491,-16.675 -2.173,-3.133 -4.212,-6.36 -6.186,-9.632 l -2.939,-4.924 c -1.019,-1.642 -1.984,-3.332 -3.066,-4.941 -2.088,-3.271 -4.368,-6.416 -6.73,-9.501 -2.418,-3.039 -4.902,-6.032 -7.564,-8.87 -2.617,-2.881 -5.422,-5.587 -8.273,-8.246 -2.932,-2.569 -5.902,-5.108 -9.066,-7.41 -6.26,-4.679 -13.028,-8.762 -20.287,-11.863 -0.892,-0.418 -1.821,-0.756 -2.743,-1.111 -0.926,-0.345 -1.837,-0.727 -2.775,-1.04 -1.887,-0.595 -3.751,-1.266 -5.685,-1.72 -3.82,-1.067 -7.768,-1.694 -11.732,-2.089 l -2.987,-0.196 c -0.995,-0.083 -1.997,-0.008 -2.996,-0.017 -2,-0.04 -3.992,0.19 -5.985,0.343 -3.962,0.515 -7.923,1.233 -11.71,2.528 -1.928,0.541 -3.755,1.355 -5.612,2.086 -0.939,0.344 -1.803,0.848 -2.707,1.266 -0.888,0.451 -1.805,0.85 -2.666,1.347 -3.457,1.952 -6.782,4.188 -9.871,6.584 l -0.109,0.084 -0.068,0.065 c -3.006,2.88 -5.862,6.061 -8.188,9.656 -2.345,3.578 -4.085,7.576 -5.116,11.708 -1.049,4.132 -1.428,8.364 -1.407,12.537 -0.036,2.093 0.159,4.163 0.313,6.234 0.111,1.031 0.271,2.054 0.405,3.079 0.132,1.027 0.275,2.049 0.487,3.054 0.39,2.013 0.728,4.039 1.291,6.086 0.539,2.037 1.291,3.979 2.064,5.903 1.637,3.807 3.622,7.412 5.774,10.891 4.327,6.948 9.4,13.346 14.8,19.403 -4.836,-6.516 -9.378,-13.247 -13.218,-20.321 -1.913,-3.536 -3.627,-7.173 -4.991,-10.903 -0.651,-1.872 -1.28,-3.75 -1.689,-5.661 -0.428,-1.887 -0.669,-3.88 -0.959,-5.865 -0.162,-0.989 -0.253,-1.98 -0.333,-2.971 -0.082,-0.99 -0.192,-1.979 -0.252,-2.967 -0.05,-1.979 -0.192,-3.955 -0.084,-5.919 0.111,-3.927 0.6,-7.824 1.674,-11.529 1.069,-3.706 2.727,-7.188 4.874,-10.361 2.15,-3.178 4.799,-6.027 7.698,-8.696 l -0.176,0.149 c 6.01,-4.442 12.489,-8.128 19.546,-10.269 3.488,-1.173 7.126,-1.795 10.762,-2.249 3.657,-0.352 7.34,-0.373 11.013,-0.085 3.665,0.345 7.331,0.893 10.91,1.872 1.808,0.407 3.562,1.031 5.338,1.574 0.883,0.288 1.745,0.645 2.619,0.963 0.87,0.329 1.748,0.639 2.596,1.031 6.855,2.928 13.44,6.604 19.544,11.011 12.245,8.764 22.964,19.756 31.814,32.076 1.132,1.526 2.145,3.127 3.223,4.696 1.056,1.61 2.11,3.221 3.205,4.808 2.182,3.179 4.433,6.317 6.818,9.357 2.381,3.042 4.938,5.957 7.698,8.666 C -6.435,-4.271 -3.356,-1.865 0,0"
             style="fill:#048dca;fill-opacity:1;fill-rule:nonzero;stroke:none"
             id="path158" /></g><g
           id="g160"
           transform="translate(311.0259,121.37)"><path
             d="m 0,0 c -7.435,3.224 -14.626,7.073 -21.371,11.673 -3.407,2.25 -6.6,4.82 -9.73,7.464 -3.11,2.673 -5.982,5.623 -8.725,8.681 -5.429,6.182 -9.889,13.185 -13.449,20.519 -3.579,7.344 -6.321,15.027 -8.389,22.864 3.383,-7.367 6.77,-14.679 10.707,-21.646 1.989,-3.471 4.055,-6.89 6.342,-10.14 2.244,-3.278 4.664,-6.434 7.313,-9.389 5.19,-6.008 11.154,-11.328 17.465,-16.244 C -13.51,8.875 -6.779,4.447 0,0"
             style="fill:#048dca;fill-opacity:1;fill-rule:nonzero;stroke:none"
             id="path162" /></g><g
           id="g164"
           transform="translate(235.2842,152.8973)"><path
             d="m 0,0 c 1.237,-0.481 2.555,-0.78 3.837,-1.157 l 3.856,-1.12 c 2.571,-0.748 5.124,-1.55 7.685,-2.333 5.1,-1.625 10.187,-3.303 15.226,-5.125 10.092,-3.613 20.053,-7.606 29.749,-12.419 9.585,-5.017 18.842,-10.624 27.2,-17.604 4.161,-3.483 8.075,-7.346 11.281,-11.802 1.573,-2.241 2.965,-4.639 3.913,-7.22 0.976,-2.561 1.43,-5.336 1.174,-8.009 -0.248,2.676 -1.06,5.212 -2.308,7.505 -1.228,2.302 -2.759,4.425 -4.505,6.365 -3.443,3.924 -7.509,7.282 -11.716,10.419 -4.256,3.085 -8.648,6.009 -13.205,8.681 -4.521,2.705 -9.169,5.323 -13.854,7.676 -4.685,2.415 -9.521,4.605 -14.371,6.772 -4.835,2.209 -9.75,4.256 -14.632,6.399 L 14.615,-6.657 7.268,-3.436 C 4.834,-2.325 2.35,-1.298 0,0"
             style="fill:#048dca;fill-opacity:1;fill-rule:nonzero;stroke:none"
             id="path166" /></g><g
           id="g168"
           transform="translate(125.4746,95.5614)"><path
             d="M 0,0 0.15,0.197 0.159,0.209 0.172,0.2 c 1.559,-0.936 3.3,-1.438 5.053,-1.729 1.755,-0.297 3.538,-0.395 5.314,-0.355 0.904,0.015 1.739,0.081 2.691,0.133 1.023,0.046 2.034,-0.135 2.974,-0.416 1.889,-0.573 3.534,-1.495 5.136,-2.364 0.807,-0.438 1.559,-0.897 2.329,-1.284 l 1.135,-0.427 c 0.377,-0.14 0.733,-0.311 1.161,-0.376 0.834,-0.153 1.614,-0.427 2.476,-0.488 0.857,-0.073 1.692,-0.212 2.556,-0.234 3.445,-0.178 6.967,0.19 10.444,0.694 6.961,1.164 13.865,2.98 20.583,5.358 6.732,2.338 13.34,5.071 19.759,8.204 l 4.859,2.357 c 1.711,0.832 3.451,1.552 5.203,2.226 3.511,1.33 7.111,2.345 10.749,3.122 7.283,1.527 14.719,2.141 22.101,1.858 7.388,-0.269 14.69,-1.469 21.776,-3.423 1.787,-0.449 3.506,-1.101 5.224,-1.679 1.719,-0.605 3.434,-1.221 5.122,-1.909 1.69,-0.684 3.368,-1.4 5.015,-2.178 0.818,-0.39 1.639,-0.819 2.431,-1.222 0.395,-0.181 0.817,-0.32 1.254,-0.341 0.428,-0.026 0.895,0.088 1.196,0.44 -0.246,-0.392 -0.728,-0.595 -1.192,-0.631 -0.472,-0.042 -0.944,0.043 -1.394,0.178 -0.876,0.3 -1.711,0.598 -2.578,0.871 -1.712,0.568 -3.439,1.086 -5.177,1.562 -3.472,0.92 -6.987,1.887 -10.487,2.51 -7.007,1.339 -14.15,1.972 -21.239,1.899 C 117.56,12.368 110.479,11.687 103.644,9.976 100.232,9.136 96.84,8.192 93.599,6.906 91.981,6.263 90.382,5.58 88.845,4.812 L 83.96,2.38 C 70.708,-3.851 56.721,-8.896 41.936,-10.538 41.02,-10.666 40.081,-10.69 39.153,-10.757 38.222,-10.804 37.3,-10.9 36.357,-10.874 l -2.812,0.011 -2.826,0.237 c -0.941,0.096 -1.887,0.317 -2.824,0.473 -0.94,0.143 -1.871,0.521 -2.798,0.775 -0.465,0.112 -0.922,0.354 -1.377,0.565 l -1.359,0.647 c -0.808,0.491 -1.574,1.025 -2.316,1.521 -1.485,1.004 -2.948,1.998 -4.483,2.624 -0.767,0.311 -1.548,0.527 -2.339,0.567 -0.857,0.028 -1.833,0.063 -2.737,0.157 -1.84,0.172 -3.669,0.484 -5.442,1 -1.76,0.548 -3.474,1.321 -4.891,2.469 l 0.023,0.003 z"
             style="fill:#048dca;fill-opacity:1;fill-rule:nonzero;stroke:none"
             id="path170" /></g><g
           id="g172"
           transform="translate(56.6929,61.7821)"><path
             d="m 0,0 c 2.075,2.584 4.465,4.913 7.119,6.997 1.34,1.022 2.764,1.945 4.231,2.818 1.482,0.841 3.024,1.595 4.612,2.232 3.197,1.281 6.453,2.133 9.862,2.727 3.268,0.448 6.361,0.953 9.464,1.621 6.19,1.284 12.11,3.326 17.676,6.3 5.591,2.949 10.701,6.887 15.818,11.084 C 65.251,28.193 60.618,23.199 55.033,19.321 49.447,15.455 42.951,12.828 36.341,11.475 33.049,10.784 29.671,10.312 26.44,10.053 23.386,9.692 20.23,9.132 17.235,8.313 11.172,6.747 5.569,3.584 0,0"
             style="fill:#048dca;fill-opacity:1;fill-rule:nonzero;stroke:none"
             id="path174" /></g><g
           id="g176"
           transform="translate(333.9937,81.5633)"><path
             d="m 0,0 c -5.06,-2.509 -10.337,-4.64 -15.773,-6.287 -5.432,-1.661 -10.989,-2.921 -16.578,-3.926 -11.203,-1.926 -22.46,-3.12 -33.782,-3.924 -11.316,-0.801 -22.652,-0.982 -33.962,-1.067 -11.311,-0.03 -22.601,0.177 -33.87,0.225 -11.262,0.133 -22.533,0.111 -33.789,-0.048 -11.261,-0.095 -22.509,-0.49 -33.757,-0.961 -22.495,-1.018 -44.951,-3.013 -67.426,-5.366 22.159,4.424 44.608,7.525 67.18,9.286 11.281,0.942 22.595,1.428 33.904,1.805 11.313,0.305 22.619,0.367 33.931,0.315 l 33.848,-0.504 c 5.631,-0.078 11.259,-0.123 16.883,-0.089 5.622,0.06 11.242,0.135 16.858,0.312 5.616,0.192 11.216,0.529 16.835,0.905 5.613,0.376 11.212,0.859 16.782,1.542 5.577,0.638 11.107,1.593 16.582,2.835 2.735,0.633 5.454,1.348 8.139,2.19 C -5.291,-1.968 -2.643,-0.999 0,0"
             style="fill:#048dca;fill-opacity:1;fill-rule:nonzero;stroke:none"
             id="path178" /></g><g
           id="g180"
           transform="translate(211.8804,338.8607)"><path
             d="m 0,0 c -2.222,-0.974 -4.44,-1.965 -6.566,-3.099 -2.115,-1.136 -4.206,-2.38 -6.259,-3.641 -4.104,-2.538 -8.095,-5.238 -11.825,-8.242 -3.745,-2.967 -7.221,-6.268 -10.529,-9.73 -3.287,-3.468 -6.414,-7.078 -9.14,-10.94 -1.376,-1.934 -2.611,-3.895 -3.791,-5.975 -1.182,-2.061 -2.322,-4.15 -3.386,-6.279 -2.138,-4.255 -4.022,-8.644 -5.721,-13.112 -3.432,-8.929 -6.215,-18.142 -8.752,-27.455 l -3.845,-13.997 -1.928,-6.998 c -0.645,-2.331 -1.305,-4.676 -1.836,-6.969 -2.281,-9.334 -4.048,-18.804 -5.324,-28.315 -1.258,-9.53 -1.727,-19.112 -1.612,-28.767 0.036,-4.78 0.583,-9.515 2.212,-13.99 0.806,-2.22 1.883,-4.366 3.435,-6.149 0.769,-0.887 1.666,-1.695 2.694,-2.277 1.027,-0.581 2.235,-0.879 3.447,-0.748 -1.189,-0.258 -2.473,-0.091 -3.614,0.406 -1.145,0.5 -2.163,1.24 -3.075,2.092 -1.808,1.732 -3.131,3.898 -4.177,6.143 -2.1,4.509 -2.992,9.517 -3.39,14.4 -0.202,2.45 -0.283,4.892 -0.392,7.308 -0.096,2.442 -0.154,4.892 -0.151,7.34 0.006,4.898 0.294,9.791 0.718,14.667 0.834,9.766 2.541,19.407 4.587,28.969 0.488,2.448 1.157,4.768 1.776,7.116 l 1.877,7.037 c 1.245,4.688 2.459,9.384 3.751,14.079 2.653,9.362 5.497,18.736 9.179,27.852 1.858,4.55 3.912,9.034 6.234,13.388 2.322,4.343 4.869,8.608 7.937,12.559 3.044,3.931 6.388,7.577 9.973,10.944 3.586,3.349 7.333,6.552 11.373,9.37 4.045,2.791 8.266,5.284 12.617,7.483 2.185,1.093 4.36,2.155 6.616,3.115 C -4.621,-1.494 -2.312,-0.739 0,0"
             style="fill:#048dca;fill-opacity:1;fill-rule:nonzero;stroke:none"
             id="path182" /></g><g
           id="g184"
           transform="translate(146.311,169.3182)"><path
             d="M 0,0 C 0.189,0.027 0.25,0.251 0.31,0.406 0.365,0.578 0.387,0.76 0.425,0.942 l 0.207,1.093 c 0.153,0.726 0.318,1.451 0.502,2.173 0.395,1.434 0.838,2.862 1.375,4.256 1.051,2.8 2.401,5.489 3.923,8.077 3.09,5.153 6.98,9.826 11.347,13.953 2.161,2.102 4.487,4.009 6.683,5.909 2.215,1.927 4.413,3.87 6.558,5.865 4.315,3.962 8.513,8.04 12.499,12.328 4.051,4.225 7.907,8.646 11.703,13.13 l 2.85,3.365 c 0.974,1.146 1.952,2.291 2.995,3.392 2.05,2.227 4.316,4.299 6.803,6.106 2.484,1.802 5.214,3.324 8.123,4.364 1.465,0.484 2.945,0.926 4.464,1.176 1.504,0.293 3.052,0.448 4.594,0.431 3.089,-0.01 6.145,-0.738 8.887,-1.995 2.76,-1.243 5.199,-2.991 7.491,-4.855 -2.53,1.528 -5.139,2.936 -7.889,3.847 -2.745,0.906 -5.608,1.342 -8.428,1.082 -2.814,-0.187 -5.591,-0.991 -8.184,-2.076 -2.579,-1.142 -5.006,-2.611 -7.205,-4.403 -2.196,-1.794 -4.217,-3.817 -6.115,-5.98 -0.955,-1.074 -1.861,-2.204 -2.764,-3.336 L 58.076,65.36 C 54.327,60.758 50.438,56.253 46.362,51.908 42.25,47.598 37.96,43.448 33.489,39.518 31.248,37.56 28.959,35.66 26.66,33.78 L 23.194,31.002 C 22.053,30.103 20.908,29.204 19.825,28.242 17.608,26.369 15.544,24.329 13.553,22.222 11.55,20.122 9.717,17.863 8.033,15.496 6.327,13.141 4.818,10.641 3.498,8.031 2.823,6.733 2.244,5.387 1.692,4.024 1.418,3.343 1.161,2.653 0.916,1.958 L 0.567,0.907 C 0.441,0.593 0.381,0.103 0,0"
             style="fill:#048dca;fill-opacity:1;fill-rule:nonzero;stroke:none"
             id="path186" /></g><g
           id="g188"
           transform="translate(198.1343,271.4198)"><path
             d="m 0,0 c -1.915,-4.434 -3.157,-9.037 -4.466,-13.675 -1.357,-4.651 -2.85,-9.22 -4.474,-13.776 -1.589,-4.565 -3.41,-9.052 -5.334,-13.507 -1.964,-4.438 -4.146,-8.791 -6.531,-13.044 -2.442,-4.22 -5.104,-8.33 -8.077,-12.219 -0.752,-0.967 -1.516,-1.917 -2.308,-2.867 l -2.298,-2.743 c -1.489,-1.855 -2.978,-3.71 -4.425,-5.598 -2.852,-3.803 -5.61,-7.693 -8.037,-11.784 -1.245,-2.028 -2.365,-4.129 -3.359,-6.285 -0.491,-1.08 -0.941,-2.182 -1.27,-3.315 -0.184,-0.565 -0.299,-1.141 -0.391,-1.727 -0.037,-0.291 -0.046,-0.583 10e-4,-0.872 0.057,-0.272 0.124,-0.609 0.399,-0.746 -0.305,0.094 -0.436,0.434 -0.542,0.71 -0.099,0.295 -0.142,0.609 -0.153,0.919 -0.006,0.612 0.015,1.231 0.108,1.839 0.172,1.217 0.483,2.403 0.832,3.574 0.717,2.337 1.655,4.594 2.677,6.803 2.082,4.404 4.546,8.612 7.246,12.655 l 2.057,3.012 2.161,2.935 2.225,2.874 c 0.711,0.925 1.419,1.876 2.107,2.834 2.779,3.816 5.331,7.808 7.65,11.94 2.382,4.098 4.525,8.342 6.568,12.645 2.081,4.287 3.95,8.683 5.859,13.074 1.847,4.409 3.739,8.843 5.501,13.288 C -4.471,-8.612 -2.684,-4.033 0,0"
             style="fill:#048dca;fill-opacity:1;fill-rule:nonzero;stroke:none"
             id="path190" /></g><g
           id="g192"
           transform="translate(147.0615,142.244)"><path
             d="m 0,0 c 0.136,-0.134 0.345,-0.021 0.512,0.011 l 0.534,0.14 1.064,0.284 c 0.705,0.21 1.413,0.4 2.111,0.626 1.4,0.428 2.787,0.887 4.148,1.411 2.723,1.036 5.369,2.234 7.888,3.65 5.049,2.816 9.577,6.427 13.6,10.511 0.954,1.07 1.988,2.081 2.872,3.192 l 1.375,1.628 c 0.461,0.54 0.868,1.154 1.305,1.727 1.72,2.329 3.439,4.718 5.102,7.108 3.366,4.769 6.598,9.614 9.646,14.591 6.271,9.843 11.626,20.291 18.406,30.097 1.711,2.429 3.478,4.83 5.408,7.102 1.921,2.288 3.984,4.438 6.08,6.515 l 6.36,6.107 1.598,1.517 c 0.527,0.517 1.089,1.057 1.731,1.472 1.272,0.867 2.898,1.18 4.325,0.796 -1.477,0.183 -2.921,-0.33 -3.972,-1.27 -0.546,-0.455 -0.996,-0.989 -1.456,-1.557 L 87.212,93.969 C 85.318,91.705 83.353,89.5 81.455,87.28 77.583,82.891 74.193,78.225 71.11,73.29 68.058,68.346 65.205,63.264 62.391,58.1 59.524,52.961 56.575,47.853 53.479,42.813 50.326,37.811 47.025,32.883 43.51,28.128 41.742,25.75 39.957,23.424 38.112,21.084 36.328,18.71 34.123,16.527 31.984,14.457 29.741,12.453 27.458,10.487 24.943,8.833 22.442,7.168 19.835,5.67 17.118,4.416 14.382,3.204 11.57,2.188 8.695,1.443 7.26,1.068 5.811,0.755 4.358,0.489 3.631,0.357 2.897,0.262 2.17,0.147 L 1.073,0.007 0.525,-0.062 C 0.359,-0.069 0.124,-0.158 0,0"
             style="fill:#048dca;fill-opacity:1;fill-rule:nonzero;stroke:none"
             id="path194" /></g><g
           id="g196"
           transform="translate(409.7656,52.7606)"><path
             d="m 0,0 c -6.771,-0.815 -13.929,0.781 -20.114,4.112 -3.114,1.644 -5.998,3.705 -8.631,6.031 -0.659,0.57 -1.308,1.194 -1.957,1.822 -0.662,0.628 -1.188,1.224 -1.776,1.849 -0.573,0.63 -1.149,1.211 -1.723,1.8 -0.574,0.592 -1.14,1.187 -1.728,1.753 -4.63,4.628 -9.63,8.664 -15.398,11.602 -2.879,1.462 -5.895,2.752 -9.03,3.833 -3.13,1.126 -6.38,1.952 -9.658,2.948 6.803,0.365 13.785,-0.5 20.368,-3.036 6.624,-2.471 12.458,-6.87 17.265,-11.824 1.228,-1.217 2.379,-2.535 3.485,-3.801 0.551,-0.616 1.092,-1.328 1.63,-1.885 0.535,-0.571 1.068,-1.146 1.656,-1.712 2.275,-2.292 4.75,-4.38 7.415,-6.207 C -12.901,3.552 -6.715,1.108 0,0"
             style="fill:#048dca;fill-opacity:1;fill-rule:nonzero;stroke:none"
             id="path198" /></g><g
           id="g200"
           transform="translate(404.646,61.6024)"><path
             d="m 0,0 c -14.443,12.287 -27.476,26.212 -39.706,40.71 -3.078,3.612 -6.01,7.334 -8.98,11.031 l -8.879,11.112 -17.326,22.486 c -5.694,7.566 -11.354,15.171 -16.87,22.887 -5.447,7.766 -10.874,15.552 -15.936,23.594 -2.536,4.02 -5.038,8.061 -7.405,12.183 -1.186,2.063 -2.345,4.12 -3.501,6.22 -0.627,1.066 -1.082,2.163 -1.599,3.248 l -1.502,3.22 c -1.989,4.279 -3.991,8.557 -6.329,12.602 -1.192,1.995 -2.464,3.983 -4.195,5.484 -0.869,0.743 -1.835,1.362 -2.965,1.678 -0.557,0.173 -1.129,0.31 -1.707,0.412 -0.29,0.05 -0.581,0.091 -0.874,0.112 -0.284,0.005 -0.61,0.062 -0.85,-0.114 0.227,0.206 0.565,0.184 0.852,0.209 0.298,0.011 0.596,10e-4 0.894,-0.017 0.595,-0.041 1.189,-0.118 1.778,-0.234 1.19,-0.196 2.338,-0.755 3.338,-1.446 2.004,-1.438 3.492,-3.392 4.899,-5.324 2.758,-3.931 5.038,-8.108 7.363,-12.243 l 1.689,-3.117 c 0.561,-1.019 1.077,-2.086 1.71,-3.023 1.242,-1.978 2.524,-3.974 3.811,-5.941 2.58,-3.944 5.176,-7.874 7.866,-11.738 5.41,-7.719 10.876,-15.406 16.521,-22.968 5.605,-7.591 11.272,-15.142 17.02,-22.645 L -36.667,43.174 C -25.071,28.287 -12.997,13.789 0,0"
             style="fill:#048dca;fill-opacity:1;fill-rule:nonzero;stroke:none"
             id="path202" /></g><g
           id="g204"
           transform="translate(274.3872,410.9925)"><path
             d="m 0,0 c -6.285,-0.674 -12.715,0.083 -18.835,1.854 -6.109,1.836 -11.936,4.704 -17.134,8.505 -2.597,1.889 -5.077,4.022 -7.299,6.415 -2.217,2.4 -4.074,5.145 -5.507,8.078 -2.852,5.883 -4.187,12.382 -3.965,18.736 l 0.333,0.038 c 0.83,-3.058 1.699,-6.046 2.769,-8.931 1.081,-2.878 2.323,-5.662 3.831,-8.278 2.988,-5.22 6.676,-10.078 11.477,-13.932 4.747,-3.879 10.199,-6.943 16.018,-9.036 5.804,-2.141 12.025,-3.249 18.29,-3.114 z"
             style="fill:#048dca;fill-opacity:1;fill-rule:nonzero;stroke:none"
             id="path206" /></g><g
           id="g208"
           transform="translate(218.9927,453.1815)"><path
             d="m 0,0 -1.217,-0.384 0.052,0.016 c -5.012,-3.295 -10.471,-5.808 -15.04,-9.156 -2.299,-1.66 -4.381,-3.531 -6.246,-5.618 -1.87,-2.02 -3.316,-4.272 -4.336,-6.761 -2.085,-4.956 -2.327,-10.657 -1.513,-16.265 0.727,-5.636 2.87,-11.195 4.365,-17.008 -3.16,5.046 -6.213,10.272 -7.78,16.311 -0.76,2.99 -1.232,6.113 -1.125,9.286 0.085,3.165 0.669,6.385 1.924,9.382 0.587,1.514 1.416,2.922 2.281,4.291 0.923,1.322 1.969,2.602 3.077,3.708 2.207,2.214 4.699,4.173 7.395,5.699 2.672,1.578 5.51,2.712 8.323,3.733 2.826,1.001 5.655,1.87 8.511,2.746 l 0.053,0.017 z"
             style="fill:#048dca;fill-opacity:1;fill-rule:nonzero;stroke:none"
             id="path210" /></g><g
           id="g212"
           transform="translate(307.4692,370.5872)"><path
             d="m 0,0 c -1.245,3.031 -3.132,5.731 -5.534,7.794 -2.402,2.07 -5.242,3.541 -8.238,4.539 -2.99,1.024 -6.123,1.644 -9.292,2.038 -3.172,0.388 -6.377,0.622 -9.613,0.743 -6.502,0.196 -13.094,0.546 -19.69,1.371 -6.593,0.881 -13.168,2.522 -19.419,4.959 -3.11,1.259 -6.124,2.705 -9.077,4.263 -2.946,1.604 -5.856,3.344 -8.533,5.461 -5.355,4.157 -9.985,9.725 -12.257,16.271 -1.151,3.256 -1.8,6.725 -1.697,10.177 0.092,3.449 0.843,6.846 2.137,9.977 2.635,6.265 7.272,11.42 12.736,15.001 -4.851,-4.359 -8.787,-9.733 -10.675,-15.762 -1.979,-5.991 -1.64,-12.48 0.754,-18.129 2.404,-5.695 6.502,-10.514 11.567,-14.163 4.998,-3.714 10.815,-6.562 16.694,-8.94 5.889,-2.382 12.056,-3.943 18.381,-4.935 6.333,-1.033 12.787,-1.472 19.311,-2.081 6.535,-0.605 13.249,-1.547 19.47,-4.217 3.072,-1.367 6.006,-3.204 8.298,-5.686 1.148,-1.235 2.12,-2.614 2.914,-4.071 0.339,-0.762 0.744,-1.486 1.018,-2.263 z"
             style="fill:#048dca;fill-opacity:1;fill-rule:nonzero;stroke:none"
             id="path214" /></g><g
           id="g216"
           transform="translate(188.2524,418.1112)"><path
             d="m 0,0 c -0.573,-2 -1.53,-3.883 -2.285,-5.775 -0.732,-1.907 -1.331,-3.849 -1.74,-5.829 -0.827,-3.953 -0.991,-8.011 -0.53,-11.975 0.466,-3.962 1.509,-7.847 3.167,-11.44 1.593,-3.577 3.962,-6.781 6.757,-9.606 2.769,-2.834 5.944,-5.427 9.286,-7.581 3.352,-2.237 7.171,-4.215 10.293,-7.327 1.546,-1.552 2.927,-3.307 3.853,-5.353 0.904,-2.046 1.327,-4.247 1.393,-6.387 0.073,-4.309 -0.923,-8.322 -1.381,-12.438 -0.281,4.143 0.265,8.344 -0.261,12.311 -0.25,1.975 -0.798,3.865 -1.719,5.534 -0.933,1.653 -2.212,3.146 -3.671,4.418 -2.956,2.548 -6.582,4.385 -10.2,6.553 -1.818,1.09 -3.573,2.365 -5.218,3.671 -1.661,1.322 -3.266,2.73 -4.774,4.256 -2.962,3.084 -5.59,6.645 -7.261,10.678 -0.849,1.983 -1.47,4.051 -1.969,6.137 -0.51,2.086 -0.791,4.221 -0.894,6.357 -0.263,4.27 0.294,8.567 1.545,12.61 0.666,2.012 1.48,3.965 2.489,5.808 1.017,1.84 2.218,3.507 3.12,5.378"
             style="fill:#048dca;fill-opacity:1;fill-rule:nonzero;stroke:none"
             id="path218" /></g><g
           id="g220"
           transform="translate(205.1133,417.4388)"><path
             d="m 0,0 c -2.307,-4.819 -3.68,-9.972 -4.031,-15.178 -0.398,-5.196 0.124,-10.438 1.241,-15.485 1.181,-5.039 2.949,-9.939 5.403,-14.482 1.224,-2.269 2.55,-4.483 4.047,-6.581 1.457,-2.1 3.129,-3.997 4.959,-5.811 3.616,-3.641 7.756,-6.831 12.234,-9.253 4.434,-2.431 9.437,-4.055 14.229,-3.415 1.203,0.156 2.33,0.48 3.474,0.973 1.142,0.483 2.249,1.06 3.29,1.751 2.092,1.371 3.932,3.166 5.488,5.218 3.145,4.102 5.313,9.029 7.036,14.061 -0.893,-5.262 -2.567,-10.465 -5.46,-15.161 -2.928,-4.642 -7.485,-8.61 -13.304,-9.852 -1.433,-0.28 -2.896,-0.403 -4.338,-0.346 -1.441,0.064 -2.862,0.274 -4.25,0.579 -2.768,0.639 -5.396,1.66 -7.881,2.906 -4.947,2.547 -9.354,5.913 -13.285,9.773 -1.93,1.953 -3.769,4.091 -5.322,6.386 -1.559,2.264 -2.99,4.619 -4.205,7.084 -2.415,4.928 -4.214,10.173 -5.1,15.582 -0.92,5.397 -1.027,10.918 -0.154,16.304 C -5.026,-9.58 -3.06,-4.389 0,0"
             style="fill:#048dca;fill-opacity:1;fill-rule:nonzero;stroke:none"
             id="path222" /></g><g
           id="g224"
           transform="translate(241.1978,358.992)"><path
             d="M 0,0 C 3.274,0.78 6.23,2.9 8.217,6.208 6.563,5.944 5.039,5.779 3.878,6.102 0.782,6.96 1.448,6.539 -0.856,5.445 -0.989,5.383 -1.123,5.331 -1.26,5.29 -1.403,5.265 -1.546,5.25 -1.692,5.246 -4.24,5.185 -3.838,5.86 -6.211,3.699 -7.103,2.888 -8.538,2.349 -10.136,1.837 -6.871,-0.22 -3.277,-0.78 0,0"
             style="fill:#048dca;fill-opacity:1;fill-rule:nonzero;stroke:none"
             id="path226" /></g><g
           id="g228"
           transform="translate(211.48,388.8329)"><path
             d="M 0,0 C -0.457,-0.713 -1.041,-1.698 -1.757,-2.952 4.449,-5.291 9.508,-3.959 13.424,1.047 8.082,-1.626 3.606,-1.974 0,0"
             style="fill:#048dca;fill-opacity:1;fill-rule:nonzero;stroke:none"
             id="path230" /></g><g
           id="g232"
           transform="translate(251.5815,386.8534)"><path
             d="m 0,0 c 5.806,-4.874 11.05,-10.765 14.136,-18.003 1.571,-3.581 2.361,-7.587 2.411,-11.539 0.044,-1.987 -0.149,-4.003 -0.563,-5.99 -0.419,-1.989 -1.16,-3.927 -2.121,-5.746 -0.959,-1.825 -2.202,-3.505 -3.635,-4.971 -1.427,-1.469 -3.005,-2.794 -4.713,-3.867 -1.676,-1.092 -3.505,-2.054 -5.235,-2.858 -1.735,-0.82 -3.442,-1.601 -5.069,-2.443 -3.234,-1.682 -6.23,-3.617 -7.971,-6.305 -0.875,-1.331 -1.432,-2.828 -1.701,-4.435 -0.259,-1.643 -0.278,-3.328 -0.027,-5.004 0.469,-3.357 1.856,-6.659 3.73,-9.702 1.872,-3.039 4.253,-5.89 6.803,-8.428 2.536,-2.497 5.59,-4.633 8.687,-6.852 3.098,-2.215 6.303,-4.549 9,-7.585 1.348,-1.505 2.555,-3.188 3.487,-5.024 0.953,-1.843 1.586,-3.851 1.876,-5.88 0.587,-4.064 -0.069,-8.216 -1.742,-11.854 -1.678,-3.638 -4.393,-6.755 -7.711,-8.85 -3.313,-2.128 -7.183,-3.145 -10.979,-3.268 3.753,0.602 7.352,2.021 10.258,4.298 2.909,2.261 5.155,5.29 6.38,8.681 1.284,3.355 1.601,7.057 0.873,10.48 -0.682,3.442 -2.518,6.484 -5.021,9.017 -2.5,2.534 -5.547,4.626 -8.673,6.747 -3.13,2.118 -6.41,4.25 -9.383,7.008 -2.874,2.777 -5.418,5.787 -7.576,9.195 -2.116,3.397 -3.86,7.211 -4.426,11.408 -0.29,2.086 -0.256,4.245 0.101,6.35 0.37,2.137 1.18,4.271 2.417,6.103 1.227,1.841 2.818,3.354 4.495,4.582 1.679,1.24 3.467,2.196 5.237,3.053 1.773,0.855 3.546,1.605 5.268,2.362 1.738,0.75 3.298,1.524 4.836,2.46 3.009,1.875 5.722,4.219 7.469,7.242 1.81,2.981 2.664,6.509 2.857,10.124 0.207,3.642 -0.357,7.265 -1.553,10.761 C 9.829,-11.718 5.197,-5.515 0,0"
             style="fill:#048dca;fill-opacity:1;fill-rule:nonzero;stroke:none"
             id="path234" /></g><g
           id="g236"
           transform="translate(273.6187,371.8739)"><path
             d="m 0,0 c 2.922,-2.65 5.604,-5.633 7.694,-9.076 0.508,-0.864 0.991,-1.754 1.435,-2.661 0.389,-0.933 0.841,-1.847 1.133,-2.826 0.687,-1.918 1.109,-3.945 1.291,-5.997 0.185,-2.052 0.077,-4.136 -0.201,-6.156 l -0.225,-1.489 c -0.065,-0.464 -0.159,-0.972 -0.27,-1.503 -0.097,-0.524 -0.207,-1.044 -0.374,-1.55 -0.153,-0.509 -0.289,-1.027 -0.501,-1.513 -1.503,-4.014 -4.276,-7.306 -7.172,-10.124 -2.904,-2.838 -6.085,-5.304 -8.945,-7.82 -2.816,-2.534 -5.422,-5.343 -6.927,-8.475 -0.735,-1.559 -1.175,-3.164 -1.149,-4.728 -10e-4,-0.392 0.01,-0.782 0.1,-1.165 l 0.091,-0.577 c 0.041,-0.192 0.119,-0.377 0.173,-0.566 0.196,-0.764 0.545,-1.489 0.967,-2.189 0.851,-1.397 2.067,-2.649 3.46,-3.726 1.461,-1.067 3.007,-2.08 4.692,-2.963 3.314,-1.837 6.931,-3.397 10.521,-5.291 1.8,-0.919 3.577,-2.004 5.311,-3.18 1.684,-1.27 3.394,-2.591 4.76,-4.319 2.887,-3.319 4.5,-7.682 4.776,-11.961 0.314,-4.315 -0.648,-8.596 -2.442,-12.385 -1.809,-3.776 -4.364,-7.213 -7.619,-9.821 -3.21,-2.646 -6.989,-4.515 -10.939,-5.579 -1.986,-0.501 -4.01,-0.814 -6.041,-0.917 -2.033,-0.071 -4.065,0.045 -6.054,0.396 -3.969,0.735 -7.703,2.194 -11.192,4.043 1.838,-0.718 3.713,-1.328 5.615,-1.796 1.893,-0.483 3.826,-0.851 5.741,-1.018 1.924,-0.138 3.847,-0.117 5.747,0.103 1.897,0.247 3.757,0.688 5.554,1.294 7.219,2.398 13.17,7.872 15.998,14.716 1.414,3.4 2.06,7.09 1.725,10.644 -0.343,3.563 -1.708,6.937 -4.081,9.52 -1.124,1.342 -2.562,2.46 -4.026,3.542 -1.541,1.019 -3.136,1.985 -4.857,2.843 -3.395,1.762 -7.05,3.288 -10.649,5.248 -1.799,0.964 -3.556,2.119 -5.26,3.398 -1.707,1.348 -3.288,2.967 -4.478,4.951 -1.197,1.971 -1.886,4.348 -1.907,6.721 -0.017,2.385 0.664,4.671 1.675,6.632 2.054,3.944 5.069,6.904 8.146,9.552 3.115,2.625 6.281,4.866 9.14,7.415 2.856,2.52 5.356,5.365 6.846,8.688 0.211,0.407 0.348,0.838 0.506,1.264 0.172,0.422 0.291,0.859 0.4,1.301 0.118,0.427 0.234,0.881 0.338,1.389 l 0.304,1.419 c 0.378,1.866 0.573,3.734 0.542,5.619 C 9.356,-16.901 8.291,-13.142 6.61,-9.665 4.898,-6.19 2.589,-2.979 0,0"
             style="fill:#048dca;fill-opacity:1;fill-rule:nonzero;stroke:none"
             id="path238" /></g><g
           id="g240"
           transform="translate(330.6587,290.4456)"><path
             d="m 0,0 c 2.607,3.563 3.553,8.043 3.005,12.247 -0.544,4.198 -2.303,8.295 -5.243,11.174 -2.953,2.987 -6.702,5.066 -10.561,7.09 -3.892,1.975 -7.821,4.336 -11.364,7.095 -1.798,1.364 -3.483,2.88 -5.124,4.447 -1.588,1.624 -3.126,3.311 -4.484,5.155 -2.749,3.65 -5.024,7.757 -6.351,12.23 -0.333,1.117 -0.661,2.236 -0.844,3.392 -0.1,0.574 -0.242,1.143 -0.306,1.723 l -0.185,1.741 c -0.226,2.306 -0.272,4.457 -0.367,6.679 -0.157,4.403 -0.238,8.764 -0.523,13.065 -0.232,4.31 -0.76,8.517 -1.549,12.773 -0.767,4.237 -1.779,8.423 -2.983,12.548 -1.204,4.117 -2.649,8.197 -4.374,12.093 -1.736,3.896 -3.822,7.642 -6.182,11.213 -9.473,14.24 -23.932,25.412 -40.855,30.196 8.665,-1.453 17.034,-4.893 24.48,-9.755 3.718,-2.446 7.214,-5.243 10.455,-8.32 3.241,-3.079 6.148,-6.507 8.788,-10.129 2.63,-3.629 4.967,-7.49 6.874,-11.565 1.921,-4.073 3.505,-8.238 4.866,-12.498 1.346,-4.26 2.387,-8.606 3.228,-12.983 0.844,-4.354 1.453,-8.853 1.715,-13.295 0.259,-4.446 0.303,-8.851 0.425,-13.205 0.073,-2.155 0.11,-4.39 0.301,-6.446 l 0.148,-1.528 c 0.049,-0.509 0.176,-1.008 0.259,-1.512 0.103,-0.501 0.164,-1.012 0.29,-1.508 l 0.392,-1.488 c 1.069,-3.97 3.013,-7.704 5.446,-11.103 2.438,-3.402 5.378,-6.485 8.642,-9.211 1.61,-1.389 3.347,-2.635 5.106,-3.846 1.772,-1.183 3.612,-2.286 5.507,-3.415 C -7.615,30.806 -3.684,28.38 -0.64,24.911 2.45,21.384 4.027,16.845 4.234,12.348 4.324,10.092 4.043,7.821 3.332,5.7 2.611,3.581 1.46,1.637 0,0"
             style="fill:#048dca;fill-opacity:1;fill-rule:nonzero;stroke:none"
             id="path242" /></g><g
           id="g244"
           transform="translate(301.251,268.5575)"><path
             d="m 0,0 c 2.562,3.893 3.12,8.399 2.73,12.724 -0.214,2.166 -0.619,4.322 -1.268,6.391 -0.635,2.05 -1.481,4.023 -2.625,5.818 -2.246,3.611 -5.444,6.617 -9.203,8.894 -3.772,2.3 -8.016,4.013 -12.229,5.923 4.583,-0.569 9.149,-1.589 13.468,-3.617 4.313,-2.011 8.241,-5.24 10.817,-9.437 C 2.949,24.593 3.911,22.313 4.516,19.959 5.053,17.611 5.423,15.221 5.337,12.81 5.306,10.408 4.904,7.995 4.044,5.747 3.194,3.505 1.8,1.458 0,0"
             style="fill:#048dca;fill-opacity:1;fill-rule:nonzero;stroke:none"
             id="path246" /></g><g
           id="g248"
           transform="translate(297.1704,326.2103)"><path
             d="m 0,0 c 1.145,-2.617 2.527,-5.106 4.081,-7.468 0.795,-1.179 1.57,-2.353 2.482,-3.387 0.907,-1.046 1.905,-2.012 2.98,-2.881 2.146,-1.765 4.516,-3.161 7.082,-4.319 2.595,-1.217 5.166,-2.562 7.651,-4.081 1.242,-0.766 2.452,-1.558 3.646,-2.409 1.272,-0.913 2.378,-2.037 3.339,-3.256 0.969,-1.219 1.735,-2.576 2.359,-3.979 0.632,-1.403 1.099,-2.868 1.414,-4.358 1.251,-5.971 0.382,-12.216 -2.137,-17.719 -2.558,-5.476 -7.148,-10.17 -12.91,-12.399 -2.957,-1.1 -5.853,-1.348 -8.307,-2.206 -1.227,-0.415 -2.291,-0.994 -3.082,-1.814 -0.195,-0.208 -0.406,-0.404 -0.556,-0.653 -0.173,-0.23 -0.342,-0.466 -0.464,-0.74 L 7.369,-72.062 C 7.305,-72.19 7.288,-72.288 7.238,-72.4 c -0.066,-0.229 -0.117,-0.476 -0.132,-0.748 -0.071,-1.09 0.274,-2.386 0.749,-3.633 0.477,-1.259 1.099,-2.505 1.721,-3.781 1.423,-2.756 1.805,-5.881 1.525,-8.843 -0.153,-1.491 -0.532,-2.972 -1.189,-4.351 -0.696,-1.375 -1.662,-2.545 -2.82,-3.485 -1.143,-0.944 -2.494,-1.66 -3.938,-1.972 -1.447,-0.316 -2.976,-0.11 -4.244,0.547 1.343,-0.502 2.81,-0.508 4.114,-0.057 1.309,0.428 2.487,1.206 3.447,2.175 0.962,0.961 1.763,2.104 2.254,3.322 0.469,1.24 0.707,2.585 0.733,3.936 0.067,2.702 -0.456,5.451 -1.822,7.694 -0.718,1.238 -1.423,2.52 -2.024,3.902 -0.584,1.383 -1.13,2.871 -1.122,4.647 0.004,0.441 0.065,0.901 0.178,1.36 0.07,0.223 0.136,0.475 0.221,0.67 l 0.261,0.567 c 0.16,0.385 0.381,0.745 0.619,1.098 0.214,0.368 0.502,0.685 0.782,1.008 1.153,1.283 2.669,2.104 4.118,2.642 2.918,1.078 5.781,1.413 8.149,2.4 4.887,1.994 8.824,6.015 11.044,10.873 2.284,4.822 3.069,10.432 2.069,15.653 -0.238,1.307 -0.608,2.584 -1.115,3.794 -0.499,1.211 -1.113,2.378 -1.893,3.412 -0.771,1.04 -1.665,1.982 -2.679,2.778 -1.089,0.855 -2.23,1.679 -3.38,2.463 -2.306,1.573 -4.753,2.953 -7.235,4.326 -2.549,1.351 -5.046,3.02 -7.172,5.039 C 6.32,-12.958 4.57,-10.486 3.286,-7.94 1.927,-5.402 0.814,-2.738 0,0"
             style="fill:#048dca;fill-opacity:1;fill-rule:nonzero;stroke:none"
             id="path250" /></g></g></g></g></svg>
