<svg xmlns="http://www.w3.org/2000/svg" width="1080" height="550" viewBox="0 0 1080 550">
  <g id="ModelowanieSylwetki">
    <path d="M477.498 327.949h6.435l-.073-51.636h-5.548l-21.766 37.18-22.067-37.18h-5.55v51.636h6.436v-38.92l19.52 32.559h3.018L477.42 288.8z" />
    <path d="M537.964 319.968c-3.112 1.77-6.662 2.667-10.552 2.667-3.89 0-7.463-.897-10.621-2.667-3.163-1.768-5.678-4.245-7.476-7.361-1.796-3.11-2.707-6.636-2.707-10.476 0-3.842.91-7.368 2.707-10.478 1.795-3.11 4.31-5.587 7.476-7.361 3.16-1.77 6.735-2.666 10.621-2.666 3.887 0 7.437.896 10.552 2.666a19.738 19.738 0 017.397 7.36c1.797 3.114 2.708 6.637 2.708 10.48 0 3.839-.911 7.363-2.708 10.475a19.68 19.68 0 01-7.397 7.361m13.297-4.296c2.35-3.99 3.542-8.545 3.542-13.54 0-4.997-1.191-9.553-3.542-13.544-2.347-3.986-5.648-7.164-9.81-9.44-4.164-2.278-8.886-3.435-14.039-3.435-5.2 0-9.95 1.157-14.113 3.434-4.162 2.277-7.476 5.468-9.848 9.479-2.374 4.013-3.578 8.555-3.578 13.505 0 4.949 1.204 9.492 3.578 13.503 2.371 4.012 5.685 7.2 9.848 9.478 4.163 2.28 8.913 3.434 14.113 3.434 5.153 0 9.875-1.153 14.04-3.434 4.161-2.276 7.462-5.452 9.81-9.44" />
    <path d="M610.955 312.61c-1.777 3.017-4.334 5.393-7.6 7.066-3.253 1.665-7.074 2.51-11.357 2.51H577.48v-40.11H592c4.282 0 8.103.845 11.357 2.508 3.265 1.672 5.822 4.05 7.6 7.066 1.77 3.016 2.67 6.542 2.67 10.481 0 3.938-.9 7.464-2.67 10.479m5.902 2.986c2.325-3.892 3.503-8.422 3.503-13.465 0-5.046-1.178-9.574-3.503-13.467-2.323-3.886-5.633-6.95-9.84-9.1-4.218-2.157-9.12-3.252-14.57-3.252h-21.704v51.637h21.703c5.45 0 10.353-1.095 14.57-3.252 4.208-2.152 7.518-5.214 9.841-9.1" />
    <path d="M669.301 304.526v-5.613h-26.267v-16.837h29.487v-5.764H636.3v51.637h37.268v-5.763h-30.534v-17.66z" />
    <path d="M690.181 276.312v51.637h35.099v-5.763h-28.364v-45.874z" />
    <path d="M771.226 319.968c-3.11 1.77-6.66 2.667-10.55 2.667-3.89 0-7.462-.897-10.621-2.667-3.165-1.77-5.68-4.245-7.478-7.361-1.795-3.11-2.706-6.635-2.706-10.476 0-3.843.911-7.37 2.706-10.478 1.796-3.11 4.31-5.585 7.478-7.361 3.161-1.77 6.734-2.666 10.62-2.666 3.889 0 7.438.896 10.55 2.666a19.722 19.722 0 017.4 7.36c1.795 3.114 2.706 6.638 2.706 10.48 0 3.837-.911 7.363-2.706 10.475a19.673 19.673 0 01-7.4 7.361m13.3-4.296c2.35-3.988 3.54-8.543 3.54-13.54 0-4.998-1.19-9.555-3.54-13.544-2.348-3.986-5.648-7.164-9.81-9.44-4.164-2.278-8.887-3.435-14.04-3.435-5.201 0-9.95 1.157-14.114 3.434-4.16 2.277-7.474 5.468-9.847 9.479-2.374 4.012-3.577 8.554-3.577 13.505 0 4.949 1.203 9.493 3.577 13.503 2.372 4.013 5.686 7.202 9.847 9.478 4.165 2.28 8.913 3.434 14.115 3.434 5.152 0 9.875-1.153 14.039-3.434 4.162-2.276 7.462-5.452 9.81-9.44" />
    <path d="M869.159 276.312l-14.713 43.604-14.71-43.604h-6.352l-15.017 43.374-14.407-43.374h-6.917l17.261 51.637h7.472l14.56-42.618 14.561 42.618h7.322l17.26-51.637z" />
    <path d="M906.684 282.644l11.873 26.97h-23.746zm14.163 32.208l5.763 13.097h7.034l-23.459-51.636h-6.927l-23.384 51.636h6.884l5.763-13.097z" />
    <path d="M984.842 327.949h5.582v-51.636h-6.734v39.753l-.666-.83-31.32-38.923h-5.582v51.636h6.736v-39.753l.665.827z" />
    <path d="M1010.63 327.95h6.735v-51.637h-6.735z" />
    <path d="M1070.573 304.526v-5.613h-26.267v-16.837h29.487v-5.764h-36.221v51.637h37.268v-5.763h-30.534v-17.66z" />
    <path d="M570.434 416.853c4.368 0 8.093-.656 11.077-1.951 2.961-1.286 5.197-3.051 6.646-5.25 1.449-2.199 2.185-4.66 2.185-7.315 0-3.185-.839-5.744-2.488-7.61a15.709 15.709 0 00-6.031-4.242c-2.363-.934-5.544-1.885-9.456-2.829-3.039-.695-5.482-1.366-7.259-1.993-1.808-.635-3.353-1.543-4.583-2.698-1.27-1.191-1.915-2.756-1.915-4.652 0-2.558 1.12-4.674 3.334-6.29 2.178-1.585 5.462-2.39 9.763-2.39 2.413 0 4.917.37 7.438 1.099a27.666 27.666 0 016.754 2.988l2.184-5.298c-2.051-1.381-4.52-2.465-7.343-3.218a35.174 35.174 0 00-9.033-1.184c-4.37 0-8.07.669-10.998 1.987-2.916 1.312-5.116 3.08-6.537 5.252-1.425 2.171-2.147 4.645-2.147 7.354 0 3.235.838 5.835 2.489 7.724a15.474 15.474 0 006.066 4.276c2.399.94 5.593 1.891 9.493 2.828 3.14.75 5.608 1.43 7.332 2.032 1.763.612 3.27 1.51 4.476 2.663 1.244 1.192 1.874 2.756 1.874 4.65 0 2.565-1.137 4.644-3.38 6.18-2.197 1.511-5.54 2.274-9.94 2.274-3.323 0-6.6-.574-9.743-1.706-2.96-1.065-5.453-2.449-7.418-4.12l-2.438 5.137c2.031 1.82 4.825 3.33 8.305 4.488a35.572 35.572 0 0011.293 1.814" />
    <path d="M637.922 364.619l-17.048 27.96-16.974-27.96h-7.13l20.512 33.646v17.99h6.66v-17.842l20.514-33.794z" />
    <path d="M655.896 364.619v51.636h35.1v-5.763h-28.364V364.62z" />
    <path d="M767 364.619l-14.713 43.604-14.712-43.604h-6.35l-15.016 43.373L701.8 364.62h-6.917l17.26 51.636h7.473l14.56-42.617 14.56 42.617h7.322l17.26-51.636z" />
    <path d="M820.088 392.833v-5.613h-26.267v-16.837h29.486v-5.765h-36.221v51.638h37.268v-5.763H793.82v-17.66z" />
    <path d="M875.992 364.619h-42.584v5.763h17.961v45.873h6.662v-45.873h17.961z" />
    <path d="M905.61 393.112l19.944 23.144h7.79L909.842 387.8l22.005-23.182h-7.504l-28.97 29.81v-29.81h-6.735v51.638h6.736v-13.325l9.973-10.128z" />
    <path d="M946.188 416.256h6.735V364.62h-6.735z" />
  </g>
  <g id="KatarzynaKoloda">
    <path d="M462.893 180.879c-.096.095-.143.192-.143.287l4.454-1.868a20.657 20.657 0 00-1.078-1.006 21.987 21.987 0 00-1.077-.862zm-2.587-6.467c-1.055-.381-2.347-.668-3.878-.86-1.15-.096-2.324.07-3.522.502-1.198.43-2.18 1.03-2.945 1.795-.768.768-1.126 1.605-1.078 2.515.049.911.79 1.845 2.228 2.802a5.358 5.358 0 001.868.79c.67.144 1.34.265 2.012.36l1.005-1.437zm109.631-42.674a23.261 23.261 0 00-6.537.646 48.46 48.46 0 00-6.465 2.084 94.14 94.14 0 00-6.323 2.801c-2.06 1.006-4 1.99-5.818 2.947a346.24 346.24 0 00-14.369 8.045c-4.694 2.78-9.388 5.557-14.08 8.335a5762.378 5762.378 0 01-14.297 8.548 284.254 284.254 0 01-14.585 8.119 799.965 799.965 0 01-7.112 3.807 150.803 150.803 0 01-7.4 3.665 47.077 47.077 0 017.831 12.5 357.818 357.818 0 015.604 13.938 184.015 184.015 0 005.82 13.722c2.104 4.454 4.98 8.453 8.62 11.997a23.996 23.996 0 005.747 4.025c2.107 1.05 4.406 1.626 6.898 1.723.764 0 1.627-.144 2.585-.43.958-.288 1.818-.338 2.587-.144.669.19 1.244.596 1.724 1.22.477.623.144 1.172-1.007 1.652-4.31 1.628-8.477 1.988-12.498 1.078-4.025-.91-7.712-2.899-11.064-5.963-3.93-3.545-7.091-7.71-9.484-12.5a110.24 110.24 0 01-6.035-14.512 334.04 334.04 0 01-4.311-13.937c-1.342-4.693-3.497-9.054-6.466-13.076a103 103 0 01-4.526 1.58c-1.485.48-2.995.862-4.526 1.15a1123.114 1123.114 0 00-7.328 11.998 2333.76 2333.76 0 00-7.184 11.997 370.796 370.796 0 00-6.609 12.07 37.634 37.634 0 00-1.007 2.227c-.384.911-.814 1.82-1.292 2.73-.48.91-1.007 1.7-1.58 2.371-.576.669-1.248 1.005-2.012 1.005-1.343 0-2.206-.31-2.586-.933-.384-.624-.503-1.366-.361-2.228a9.162 9.162 0 01.864-2.587l1.077-2.155c1.15-2.202 2.299-4.43 3.448-6.681a181.124 181.124 0 013.592-6.681 344.041 344.041 0 016.753-11.782c2.3-3.83 4.693-7.663 7.185-11.496a13.52 13.52 0 01-3.809-1.435c-1.198-.67-2.132-1.485-2.8-2.443-.671-.957-.984-1.988-.935-3.09.047-1.1.74-2.322 2.083-3.664 2.012-2.01 4.24-3.065 6.682-3.16 2.443-.095 4.861.383 7.256 1.436a315.789 315.789 0 0112.789-17.098 420.17 420.17 0 014.382-5.46 96.722 96.722 0 014.669-5.318c.288-.381.79-1.005 1.51-1.866a56.109 56.109 0 012.37-2.66c.862-.908 1.7-1.674 2.515-2.298.812-.622 1.508-.837 2.083-.647.477.194.79.504.933.934.144.43.073.888-.214 1.366a1012.745 1012.745 0 00-13.436 17.744 531.261 531.261 0 00-12.86 18.177 27.293 27.293 0 013.592 2.73l.288-.144c4.98-2.3 9.843-4.813 14.584-7.543a524.196 524.196 0 0014.08-8.406c4.647-2.873 9.29-5.77 13.939-8.693a322.52 322.52 0 0114.154-8.405 580.175 580.175 0 0112.787-6.898 117.776 117.776 0 0113.22-5.89 72.127 72.127 0 016.464-2.011 39.792 39.792 0 016.611-1.15 14.735 14.735 0 011.867-.216c.765-.047 1.388.025 1.867.216.957.193 1.389.743 1.293 1.652-.096.911-.574 1.365-1.437 1.365" />
    <path d="M524.246 205.018a34.295 34.295 0 013.233-3.593 12.276 12.276 0 013.664-2.442c.093-1.15-.192-1.915-.862-2.3-.671-.38-1.487-.524-2.442-.43-.959.096-1.965.312-3.02.646-1.053.337-1.916.697-2.584 1.078-4.024 2.298-7.616 5.27-10.776 8.909-.576.574-1.534 1.63-2.875 3.16a100.754 100.754 0 00-3.95 4.814c-1.294 1.677-2.3 3.233-3.02 4.67-.716 1.437-.692 2.348.072 2.729 1.151.384 2.372.313 3.665-.214a16.31 16.31 0 003.736-2.155 50.269 50.269 0 003.448-2.875 86.697 86.697 0 002.802-2.658 49.091 49.091 0 004.456-4.454 205.7 205.7 0 014.453-4.885m8.047-10.634c.861.863 1.387 2.062 1.58 3.593.958-.287 1.772-.191 2.444.287.667.48.811.911.43 1.294-.384.383-.718.767-1.007 1.148a24.039 24.039 0 01-2.873 3.665 42.992 42.992 0 00-3.018 3.52c-.574.671-1.27 1.485-2.082 2.442a65.943 65.943 0 00-2.515 3.162 41.177 41.177 0 00-2.372 3.52c-.717 1.2-1.173 2.324-1.365 3.377-.193 1.054-.071 1.82.36 2.298.431.481 1.222.527 2.37.144 1.053-.287 2.107-.765 3.162-1.436a407.99 407.99 0 012.73-1.724 74.035 74.035 0 006.394-5.317 139.08 139.08 0 005.964-5.892c.19-.19.43-.503.717-.934.288-.431.598-.812.934-1.15.336-.332.694-.645 1.077-.933.384-.287.767-.382 1.15-.287.766.194 1.173.48 1.222.862.047.384-.049.79-.287 1.221-.24.431-.574.863-1.006 1.294-.431.431-.695.743-.79.934a117.325 117.325 0 01-5.892 6.035 66.171 66.171 0 01-6.322 5.317c-1.055.767-2.492 1.652-4.31 2.657-1.822 1.006-3.57 1.653-5.245 1.94-1.677.287-3.09.071-4.239-.647-1.15-.718-1.533-2.418-1.15-5.1.288-2.012.862-4.214 1.725-6.61l-4.885 4.74c-.768.672-2.062 1.703-3.88 3.091a27.8 27.8 0 01-5.675 3.376c-1.965.863-3.711 1.15-5.244.863-1.532-.287-2.445-1.725-2.73-4.31-.289-2.587.143-5.077 1.294-7.472 1.148-2.395 2.656-4.646 4.524-6.755a39.366 39.366 0 016.25-5.675c2.3-1.674 4.456-3.039 6.467-4.094a145.06 145.06 0 013.593-1.724 25.255 25.255 0 014.381-1.58 15.403 15.403 0 014.383-.504c1.437.049 2.68.503 3.736 1.364" />
    <path d="M589.334 157.027a139.134 139.134 0 00-7.185 6.824c-2.299 2.35-4.55 4.767-6.752 7.256l8.477.576c2.394-2.3 4.814-4.646 7.256-7.042 2.443-2.392 4.573-4.597 6.394-6.61 1.82-2.011 3.233-3.71 4.239-5.1 1.005-1.387 1.363-2.274 1.078-2.658-.768-.668-1.797-.79-3.09-.36-1.293.432-2.635 1.104-4.022 2.012a34.596 34.596 0 00-3.882 2.945c-1.198 1.057-2.036 1.774-2.513 2.157m-16.956 17.53c-5.843 7.183-11.4 14.848-16.665 22.988a366.74 366.74 0 006.536-5.819c2.155-1.962 4.333-3.951 6.538-5.962l11.494-10.777zm-61.353 0c1.63-1.245 3.497-2.179 5.604-2.803a41.405 41.405 0 016.61-1.365c2.3-.287 4.599-.453 6.898-.503 2.298-.047 4.406-.071 6.32-.071 5.462-.094 10.944-.023 16.454.216 5.506.24 10.99.502 16.451.79a192.45 192.45 0 0112.787-12.215 251.956 251.956 0 015.748-4.741 68.68 68.68 0 016.035-4.31c.574-.287 1.411-.694 2.514-1.221a17.917 17.917 0 013.376-1.221c1.15-.289 2.25-.36 3.304-.216 1.056.143 1.773.743 2.157 1.795.478.863.55 1.868.215 3.018-.337 1.15-.862 2.299-1.58 3.449a26.618 26.618 0 01-2.371 3.233 213.035 213.035 0 00-2.01 2.369 215.165 215.165 0 01-5.102 5.75 114.921 114.921 0 01-5.39 5.459l13.364.431c2.49.193 4.98.312 7.472.359 2.49.05 4.979-.023 7.47-.216a37.101 37.101 0 013.306-.143c1.15 0 2.3-.094 3.45-.288.573-.095 1.436-.287 2.584-.574 1.151-.287 1.964-.192 2.444.287.67.67.694 1.246.07 1.725-.623.48-1.484.861-2.584 1.148a26.602 26.602 0 01-3.306.647c-1.102.144-1.796.216-2.083.216-2.78.384-5.51.574-8.19.574h-8.046c-3.356 0-6.635-.072-9.844-.215a662.75 662.75 0 01-9.697-.504 397.502 397.502 0 01-17.675 16.093 3137.105 3137.105 0 01-18.247 15.52 91.895 91.895 0 00-3.233 5.532 23.839 23.839 0 00-2.226 5.818c-.479 1.918-.31 3.186.502 3.807.813.625 1.868.863 3.16.718 1.295-.142 2.66-.524 4.097-1.15 1.436-.62 2.586-1.22 3.448-1.794a55.549 55.549 0 006.465-5.029c2.011-1.82 3.973-3.736 5.891-5.748a35.687 35.687 0 001.652-1.796 15.845 15.845 0 011.796-1.795c.766-.576 1.46-.576 2.084 0 .622.574.596 1.245-.07 2.01a860.423 860.423 0 01-9.413 9.269c-3.21 3.113-6.778 5.628-10.704 7.543-.862.48-1.845.862-2.946 1.15a15.925 15.925 0 01-3.305.502 7.399 7.399 0 01-3.089-.503c-.956-.381-1.772-1.1-2.443-2.156-.668-1.051-1.027-2.226-1.077-3.519a15.21 15.21 0 01.36-3.88 34.158 34.158 0 011.077-3.807 40.455 40.455 0 011.365-3.449 75.868 75.868 0 017.472-13.865 266.054 266.054 0 019.338-12.86 272.185 272.185 0 013.162-3.952 209.176 209.176 0 013.304-3.951 698.863 698.863 0 00-13.65-.718 321.49 321.49 0 00-13.65-.287c-2.392 0-4.789.048-7.183.142-2.393.097-4.789.242-7.185.432-1.818.192-3.758.457-5.818.79-2.06.336-3.856 1.03-5.39 2.084a1.785 1.785 0 01-1.29.359c-.48-.047-.888-.166-1.223-.359a.931.931 0 01-.503-.862c0-.383.24-.766.717-1.15" />
    <path d="M590.77 205.018a34.146 34.146 0 013.234-3.593 12.259 12.259 0 013.664-2.442c.093-1.15-.193-1.915-.862-2.3-.672-.38-1.487-.524-2.443-.43-.96.096-1.964.312-3.018.646-1.056.337-1.917.697-2.585 1.078-4.025 2.298-7.616 5.27-10.778 8.909-.574.574-1.532 1.63-2.873 3.16a99.146 99.146 0 00-3.95 4.814c-1.294 1.677-2.3 3.233-3.02 4.67-.716 1.437-.692 2.348.072 2.729 1.151.384 2.372.313 3.665-.214a16.31 16.31 0 003.735-2.155 50.269 50.269 0 003.45-2.875 88.133 88.133 0 002.801-2.658 48.908 48.908 0 004.454-4.454 208.722 208.722 0 014.454-4.885m8.046-10.634c.863.863 1.388 2.062 1.581 3.593.957-.287 1.771-.191 2.444.287.668.48.812.911.43 1.294-.383.383-.719.767-1.006 1.148a23.962 23.962 0 01-2.875 3.665 42.978 42.978 0 00-3.016 3.52c-.574.671-1.27 1.485-2.082 2.442a65.934 65.934 0 00-2.516 3.162 41.477 41.477 0 00-2.37 3.52c-.718 1.2-1.175 2.324-1.366 3.377-.193 1.054-.071 1.82.36 2.298.431.481 1.22.527 2.37.144 1.053-.287 2.107-.765 3.162-1.436a376.05 376.05 0 012.73-1.724 74.035 74.035 0 006.394-5.317 139.08 139.08 0 005.964-5.892c.19-.19.43-.503.717-.934.288-.431.598-.812.934-1.15a10.37 10.37 0 011.077-.933c.384-.287.765-.382 1.15-.287.766.194 1.173.48 1.22.862.049.384-.047.79-.285 1.221-.24.431-.575.863-1.006 1.294-.431.431-.695.743-.791.934a117.887 117.887 0 01-5.89 6.035 66.02 66.02 0 01-6.324 5.317c-1.054.767-2.492 1.652-4.31 2.657-1.821 1.006-3.569 1.653-5.244 1.94-1.677.287-3.09.071-4.239-.647-1.15-.718-1.533-2.418-1.15-5.1.288-2.012.862-4.214 1.724-6.61l-4.885 4.74c-.767.672-2.06 1.703-3.879 3.091a27.8 27.8 0 01-5.675 3.376c-1.965.863-3.712 1.15-5.245.863-1.531-.287-2.444-1.725-2.73-4.31-.288-2.587.143-5.077 1.293-7.472 1.15-2.395 2.658-4.646 4.526-6.755a39.415 39.415 0 016.249-5.675c2.3-1.674 4.456-3.039 6.468-4.094a147.04 147.04 0 013.591-1.724 25.309 25.309 0 014.383-1.58 15.399 15.399 0 014.381-.504c1.437.049 2.681.503 3.736 1.364" />
    <path d="M619.65 196.253c-.194.48-.194.911 0 1.292a87.167 87.167 0 003.52-4.022 43.146 43.146 0 002.947-4.023c-1.343.48-2.636 1.46-3.88 2.944-1.247 1.487-2.108 2.755-2.587 3.809m-9.195 10.345l3.376-3.377 3.664-3.663c-1.15-1.15-1.343-2.587-.574-4.312.287-.86.863-1.868 1.723-3.016a26.167 26.167 0 012.874-3.233 12.686 12.686 0 013.45-2.372c1.243-.574 2.393-.668 3.448-.286 1.148.286 1.602.983 1.365 2.082-.24 1.103-.817 2.277-1.726 3.52a35.316 35.316 0 01-3.017 3.594 187.999 187.999 0 01-2.513 2.585c.86 0 1.674-.095 2.442-.287 1.15-.19 2.464-.359 3.952-.503 1.483-.143 2.659.313 3.52 1.365.861 1.15 1.124 2.396.79 3.736-.337 1.344-.96 2.659-1.87 3.951a24.302 24.302 0 01-3.087 3.593 193.262 193.262 0 00-2.73 2.658 169.87 169.87 0 00-2.514 2.155 39.94 39.94 0 00-3.235 3.16c-1.054 1.15-1.916 2.3-2.585 3.45-.672 1.149-.768 2.154-.287 3.017.863.574 1.818.744 2.872.504 1.054-.24 2.13-.694 3.235-1.367a24.293 24.293 0 003.089-2.226c.955-.813 1.723-1.46 2.299-1.94a91.526 91.526 0 006.823-6.035 265.933 265.933 0 006.395-6.466c.382-.381.767-.813 1.148-1.292.383-.479.864-.623 1.437-.433.48.097.791.288.935.576.145.288.19.574.145.862-.05.287-.193.6-.432.934-.24.337-.455.6-.648.791-1.915 2.01-3.856 4-5.818 5.962a122.772 122.772 0 01-6.25 5.82c-.767.574-2.061 1.558-3.88 2.945a29.499 29.499 0 01-5.746 3.448c-2.012.91-3.881 1.366-5.604 1.366-1.725 0-2.827-1.103-3.306-3.306-.384-1.243-.43-2.537-.144-3.879a15.746 15.746 0 011.437-3.952 31.067 31.067 0 012.228-3.663 34.418 34.418 0 012.371-3.017l5.604-5.748 1.58-1.581c.381-.381.79-.765 1.222-1.15.43-.381.741-.62.933-.718-.289-.094-.814-.143-1.58-.143-.768 0-1.558.024-2.37.072-.816.05-1.56.097-2.228.143-.671.05-1.103.072-1.294.072-.671 0-1.148-.047-1.437-.144-1.15 1.15-2.299 2.35-3.447 3.593a494.7 494.7 0 00-3.162 3.449l-.645.645c-.243.24-.503.409-.791.503-.672.194-1.199-.047-1.581-.717-.38-.671-.335-1.244.144-1.725" />
    <path d="M641.49 207.029a187.641 187.641 0 016.178-6.178c2.3-2.204 4.406-4.167 6.322-5.892a72.664 72.664 0 001.725-1.795c.669-.719 1.387-1.173 2.155-1.366.667-.094 1.171.169 1.508.79.334.625.264 1.175-.217 1.652a5.342 5.342 0 01-.573 1.51c-.287.527-.432.982-.432 1.365 0-.094.288-.191.864-.287a59.706 59.706 0 001.938-.36c.72-.143 1.412-.263 2.085-.36.668-.093 1.15-.19 1.438-.285a113.123 113.123 0 005.675-1.87 60.624 60.624 0 005.53-2.299c.48-.094.983-.071 1.51.073.525.143.934.384 1.22.718.288.337.407.719.36 1.15-.05.431-.36.84-.933 1.22l-.575.288c-.096.48-.41.815-.934 1.005a8.076 8.076 0 00-1.654.863c-.096.097-.193.144-.286.144a144.845 144.845 0 01-3.665 2.73 64.604 64.604 0 00-3.52 2.73l-14.798 11.207-6.611 5.03c1.053.48 2.202 1.342 3.45 2.586l.142-.144c1.15 1.342 2.586 1.892 4.312 1.652 1.724-.238 3.47-.837 5.243-1.796a31.8 31.8 0 005.03-3.376c1.58-1.294 2.803-2.322 3.663-3.09a102.085 102.085 0 005.749-5.316c.286-.287.621-.67 1.005-1.15.382-.477.789-.956 1.22-1.436a8.188 8.188 0 011.365-1.221c.477-.336.959-.454 1.437-.36.957.193 1.244.744.863 1.652-.385.911-1.056 1.868-2.011 2.873a55.174 55.174 0 01-2.946 2.875c-1.007.911-1.605 1.461-1.797 1.652a79.066 79.066 0 01-5.315 4.599 53.263 53.263 0 01-5.891 4.023 99.107 99.107 0 01-5.534 3.304c-2.06 1.15-4.094 1.628-6.106 1.437-1.341-.193-2.37-.6-3.09-1.221a83.756 83.756 0 00-2.513-2.084 17.57 17.57 0 00-1.868-.934 4.83 4.83 0 00-1.868-.36 7.646 7.646 0 01-2.013 1.437c-.477.384-.98.768-1.508 1.15a6.053 6.053 0 01-1.651.862c-.767.095-1.27-.024-1.51-.36a1.942 1.942 0 01-.358-1.148c0-.43.096-.91.287-1.436.191-.526.43-.934.718-1.223 2.395-3.064 5.173-4.454 8.336-4.167 2.2-1.53 4.31-3.089 6.32-4.67 2.012-1.58 4.07-3.183 6.179-4.812l9.052-7.185a13.64 13.64 0 01-1.58.216c-.575.05-1.152.072-1.724.072-1.344.096-2.708-.094-4.096-.575-1.39-.478-2.324-1.244-2.802-2.3l-3.734 3.45a62.719 62.719 0 00-3.593 3.591c-.195.194-.672.744-1.438 1.652-.767.913-1.343 1.416-1.724 1.51-.671.384-1.365.336-2.084-.144-.718-.479-.692-1.1.073-1.868" />
    <path d="M692.208 195.103a737.122 737.122 0 01-6.896 9.052 227.951 227.951 0 00-6.753 9.196c-.289.48-.672 1.101-1.149 1.868-.482.767-.912 1.581-1.293 2.442a20.166 20.166 0 00-.936 2.515c-.238.814-.263 1.508-.071 2.084.287.767.955.862 2.012.287 1.052-.574 2.345-1.508 3.879-2.802 1.53-1.293 3.161-2.825 4.886-4.597a443.73 443.73 0 004.886-5.101 182.56 182.56 0 003.877-4.24c1.056-1.196 1.725-1.94 2.012-2.227l.576-.575c.19-.19.383-.38.574-.574a53.936 53.936 0 013.016-3.592 14.862 14.862 0 013.595-2.875c.765-.477 1.386-.718 1.866-.718.096 0 .166-.021.216-.071.047-.046.12-.072.217-.072v.143c.668 0 1.052.337 1.148 1.007.094.671-.24 1.39-1.005 2.155-2.494 2.586-4.695 5.51-6.61 8.765a419.916 419.916 0 01-5.748 9.483c-1.917 3.257-3.832 6.49-5.748 9.698-1.916 3.209-3.83 6.442-5.745 9.7a1088.447 1088.447 0 01-7.689 13.65 78.763 78.763 0 00-6.393 14.223 5.075 5.075 0 01-.863 1.582c-.381.479-.955.718-1.723.718-.767 0-1.27-.194-1.51-.575a3.02 3.02 0 01-.431-1.291c-.046-.483 0-1.006.144-1.582a12.4 12.4 0 01.504-1.581 84.64 84.64 0 012.945-7.83c1.102-2.54 2.276-5.1 3.519-7.688 4.502-9.388 9.628-18.679 15.376-27.874l.143-.288a87.975 87.975 0 01-5.676 5.46c-1.964 1.724-3.615 2.68-4.956 2.873-1.916.192-3.378-.43-4.383-1.868-1.007-1.436-1.51-2.967-1.51-4.597 0-2.203.433-4.261 1.294-6.179a37.862 37.862 0 013.018-5.46A46.52 46.52 0 01679.35 202a48.298 48.298 0 015.386-5.029 33.386 33.386 0 012.588-2.083 26.791 26.791 0 012.873-1.797c.576-.094 1.22 0 1.94.287.717.289.741.863.071 1.725" />
    <path d="M745.227 197.833c-.383.384-1.055 1.245-2.01 2.586-.96 1.343-2.061 2.923-3.305 4.741a245.558 245.558 0 00-3.809 5.748 288.928 288.928 0 00-6.106 9.916c-.672 1.148-.911 1.772-.719 1.866 1.053.384 2.202.384 3.449 0 1.243-.381 2.442-.981 3.592-1.795a34.437 34.437 0 003.233-2.586c1.005-.91 1.89-1.653 2.659-2.228a88.013 88.013 0 0010.344-10.345c.478-.479 1.1-.623 1.869-.431.765.192 1.051.718.862 1.58-.194.767-.698 1.509-1.509 2.227a43.535 43.535 0 00-1.94 1.796 222.217 222.217 0 01-5.892 5.677 73.398 73.398 0 01-6.322 5.244c-.768.48-1.652 1.055-2.657 1.724a15.757 15.757 0 01-3.234 1.652c-1.15.431-2.299.67-3.447.718a4.138 4.138 0 01-3.019-1.077c-.861-.765-1.317-1.772-1.365-3.017-.049-1.244.094-2.562.431-3.952.336-1.388.79-2.706 1.365-3.952.575-1.243 1.054-2.25 1.438-3.017a67.005 67.005 0 012.441-3.951 41.863 41.863 0 012.876-3.807 48.026 48.026 0 00-3.737 2.944c-1.15 1.006-2.3 2.038-3.449 3.09a212.247 212.247 0 00-4.813 4.382 203.187 203.187 0 01-4.814 4.383 51.353 51.353 0 00-2.01 2.155 62.429 62.429 0 01-2.442 2.586 18.756 18.756 0 01-2.66 2.228c-.912.623-1.796.934-2.659.934-.955-.097-1.482-.526-1.58-1.294-.095-.765.072-1.7.502-2.802.433-1.1 1.03-2.299 1.797-3.591a71.331 71.331 0 012.372-3.736c.812-1.197 1.555-2.25 2.228-3.162.668-.908 1.148-1.508 1.436-1.795a127.394 127.394 0 013.376-4.957 86.199 86.199 0 003.378-5.101c.188-.382.405-.791.644-1.221.24-.431.504-.791.79-1.078-.766.384-1.46.814-2.081 1.293-.624.48-1.223.959-1.797 1.437a67.95 67.95 0 00-2.73 2.3 58.023 58.023 0 00-2.442 2.297c-.481.481-1.15 1.2-2.012 2.155-.862.96-1.534 1.63-2.013 2.012-.574.481-1.15.574-1.722.287-.577-.287-.767-.812-.577-1.58 0-.288.289-.74.863-1.364.574-.623.958-1.029 1.15-1.223a65.21 65.21 0 014.526-4.381 66.206 66.206 0 014.957-3.952c.574-.381 1.34-.884 2.3-1.51.955-.62 1.914-1.076 2.873-1.363.955-.288 1.795-.288 2.513 0 .72.287 1.173 1.15 1.367 2.586a6.782 6.782 0 01-.143 3.09c-.288 1.005-.673 1.891-1.151 2.657a36.824 36.824 0 01-4.31 6.106 624.326 624.326 0 01-4.885 5.533 84.53 84.53 0 01-2.802 2.946 39.816 39.816 0 00-2.66 2.945l-1.867 2.156 1.868-1.868a39.57 39.57 0 002.946-2.66 73.539 73.539 0 002.657-2.801c1.915-1.818 3.783-3.592 5.604-5.317a138.166 138.166 0 015.605-5.028 154.947 154.947 0 015.1-4.023 45.36 45.36 0 015.531-3.592c.576-.288 1.365-.598 2.37-.935 1.007-.334 1.893-.406 2.661-.214.669.193 1.077.574 1.22 1.15.144.574-.024 1.102-.503 1.579" />
    <path d="M772.67 205.018a34.138 34.138 0 013.233-3.593 12.282 12.282 0 013.666-2.442c.093-1.15-.193-1.915-.863-2.3-.671-.38-1.487-.524-2.442-.43-.96.096-1.965.312-3.019.646-1.055.337-1.916.697-2.585 1.078-4.025 2.298-7.616 5.27-10.778 8.909-.574.574-1.532 1.63-2.873 3.16a100.772 100.772 0 00-3.951 4.814c-1.294 1.677-2.3 3.233-3.018 4.67-.717 1.437-.693 2.348.072 2.729 1.15.384 2.372.313 3.664-.214a16.367 16.367 0 003.736-2.155 50.269 50.269 0 003.449-2.875 88.133 88.133 0 002.802-2.658 48.908 48.908 0 004.454-4.454 208.722 208.722 0 014.454-4.885m8.047-10.634c.861.863 1.386 2.062 1.58 3.593.957-.287 1.77-.191 2.443.287.667.48.813.911.431 1.294-.385.383-.72.767-1.008 1.148a23.872 23.872 0 01-2.873 3.665 42.716 42.716 0 00-3.016 3.52c-.576.671-1.27 1.485-2.084 2.442a66.797 66.797 0 00-2.515 3.162 41.477 41.477 0 00-2.37 3.52c-.719 1.2-1.174 2.324-1.366 3.377-.192 1.054-.071 1.82.36 2.298.432.481 1.221.527 2.37.144 1.052-.287 2.106-.765 3.163-1.436a407.99 407.99 0 012.73-1.724 73.815 73.815 0 006.392-5.317c2.061-1.915 4.046-3.88 5.964-5.892.191-.19.431-.503.718-.934.287-.431.599-.812.934-1.15.336-.332.694-.645 1.077-.933.384-.287.767-.382 1.151-.287.766.194 1.171.48 1.22.862.048.384-.049.79-.287 1.221a5.851 5.851 0 01-1.006 1.294c-.43.431-.694.743-.79.934a117.866 117.866 0 01-5.89 6.035 66.171 66.171 0 01-6.322 5.317c-1.056.767-2.494 1.652-4.31 2.657-1.823 1.006-3.57 1.653-5.246 1.94-1.676.287-3.09.071-4.24-.647-1.148-.718-1.532-2.418-1.148-5.1.287-2.012.861-4.214 1.724-6.61l-4.886 4.74c-.766.672-2.06 1.703-3.878 3.091a27.774 27.774 0 01-5.677 3.376c-1.964.863-3.71 1.15-5.243.863-1.532-.287-2.444-1.725-2.731-4.31-.287-2.587.144-5.077 1.293-7.472 1.15-2.395 2.658-4.646 4.526-6.755a39.357 39.357 0 016.25-5.675c2.299-1.674 4.455-3.039 6.466-4.094.955-.479 2.156-1.054 3.593-1.724a25.335 25.335 0 014.381-1.58 15.414 15.414 0 014.383-.504c1.438.049 2.68.503 3.737 1.364" />
    <path d="M850.692 180.879c-.097.095-.144.192-.144.287l4.454-1.868a20.657 20.657 0 00-1.078-1.006 21.987 21.987 0 00-1.077-.862zm-2.587-6.467c-1.056-.381-2.348-.668-3.88-.86-1.147-.096-2.323.07-3.52.502-1.199.43-2.18 1.03-2.947 1.795-.767.768-1.127 1.605-1.077 2.515.049.911.791 1.845 2.228 2.802a5.354 5.354 0 001.87.79c.667.144 1.339.265 2.01.36l1.006-1.437zm109.632-42.674a23.256 23.256 0 00-6.538.646 48.46 48.46 0 00-6.465 2.084 94.175 94.175 0 00-6.323 2.801c-2.06 1.006-4 1.99-5.818 2.947a347.114 347.114 0 00-14.37 8.045c-4.694 2.78-9.388 5.557-14.08 8.335a6022.155 6022.155 0 01-14.296 8.548 284.298 284.298 0 01-14.586 8.119 819.188 819.188 0 01-7.112 3.807 151.966 151.966 0 01-7.399 3.665 47.072 47.072 0 017.83 12.5 357.818 357.818 0 015.604 13.938 183.45 183.45 0 005.82 13.722c2.105 4.454 4.98 8.453 8.62 11.997a23.988 23.988 0 005.748 4.025c2.106 1.05 4.405 1.626 6.897 1.723.766 0 1.627-.144 2.585-.43.958-.288 1.82-.338 2.588-.144.668.19 1.244.596 1.723 1.22.477.623.145 1.172-1.006 1.652-4.31 1.628-8.478 1.988-12.5 1.078-4.023-.91-7.712-2.899-11.064-5.963-3.928-3.545-7.09-7.71-9.484-12.5a110.607 110.607 0 01-6.035-14.512 334.027 334.027 0 01-4.31-13.937c-1.342-4.693-3.498-9.054-6.465-13.076a103.045 103.045 0 01-4.527 1.58c-1.486.48-2.994.862-4.524 1.15a1080.74 1080.74 0 00-7.329 11.998 2240.943 2240.943 0 00-7.184 11.997 342.582 342.582 0 00-3.376 6.036 350.411 350.411 0 00-3.234 6.035 36.875 36.875 0 00-1.005 2.226c-.385.911-.817 1.82-1.294 2.73-.48.91-1.005 1.7-1.58 2.371-.576.669-1.247 1.005-2.011 1.005-1.344 0-2.205-.31-2.587-.933-.385-.624-.502-1.366-.36-2.228.143-.861.43-1.724.863-2.587.431-.86.791-1.579 1.075-2.155 1.151-2.202 2.301-4.43 3.45-6.681a183.177 183.177 0 013.592-6.681 348.602 348.602 0 016.754-11.782c2.299-3.83 4.692-7.663 7.184-11.496a13.497 13.497 0 01-3.807-1.435c-1.2-.67-2.133-1.485-2.802-2.443-.671-.957-.984-1.988-.934-3.09.046-1.1.741-2.322 2.082-3.664 2.011-2.01 4.24-3.065 6.682-3.16 2.442-.095 4.862.383 7.258 1.436a315.75 315.75 0 0112.787-17.098c1.438-1.82 2.896-3.64 4.383-5.46a96.748 96.748 0 014.67-5.318c.285-.381.788-1.005 1.508-1.866a55.37 55.37 0 012.37-2.66c.863-.908 1.701-1.674 2.514-2.298.814-.622 1.51-.837 2.085-.647.478.194.79.504.934.934.144.43.07.888-.217 1.366a1033.039 1033.039 0 00-13.434 17.744 531.261 531.261 0 00-12.86 18.177 27.399 27.399 0 013.593 2.73l.287-.144a182.52 182.52 0 0014.585-7.543 522.013 522.013 0 0014.08-8.406 2162.24 2162.24 0 0013.937-8.693 323.314 323.314 0 0114.154-8.405c4.31-2.394 8.57-4.693 12.787-6.898a117.776 117.776 0 0113.22-5.89 72.155 72.155 0 016.466-2.011c2.2-.576 4.404-.957 6.61-1.15a14.735 14.735 0 011.867-.216c.766-.047 1.388.025 1.867.216.957.193 1.388.743 1.294 1.652-.096.911-.576 1.365-1.437 1.365" />
    <path d="M909.745 202.574c-.478 1.247-.717 2.468-.717 3.665 0 1.198.286 2.179.862 2.945.574-.669 1.268-1.556 2.082-2.658.814-1.1 1.556-2.25 2.229-3.449a19.859 19.859 0 001.58-3.592c.38-1.196.43-2.226.142-3.089-.192-.574-.598-.597-1.22-.071-.623.527-1.293 1.221-2.011 2.084a30.014 30.014 0 00-1.941 2.586c-.576.861-.911 1.388-1.006 1.58m-2.874-.288c.288-.862.72-1.89 1.294-3.089a13.668 13.668 0 012.155-3.233c-1.15.194-2.277.647-3.376 1.365a19.705 19.705 0 00-3.16 2.587 38.366 38.366 0 00-2.731 3.017 116.07 116.07 0 01-2.084 2.514 32.914 32.914 0 00-3.16 4.382 34.471 34.471 0 00-2.442 4.814c-.097.288-.267.767-.504 1.437a14.19 14.19 0 00-.576 2.156 18.57 18.57 0 00-.286 2.155c-.05.67.072 1.054.359 1.15.957.861 2.155 1.054 3.592.574 1.436-.478 2.894-1.292 4.382-2.442a30.421 30.421 0 004.239-4.024c1.34-1.531 2.49-2.873 3.45-4.023-1.057-1.244-1.655-2.706-1.796-4.383-.146-1.675.07-3.327.644-4.957m5.462-9.34c.286.098.621.338 1.005.719.479-.19.933-.334 1.366-.431a3.32 3.32 0 011.364 0c1.725.288 2.681 1.102 2.874 2.443.19 1.342-.05 2.873-.72 4.597-.67 1.725-1.629 3.546-2.873 5.461a109.872 109.872 0 01-3.447 5.028c.381.097.74.169 1.075.216.336.049.741.073 1.224.073a7.791 7.791 0 003.088-.647 17.317 17.317 0 002.801-1.51c.766-.478 1.51-1.1 2.228-1.867a83.426 83.426 0 011.94-2.011c.67-.67 1.222-.839 1.652-.503.43.336.454 1.031.073 2.082-.196.671-.791 1.51-1.797 2.515-1.005 1.005-1.796 1.702-2.37 2.084a16.723 16.723 0 01-5.461 2.514c-2.011.527-3.976.359-5.891-.502-.192 0-.289-.047-.289-.144l-.86 1.005-3.591 3.951a40.616 40.616 0 01-4.671 4.383c-1.678 1.343-3.426 2.37-5.244 3.09-1.821.718-3.593.693-5.318-.072-2.297-.957-3.614-2.418-3.95-4.383-.336-1.96-.143-4.044.574-6.25a29.22 29.22 0 012.947-6.323c1.243-2.01 2.345-3.591 3.305-4.741a59.26 59.26 0 015.746-5.818c2.105-1.87 4.405-3.329 6.897-4.383a9.664 9.664 0 013.09-.935 6.807 6.807 0 013.233.36" />
    <path d="M930.58 202.144l14.512-13.364a612.202 612.202 0 0019.827-18.965l9.34-9.77c.381-.48.981-1.126 1.796-1.942a63.421 63.421 0 002.444-2.586 18.52 18.52 0 002.083-2.802c.575-.955.813-1.77.719-2.442-.671-.574-1.607-.692-2.802-.36-1.2.337-2.398.863-3.592 1.581-1.2.719-2.325 1.461-3.377 2.228a70.808 70.808 0 00-2.3 1.724 94.64 94.64 0 00-7.471 6.465 246 246 0 00-7.04 7.042 212.51 212.51 0 00-12.43 14.8 123.194 123.194 0 00-10.417 16.092zm23.707 5.46a403.462 403.462 0 01-9.124 8.837 55.036 55.036 0 01-10.13 7.543c-1.917 1.055-4.072 1.772-6.466 2.155-2.394.381-4.408-.383-6.035-2.3-.86-.955-1.435-2.105-1.723-3.447-.289-1.34-.382-2.706-.289-4.096a23.66 23.66 0 01.648-4.094l.934-3.737a62.675 62.675 0 016.25-14.8 98.574 98.574 0 019.34-13.362 133.345 133.345 0 0111.278-11.997 270.601 270.601 0 0112.07-10.705c.957-.766 2.443-1.962 4.455-3.592a54.427 54.427 0 016.393-4.454c2.25-1.341 4.456-2.25 6.61-2.73 2.156-.479 3.902.05 5.243 1.58.576.769.767 1.678.576 2.73-.194 1.056-.598 2.109-1.22 3.161a21.911 21.911 0 01-2.085 2.946c-.767.911-1.342 1.653-1.722 2.227a74.031 74.031 0 01-5.318 6.395 230.723 230.723 0 01-5.747 5.962 548.085 548.085 0 01-20.26 19.255 963.889 963.889 0 01-20.978 18.39c-.48 1.246-.934 2.444-1.366 3.594a18.078 18.078 0 00-.934 3.591c-.382 2.011-.264 3.473.36 4.383.62.911 1.46 1.46 2.515 1.652 1.053.193 2.274.096 3.663-.288a15.146 15.146 0 003.952-1.724 53.144 53.144 0 007.111-5.244 99.218 99.218 0 006.538-6.25c.479-.479 1.03-1.1 1.654-1.868.621-.766 1.172-1.341 1.65-1.724.768-.576 1.487-.576 2.157 0 .67.574.67 1.245 0 2.01" />
    <path d="M969.516 202.574c-.479 1.247-.717 2.468-.717 3.665 0 1.198.287 2.179.861 2.945.576-.669 1.268-1.556 2.084-2.658a32.73 32.73 0 002.227-3.449 19.773 19.773 0 001.581-3.592c.382-1.196.43-2.226.143-3.089-.194-.574-.6-.597-1.22-.071-.625.527-1.295 1.221-2.013 2.084a30.581 30.581 0 00-1.94 2.586c-.575.861-.912 1.388-1.006 1.58m-2.873-.288c.288-.862.718-1.89 1.293-3.089a13.627 13.627 0 012.155-3.233c-1.15.194-2.276.647-3.377 1.365a19.705 19.705 0 00-3.16 2.587 38.076 38.076 0 00-2.73 3.017 115.632 115.632 0 01-2.084 2.514 32.914 32.914 0 00-3.16 4.382 34.618 34.618 0 00-2.443 4.814c-.097.288-.267.767-.504 1.437-.24.671-.43 1.39-.574 2.156-.144.767-.24 1.486-.287 2.155-.05.67.071 1.054.358 1.15.957.861 2.155 1.054 3.593.574 1.437-.478 2.895-1.292 4.382-2.442a30.347 30.347 0 004.238-4.024c1.34-1.531 2.491-2.873 3.45-4.023-1.056-1.244-1.653-2.706-1.796-4.383-.146-1.675.07-3.327.646-4.957m5.46-9.34c.288.098.622.338 1.006.719.478-.19.934-.334 1.365-.431a3.326 3.326 0 011.365 0c1.724.288 2.681 1.102 2.874 2.443.19 1.342-.05 2.873-.719 4.597-.67 1.725-1.63 3.546-2.874 5.461a109.872 109.872 0 01-3.448 5.028c.382.097.74.169 1.077.216.334.049.741.073 1.222.073a7.793 7.793 0 003.09-.647 17.374 17.374 0 002.801-1.51c.766-.478 1.508-1.1 2.227-1.867a88.972 88.972 0 011.94-2.011c.67-.67 1.223-.839 1.651-.503.432.336.455 1.031.074 2.082-.195.671-.79 1.51-1.796 2.515-1.005 1.005-1.797 1.702-2.372 2.084a16.723 16.723 0 01-5.46 2.514c-2.012.527-3.977.359-5.89-.502-.193 0-.289-.047-.289-.144l-.861 1.005c-.96 1.057-2.155 2.372-3.592 3.951a40.714 40.714 0 01-4.67 4.383c-1.677 1.343-3.425 2.37-5.245 3.09-1.82.718-3.593.693-5.317-.072-2.297-.957-3.614-2.418-3.951-4.383-.334-1.96-.143-4.044.574-6.25a29.283 29.283 0 012.948-6.323c1.242-2.01 2.346-3.591 3.304-4.741a59.41 59.41 0 015.747-5.818c2.105-1.87 4.404-3.329 6.897-4.383a9.646 9.646 0 013.09-.935 6.806 6.806 0 013.233.36" />
    <path d="M1034.605 169.958a382.35 382.35 0 00-10.272 13.363 265.751 265.751 0 00-9.557 13.938c2.012-1.917 4.023-3.83 6.035-5.748a341.537 341.537 0 006.035-5.891l9.124-9.124a796.201 796.201 0 008.98-9.124 463.029 463.029 0 004.598-4.958 145.743 145.743 0 004.455-5.1c.575-.766 1.15-1.531 1.725-2.3.574-.765 1.1-1.53 1.58-2.299.19-.19.405-.645.646-1.363.239-.719.407-1.079.503-1.079.191-.094-.025-.191-.647-.287-.624-.094-.886-.144-.789-.144a7.05 7.05 0 00-2.085.574c-.624.289-1.22.626-1.795 1.007a31.964 31.964 0 00-3.45 2.442 79.468 79.468 0 00-3.159 2.73 87.396 87.396 0 00-6.178 6.538 844.79 844.79 0 00-5.75 6.825m-35.058 41.095c.288-.192.694-.576 1.222-1.15a9.101 9.101 0 011.65-1.438 49.27 49.27 0 012.66-6.25 100.076 100.076 0 013.233-5.819c-.672-.19-1.462-.215-2.37-.071-.912.143-1.75.358-2.517.645a23.396 23.396 0 00-5.89 3.162 45.572 45.572 0 00-5.173 4.454c-.48.48-1.533 1.581-3.16 3.305a93.204 93.204 0 00-4.815 5.53c-1.58 1.966-2.847 3.81-3.807 5.533-.955 1.725-1.005 2.828-.143 3.306.863.48 1.845.551 2.945.216a14.88 14.88 0 003.235-1.438 31.401 31.401 0 003.087-2.084 107.673 107.673 0 012.516-1.866 62.9 62.9 0 007.327-6.035m32.617-3.45l-9.124 9.125c-3.116 3.114-6.49 5.628-10.13 7.543a20.88 20.88 0 01-4.956 1.724c-1.774.382-3.426.094-4.959-.862-.958-.575-1.652-1.293-2.083-2.155a7.85 7.85 0 01-.791-2.801 13.302 13.302 0 01.074-3.09c.143-1.053.308-2.012.502-2.874l-4.742 3.736a77.267 77.267 0 01-3.449 2.586 46.303 46.303 0 01-4.167 2.66 20.395 20.395 0 01-4.381 1.866c-1.488.43-2.895.454-4.24.072-1.437-.381-2.37-1.1-2.802-2.155-.432-1.052-.622-2.227-.574-3.52.05-1.294.312-2.609.79-3.951.48-1.341.959-2.444 1.437-3.305 1.437-2.778 3.376-5.34 5.818-7.687 2.444-2.347 5.006-4.333 7.688-5.964.957-.668 2.202-1.412 3.736-2.226a40.237 40.237 0 014.812-2.155c1.676-.623 3.33-1.007 4.959-1.15 1.629-.144 3.064.121 4.31.79a108.803 108.803 0 013.304-4.814c1.15-1.58 2.3-3.136 3.449-4.67a218.23 218.23 0 0121.984-25.001c.575-.477 1.412-1.244 2.515-2.298a99.92 99.92 0 013.735-3.378 67.968 67.968 0 014.456-3.52c1.58-1.148 3.11-2.034 4.597-2.657 1.484-.623 2.826-.885 4.023-.79 1.197.095 2.178.767 2.946 2.01.477.863.597 1.847.359 2.947-.24 1.102-.673 2.179-1.294 3.231a32.064 32.064 0 01-2.082 3.09 77.602 77.602 0 01-1.868 2.371 90.759 90.759 0 01-5.461 6.61 381.579 381.579 0 01-5.747 6.179 416.957 416.957 0 01-11.352 11.206 1258.78 1258.78 0 01-11.637 10.92l-9.34 8.335c-.48.48-1.102 1.126-1.868 1.94a33.28 33.28 0 01-2.299 2.227 89.902 89.902 0 00-2.37 4.813 36.335 36.335 0 00-1.797 4.814c-.481 1.916-.431 3.281.144 4.094.574.815 1.386 1.27 2.44 1.365 1.056.097 2.25-.094 3.594-.574 1.34-.478 2.538-1.054 3.593-1.725a40.026 40.026 0 006.393-4.957 320.917 320.917 0 005.82-5.675l3.88-4.167c.287-.382.645-.576 1.078-.576.43 0 .79.122 1.077.36.287.24.451.553.503.934.048.384-.122.767-.503 1.15" />
    <path d="M1049.98 205.018a34.146 34.146 0 013.233-3.593 12.259 12.259 0 013.664-2.442c.093-1.15-.192-1.915-.862-2.3-.671-.38-1.487-.524-2.442-.43-.96.096-1.965.312-3.019.646-1.054.337-1.916.697-2.585 1.078-4.026 2.298-7.616 5.27-10.776 8.909-.576.574-1.534 1.63-2.875 3.16a100.772 100.772 0 00-3.951 4.814c-1.293 1.677-2.3 3.233-3.018 4.67-.717 1.437-.693 2.348.072 2.729 1.15.384 2.371.313 3.664-.214a16.338 16.338 0 003.736-2.155 50.269 50.269 0 003.449-2.875 88.133 88.133 0 002.801-2.658 48.908 48.908 0 004.455-4.454 208.722 208.722 0 014.454-4.885m8.047-10.634c.861.863 1.387 2.062 1.58 3.593.958-.287 1.77-.191 2.443.287.668.48.813.911.431 1.294-.384.383-.72.767-1.008 1.148a23.872 23.872 0 01-2.873 3.665 42.716 42.716 0 00-3.016 3.52c-.576.671-1.27 1.485-2.084 2.442a67.673 67.673 0 00-2.515 3.162 41.477 41.477 0 00-2.37 3.52c-.719 1.2-1.174 2.324-1.366 3.377-.192 1.054-.071 1.82.36 2.298.432.481 1.221.527 2.37.144 1.053-.287 2.106-.765 3.163-1.436a407.99 407.99 0 012.73-1.724 73.815 73.815 0 006.392-5.317c2.06-1.915 4.046-3.88 5.964-5.892.191-.19.431-.503.718-.934.287-.431.599-.812.934-1.15.336-.332.694-.645 1.077-.933.384-.287.767-.382 1.15-.287.766.194 1.172.48 1.22.862.05.384-.048.79-.286 1.221a5.851 5.851 0 01-1.006 1.294c-.43.431-.694.743-.79.934a117.887 117.887 0 01-5.89 6.035 66.171 66.171 0 01-6.323 5.317c-1.055.767-2.493 1.652-4.31 2.657-1.822 1.006-3.57 1.653-5.245 1.94-1.676.287-3.09.071-4.24-.647-1.148-.718-1.532-2.418-1.148-5.1.287-2.012.861-4.214 1.724-6.61l-4.886 4.74c-.767.672-2.06 1.703-3.878 3.091a27.774 27.774 0 01-5.677 3.376c-1.964.863-3.71 1.15-5.243.863-1.532-.287-2.444-1.725-2.731-4.31-.287-2.587.144-5.077 1.293-7.472 1.15-2.395 2.658-4.646 4.526-6.755a39.357 39.357 0 016.25-5.675c2.299-1.674 4.455-3.039 6.466-4.094.957-.479 2.156-1.054 3.593-1.724a25.309 25.309 0 014.382-1.58 15.399 15.399 0 014.382-.504c1.438.049 2.68.503 3.737 1.364" />
    <path d="M987.166 167.616c.934-.28 1.632-.295 2.088-.05.455.247.658.636.613 1.171-.047.531-.333 1.062-.862 1.595-.527.528-1.212.928-2.053 1.2l-70.873 19.995c-.746.262-1.3.24-1.665-.062-.365-.303-.523-.722-.478-1.255.047-.533.287-1.06.72-1.582.433-.523 1.068-.918 1.91-1.187z" />
  </g>
  <g id="LogoIcon">
    <path d="M271.243 374.28c-8.604 5.838-15.01 14.09-20.877 22.474-2.929 4.222-5.677 8.571-8.337 12.981l-3.961 6.636c-1.374 2.213-2.674 4.49-4.132 6.66-2.814 4.408-5.887 8.646-9.07 12.804-3.26 4.095-6.607 8.13-10.195 11.954-3.527 3.883-7.307 7.53-11.15 11.113-3.95 3.462-7.953 6.884-12.218 9.987-8.436 6.306-17.558 11.808-27.34 15.988-1.203.563-2.455 1.019-3.697 1.497-1.248.465-2.476.98-3.74 1.402-2.543.801-5.056 1.706-7.662 2.318-5.148 1.438-10.47 2.283-15.811 2.815l-4.026.264c-1.341.112-2.691.011-4.038.023-2.695.054-5.38-.256-8.066-.462-5.34-.694-10.678-1.662-15.782-3.407-2.598-.73-5.06-1.826-7.563-2.812-1.265-.463-2.43-1.142-3.648-1.706-1.197-.608-2.433-1.145-3.593-1.815a110.41 110.41 0 01-13.303-8.873l-.147-.114-.092-.087c-4.051-3.882-7.9-8.169-11.035-13.014a51.794 51.794 0 01-6.895-15.779c-1.414-5.569-1.924-11.272-1.896-16.896-.049-2.82.214-5.61.422-8.402.15-1.39.365-2.768.546-4.15.177-1.383.37-2.76.656-4.115.525-2.713.981-5.444 1.74-8.202.726-2.746 1.74-5.363 2.781-7.956 2.207-5.13 4.882-9.99 7.782-14.678 5.832-9.364 12.669-17.986 19.946-26.15-6.517 8.782-12.639 17.854-17.814 27.387-2.578 4.766-4.888 9.667-6.726 14.694-.878 2.523-1.725 5.054-2.277 7.63-.576 2.543-.901 5.229-1.292 7.904-.218 1.333-.341 2.669-.449 4.004-.11 1.334-.259 2.667-.34 3.999-.067 2.667-.258 5.33-.113 7.977.15 5.292.809 10.545 2.256 15.538 1.441 4.994 3.676 9.687 6.57 13.963 2.897 4.283 6.467 8.123 10.374 11.72l-.237-.2c8.1 5.986 16.831 10.954 26.342 13.839 4.7 1.58 9.604 2.42 14.504 3.031 4.929.474 9.892.503 14.843.115 4.939-.465 9.88-1.204 14.703-2.523 2.437-.549 4.8-1.39 7.194-2.122 1.19-.388 2.352-.869 3.53-1.298 1.172-.443 2.356-.86 3.498-1.389 9.239-3.946 18.114-8.9 26.34-14.84 16.503-11.811 30.949-26.625 42.876-43.229 1.526-2.056 2.891-4.214 4.344-6.329 1.423-2.17 2.844-4.34 4.32-6.48 2.94-4.284 5.974-8.513 9.188-12.61 3.209-4.1 6.655-8.028 10.375-11.68 3.72-3.642 7.87-6.885 12.392-9.398"/>
    <path d="M347.928 453.65c-10.02-4.344-19.712-9.532-28.802-15.731-4.592-3.032-8.895-6.496-13.114-10.06-4.19-3.602-8.062-7.578-11.758-11.699-7.317-8.331-13.328-17.77-18.126-27.654-4.823-9.897-8.519-20.252-11.306-30.814 4.56 9.929 9.124 19.783 14.43 29.173 2.68 4.678 5.465 9.286 8.547 13.666 3.025 4.418 6.286 8.671 9.856 12.653 6.995 8.097 15.033 15.267 23.538 21.893 8.527 6.613 17.599 12.58 26.735 18.574" />
    <path d="M245.85 411.161c1.667.648 3.443 1.051 5.17 1.56l5.198 1.509c3.465 1.008 6.905 2.089 10.357 3.144 6.873 2.19 13.729 4.452 20.52 6.907 13.601 4.87 27.026 10.25 40.093 16.737 12.918 6.762 25.394 14.318 36.658 23.725 5.608 4.695 10.883 9.9 15.203 15.906 2.12 3.02 3.996 6.252 5.274 9.73 1.315 3.452 1.927 7.192 1.582 10.794-.334-3.606-1.428-7.024-3.11-10.114-1.655-3.103-3.719-5.964-6.072-8.578-4.64-5.289-10.12-9.814-15.79-14.042-5.735-4.158-11.655-8.099-17.796-11.7-6.093-3.645-12.357-7.173-18.671-10.345-6.314-3.254-12.832-6.206-19.368-9.126-6.516-2.977-13.14-5.736-19.72-8.624l-19.832-8.511-9.901-4.341c-3.28-1.497-6.628-2.882-9.795-4.63" />
    <path d="M97.858 488.433l.202-.265.012-.016.018.012c2.1 1.261 4.447 1.938 6.81 2.33 2.365.4 4.768.532 7.161.479 1.219-.02 2.344-.11 3.627-.18 1.379-.062 2.741.182 4.008.56 2.546.773 4.763 2.016 6.922 3.187 1.088.59 2.101 1.209 3.139 1.73l1.53.576c.508.189.987.419 1.564.507 1.124.206 2.175.575 3.337.657 1.155.099 2.28.286 3.445.316 4.643.24 9.39-.256 14.075-.936 9.382-1.568 18.686-4.016 27.74-7.22a240.926 240.926 0 0026.63-11.057l6.548-3.177c2.306-1.121 4.651-2.092 7.013-3 4.731-1.792 9.583-3.16 14.486-4.207a122.417 122.417 0 0129.786-2.505c9.957.363 19.798 1.98 29.348 4.614 2.408.605 4.725 1.484 7.04 2.262 2.317.816 4.628 1.646 6.903 2.573 2.278.922 4.54 1.887 6.759 2.936 1.102.525 2.209 1.103 3.276 1.646.533.244 1.101.432 1.69.46.577.035 1.206-.119 1.612-.593-.331.528-.981.802-1.606.85-.637.057-1.273-.057-1.88-.24-1.18-.404-2.305-.805-3.474-1.173a137.449 137.449 0 00-6.977-2.105c-4.679-1.24-9.416-2.544-14.133-3.383a144.85 144.85 0 00-28.624-2.56c-9.55.254-19.093 1.172-28.305 3.478-4.598 1.132-9.17 2.404-13.538 4.137-2.18.867-4.335 1.787-6.407 2.822l-6.583 3.278c-17.86 8.397-36.71 15.197-56.636 17.41-1.235.172-2.5.204-3.751.295-1.255.063-2.497.192-3.768.157l-3.79-.014-3.809-.32c-1.268-.13-2.543-.427-3.806-.637-1.267-.193-2.521-.702-3.77-1.045-.627-.15-1.243-.477-1.856-.761l-1.832-.872c-1.089-.662-2.121-1.382-3.121-2.05-2.002-1.353-3.973-2.693-6.042-3.536-1.034-.42-2.086-.71-3.152-.765-1.155-.037-2.47-.084-3.689-.211-2.48-.232-4.945-.652-7.334-1.348-2.372-.738-4.682-1.78-6.592-3.327l.031-.004z"/>
    <path d="M5.16 533.958c2.796-3.482 6.018-6.621 9.594-9.43 1.806-1.377 3.725-2.621 5.703-3.798a51.378 51.378 0 016.215-3.008c4.309-1.726 8.697-2.874 13.291-3.675 4.405-.604 8.573-1.284 12.755-2.185 8.342-1.73 16.32-4.482 23.822-8.49 7.535-3.975 14.422-9.282 21.318-14.938-4.758 7.528-11.002 14.259-18.53 19.485-7.528 5.21-16.282 8.75-25.19 10.574-4.437.931-8.99 1.568-13.345 1.917-4.115.486-8.369 1.24-12.405 2.345-8.171 2.11-15.723 6.373-23.228 11.203" />
    <path d="M378.882 507.299c-6.82 3.381-13.932 6.253-21.258 8.473-7.32 2.238-14.81 3.937-22.342 5.291-15.099 2.596-30.27 4.205-45.529 5.288-15.25 1.08-30.528 1.324-45.77 1.438-15.245.04-30.46-.238-45.648-.303a1756.51 1756.51 0 00-45.537.065c-15.177.128-30.336.66-45.495 1.295-30.317 1.372-60.581 4.06-90.871 7.232a767.516 767.516 0 0190.54-12.515c15.203-1.27 30.45-1.925 45.692-2.433 15.247-.41 30.484-.494 45.73-.424l45.617.68c7.589.104 15.174.165 22.753.12 7.577-.082 15.151-.183 22.72-.421 7.569-.26 15.116-.713 22.689-1.22 7.564-.507 15.11-1.158 22.617-2.078a207.704 207.704 0 0022.348-3.821c3.686-.853 7.35-1.817 10.969-2.952 3.644-1.063 7.213-2.369 10.775-3.715" />
    <path d="M214.308 160.536c-2.995 1.313-5.984 2.648-8.849 4.177-2.85 1.53-5.668 3.207-8.435 4.907-5.531 3.42-10.91 7.059-15.937 11.107-5.047 3.999-9.732 8.448-14.19 13.114-4.43 4.673-8.644 9.539-12.318 14.744a92.358 92.358 0 00-5.11 8.052 167.969 167.969 0 00-4.563 8.462c-2.881 5.735-5.42 11.65-7.71 17.672-4.625 12.033-8.376 24.45-11.795 37.001l-5.182 18.864-2.599 9.431c-.869 3.142-1.758 6.302-2.474 9.393a365.708 365.708 0 00-7.175 38.16c-1.696 12.844-2.328 25.757-2.173 38.77.049 6.442.786 12.823 2.982 18.854 1.086 2.992 2.537 5.884 4.629 8.287 1.036 1.196 2.245 2.285 3.63 3.069 1.385.783 3.013 1.185 4.646 1.008-1.602.348-3.333.123-4.87-.547-1.544-.674-2.916-1.671-4.145-2.82-2.436-2.334-4.22-5.253-5.629-8.279-2.83-6.076-4.032-12.826-4.569-19.407-.272-3.301-.381-6.593-.528-9.849a244.35 244.35 0 01-.204-9.892c.008-6.601.397-13.195.968-19.767 1.124-13.162 3.425-26.155 6.182-39.042.658-3.299 1.56-6.426 2.394-9.59l2.53-9.484c1.677-6.318 3.313-12.647 5.054-18.974 3.576-12.618 7.409-25.251 12.371-37.537 2.504-6.132 5.272-12.175 8.402-18.043 3.13-5.853 6.562-11.601 10.697-16.926a126.5 126.5 0 0113.44-14.75c4.833-4.513 9.883-8.83 15.328-12.627a145.473 145.473 0 0117.004-10.085c2.945-1.473 5.876-2.905 8.916-4.198 3.054-1.242 6.166-2.26 9.282-3.255"/>
    <path d="M125.94 389.03c.254-.036.336-.338.417-.547.074-.232.104-.477.155-.722l.28-1.473c.205-.979.428-1.956.676-2.929.532-1.932 1.13-3.857 1.853-5.736 1.416-3.773 3.236-7.397 5.287-10.885 4.164-6.945 9.407-13.243 15.292-18.805 2.913-2.833 6.048-5.403 9.007-7.963 2.985-2.597 5.948-5.216 8.838-7.905 5.816-5.34 11.473-10.835 16.845-16.614 5.46-5.694 10.657-11.653 15.773-17.696l3.84-4.535c1.313-1.544 2.631-3.087 4.037-4.571 2.763-3.002 5.817-5.794 9.169-8.23 3.347-2.428 7.027-4.48 10.947-5.88 1.974-.653 3.97-1.249 6.016-1.586a30.715 30.715 0 016.192-.58c4.163.013 8.281.994 11.977 2.688 3.72 1.675 7.007 4.031 10.095 6.543-3.41-2.059-6.925-3.957-10.632-5.184-3.7-1.221-7.558-1.809-11.358-1.459-3.793.252-7.535 1.336-11.03 2.798a42.739 42.739 0 00-9.71 5.934c-2.96 2.418-5.683 5.144-8.241 8.06-1.287 1.447-2.508 2.97-3.725 4.496l-3.73 4.695c-5.053 6.202-10.295 12.274-15.788 18.13-5.542 5.808-11.323 11.401-17.35 16.698-3.02 2.638-6.104 5.2-9.203 7.733l-4.67 3.744c-1.539 1.211-3.082 2.423-4.541 3.72-2.988 2.524-5.77 5.273-8.453 8.113-2.7 2.83-5.17 5.874-7.44 9.064a74.255 74.255 0 00-6.111 10.061c-.91 1.75-1.69 3.563-2.434 5.4-.37.918-.716 1.848-1.046 2.785l-.47 1.416c-.17.423-.251 1.084-.765 1.222"/>
    <path d="M195.782 251.427c-2.58 5.976-4.254 12.18-6.019 18.43a332.764 332.764 0 01-6.03 18.566c-2.14 6.152-4.595 12.2-7.188 18.203a208.265 208.265 0 01-8.802 17.58c-3.291 5.687-6.879 11.226-10.885 16.468a145.534 145.534 0 01-3.11 3.864l-3.098 3.696c-2.007 2.5-4.013 5-5.964 7.545-3.843 5.125-7.56 10.368-10.831 15.881a81.058 81.058 0 00-4.527 8.47c-.662 1.456-1.268 2.941-1.712 4.468-.248.762-.403 1.538-.527 2.328-.05.392-.062.786.002 1.175.077.367.167.82.537 1.005-.41-.126-.587-.584-.73-.956a4.39 4.39 0 01-.206-1.239c-.008-.825.02-1.659.145-2.478.232-1.64.651-3.239 1.122-4.817.966-3.15 2.23-6.191 3.607-9.169 2.806-5.935 6.127-11.606 9.766-17.055l2.772-4.06 2.913-3.955 2.998-3.873a146.874 146.874 0 002.84-3.82 162.092 162.092 0 0010.31-16.091c3.21-5.523 6.098-11.243 8.852-17.042 2.804-5.778 5.323-11.702 7.896-17.62 2.49-5.942 5.04-11.918 7.414-17.908 2.43-5.99 4.838-12.16 8.455-17.596"/>
    <path d="M126.95 425.519c.184.18.466.028.69-.015l.72-.189 1.435-.383c.95-.283 1.904-.539 2.845-.843a83.393 83.393 0 005.59-1.902c3.67-1.396 7.236-3.01 10.63-4.919 6.805-3.795 12.908-8.662 18.33-14.166 1.285-1.442 2.679-2.804 3.87-4.302l1.853-2.194c.622-.728 1.17-1.555 1.759-2.327a420.055 420.055 0 006.876-9.58c4.536-6.427 8.892-12.957 13-19.664 8.452-13.266 15.669-27.347 24.806-40.562 2.306-3.274 4.687-6.51 7.288-9.572 2.59-3.083 5.37-5.981 8.195-8.78l8.571-8.23 2.154-2.045c.71-.697 1.467-1.425 2.333-1.984 1.714-1.168 3.905-1.59 5.828-1.073-1.99-.246-3.936.445-5.353 1.712-.736.613-1.342 1.333-1.962 2.098l-1.92 2.277c-2.553 3.05-5.201 6.022-7.76 9.014-5.218 5.915-9.786 12.204-13.941 18.855-4.114 6.663-7.959 13.512-11.751 20.472-3.864 6.926-7.838 13.81-12.01 20.602-4.25 6.741-8.699 13.383-13.436 19.791a420.056 420.056 0 01-7.275 9.494c-2.404 3.199-5.376 6.141-8.259 8.93-3.023 2.702-6.1 5.351-9.49 7.58-3.37 2.244-6.883 4.263-10.545 5.953-3.687 1.634-7.477 3.003-11.352 4.007a80.328 80.328 0 01-5.845 1.286c-.98.178-1.969.306-2.949.46l-1.478.19-.739.092c-.223.01-.54.13-.707-.083"/>
    <path d="M481 546.117c-9.125 1.098-18.772-1.053-27.107-5.542-4.197-2.216-8.084-4.993-11.633-8.128-.888-.768-1.762-1.61-2.637-2.456-.892-.846-1.601-1.65-2.394-2.492-.772-.849-1.548-1.632-2.322-2.426-.773-.797-1.536-1.6-2.329-2.362-6.24-6.237-12.978-11.677-20.752-15.636a96.022 96.022 0 00-12.17-5.166c-4.218-1.518-8.598-2.63-13.016-3.973 9.169-.492 18.579.674 27.45 4.092 8.928 3.33 16.79 9.258 23.269 15.935 1.655 1.64 3.206 3.416 4.697 5.123.742.83 1.471 1.79 2.196 2.54.721.77 1.44 1.544 2.232 2.307a69.37 69.37 0 009.993 8.365c7.137 5.032 15.474 8.325 24.523 9.819" />
    <path d="M474.1 534.2c-19.464-16.559-37.03-35.326-53.512-54.865-4.148-4.868-8.1-9.884-12.102-14.867l-11.966-14.975-23.35-30.305c-7.675-10.197-15.303-20.446-22.737-30.845-7.34-10.466-14.655-20.96-21.477-31.798-3.418-5.418-6.79-10.864-9.98-16.42a516.733 516.733 0 01-4.718-8.382c-.845-1.437-1.458-2.915-2.155-4.377l-2.024-4.34c-2.68-5.767-5.38-11.532-8.53-16.984-1.606-2.689-3.32-5.368-5.654-7.39-1.17-1.002-2.473-1.836-3.996-2.262a18.752 18.752 0 00-2.3-.555c-.391-.068-.783-.123-1.178-.151-.383-.007-.822-.084-1.146.153.306-.277.762-.248 1.149-.281.401-.015.803-.002 1.204.022.802.056 1.603.16 2.397.316 1.603.264 3.15 1.017 4.498 1.949 2.701 1.938 4.707 4.571 6.603 7.175 3.717 5.298 6.79 10.927 9.923 16.5l2.276 4.2c.756 1.374 1.452 2.812 2.305 4.075a510.796 510.796 0 005.136 8.007c3.477 5.315 6.976 10.612 10.601 15.82 7.291 10.402 14.658 20.762 22.266 30.953a2156.361 2156.361 0 0022.938 30.52l46.113 60.921c15.628 20.064 31.9 39.603 49.417 58.186"/>
    <path d="M298.55 63.323c-8.471.908-17.137-.112-25.385-2.499-8.233-2.474-16.086-6.34-23.092-11.462-3.5-2.546-6.842-5.42-9.837-8.645a45.532 45.532 0 01-7.421-10.887 53.847 53.847 0 01-5.344-25.251l.449-.051c1.118 4.121 2.29 8.148 3.732 12.036 1.456 3.879 3.13 7.63 5.163 11.157 4.027 7.035 8.997 13.582 15.467 18.776 6.398 5.228 13.746 9.357 21.588 12.178 7.822 2.885 16.206 4.379 24.65 4.197z" />
    <path d="M223.893 6.464l-1.64.518.07-.022c-6.754 4.441-14.112 7.828-20.27 12.34a52.324 52.324 0 00-8.417 7.571c-2.52 2.723-4.47 5.758-5.844 9.112-2.81 6.68-3.136 14.363-2.039 21.92.98 7.597 3.868 15.089 5.883 22.923-4.259-6.8-8.373-13.844-10.485-21.983-1.025-4.03-1.66-8.238-1.516-12.515.114-4.265.901-8.605 2.593-12.644.79-2.04 1.908-3.938 3.074-5.783 1.244-1.782 2.653-3.507 4.147-4.997 2.974-2.984 6.332-5.624 9.966-7.68 3.601-2.127 7.426-3.656 11.217-5.032 3.809-1.349 7.621-2.52 11.47-3.7l.072-.024z" />
    <path d="M343.134 117.778c-1.678-4.085-4.22-7.724-7.458-10.504-3.237-2.79-7.065-4.773-11.102-6.118-4.03-1.38-8.252-2.215-12.523-2.746-4.275-.523-8.595-.838-12.956-1.002-8.763-.264-17.647-.735-26.536-1.847-8.886-1.188-17.747-3.4-26.172-6.684-4.191-1.696-8.253-3.645-12.233-5.745-3.97-2.162-7.892-4.507-11.5-7.36-7.217-5.602-13.457-13.106-16.519-21.928-1.55-4.389-2.426-9.064-2.287-13.716.124-4.648 1.136-9.226 2.88-13.446 3.551-8.444 9.8-15.391 17.165-20.217-6.538 5.874-11.843 13.117-14.387 21.242-2.667 8.075-2.21 16.82 1.016 24.433 3.24 7.675 8.763 14.17 15.59 19.088 6.735 5.005 14.575 8.843 22.498 12.048 7.936 3.21 16.248 5.314 24.772 6.651 8.535 1.392 17.233 1.984 26.026 2.805 8.807.815 17.856 2.085 26.24 5.683 4.14 1.843 8.094 4.318 11.183 7.663a27.103 27.103 0 013.927 5.487c.457 1.027 1.003 2.003 1.372 3.05z"/>
    <path d="M182.464 53.73c-.772 2.695-2.062 5.232-3.08 7.782-.986 2.57-1.793 5.187-2.344 7.856a50.47 50.47 0 00-.715 16.139c.629 5.34 2.034 10.575 4.269 15.418 2.147 4.82 5.34 9.138 9.106 12.946a72.831 72.831 0 0012.515 10.217c4.518 3.015 9.664 5.68 13.872 9.874 2.084 2.092 3.945 4.457 5.193 7.215 1.218 2.757 1.788 5.723 1.877 8.608.099 5.807-1.244 11.215-1.861 16.762-.379-5.583.357-11.245-.352-16.591-.337-2.662-1.075-5.21-2.317-7.458-1.257-2.228-2.98-4.24-4.947-5.955-3.984-3.434-8.87-5.91-13.747-8.831-2.45-1.47-4.815-3.188-7.032-4.948-2.239-1.781-4.402-3.679-6.434-5.736-3.992-4.156-7.534-8.955-9.786-14.39-1.144-2.673-1.98-5.46-2.653-8.271-.688-2.812-1.066-5.689-1.205-8.568-.355-5.754.396-11.546 2.082-16.994.898-2.712 1.995-5.344 3.354-7.828 1.371-2.48 2.99-4.726 4.205-7.248" />
    <path d="M205.188 54.635c-3.11 6.495-4.96 13.44-5.433 20.456-.536 7.003.167 14.067 1.673 20.87 1.591 6.79 3.974 13.394 7.282 19.517 1.65 3.058 3.436 6.042 5.454 8.87 1.963 2.83 4.217 5.386 6.683 7.83 4.873 4.908 10.453 9.207 16.488 12.471 5.976 3.276 12.718 5.465 19.177 4.602 1.62-.21 3.14-.646 4.682-1.31a27.063 27.063 0 004.433-2.36c2.82-1.848 5.3-4.268 7.397-7.033 4.238-5.528 7.16-12.169 9.482-18.95-1.203 7.091-3.46 14.104-7.358 20.432-3.946 6.256-10.088 11.604-17.93 13.278a25.356 25.356 0 01-5.847.466c-1.942-.086-3.857-.369-5.727-.78-3.73-.861-7.273-2.237-10.622-3.916-6.667-3.433-12.606-7.97-17.904-13.172-2.601-2.632-5.08-5.513-7.173-8.606-2.1-3.051-4.03-6.225-5.667-9.547-3.254-6.642-5.679-13.71-6.873-21-1.24-7.274-1.384-14.715-.208-21.973 1.217-7.234 3.867-14.23 7.991-20.145" />
    <path d="M253.82 133.405c4.412-1.051 8.396-3.909 11.074-8.367-2.23.356-4.283.578-5.848.143-4.173-1.156-3.275-.589-6.38.885-.18.084-.36.154-.545.21a4.002 4.002 0 01-.582.059c-3.434.082-2.892-.828-6.09 2.085-1.202 1.093-3.136 1.819-5.29 2.509 4.4 2.772 9.244 3.527 13.66 2.476" />
    <path d="M213.768 93.188c-.615.96-1.403 2.288-2.367 3.978 8.363 3.153 15.181 1.357 20.46-5.39-7.2 3.603-13.233 4.072-18.093 1.412" />
    <path d="M267.814 95.856c7.825 6.568 14.892 14.508 19.051 24.262 2.117 4.827 3.182 10.226 3.25 15.552.059 2.678-.201 5.395-.76 8.073-.564 2.68-1.563 5.292-2.858 7.743a28.807 28.807 0 01-4.899 6.7c-1.923 1.98-4.05 3.765-6.352 5.212-2.258 1.471-4.723 2.768-7.055 3.851-2.338 1.105-4.639 2.158-6.831 3.293-4.359 2.267-8.397 4.874-10.743 8.497-1.18 1.794-1.93 3.811-2.293 5.977a22.178 22.178 0 00-.036 6.744c.632 4.524 2.501 8.975 5.027 13.076 2.523 4.095 5.732 7.938 9.169 11.358 3.417 3.365 7.533 6.244 11.707 9.235 4.175 2.985 8.495 6.13 12.13 10.222 1.816 2.028 3.443 4.297 4.699 6.771a25.041 25.041 0 012.528 7.925c.791 5.477-.093 11.072-2.347 15.975-2.262 4.903-5.92 9.104-10.393 11.928-4.465 2.868-9.68 4.238-14.796 4.404 5.058-.811 9.908-2.724 13.825-5.793 3.92-3.047 6.947-7.129 8.598-11.699 1.73-4.522 2.158-9.51 1.177-14.124-.92-4.639-3.394-8.739-6.767-12.152-3.37-3.415-7.476-6.235-11.689-9.093-4.218-2.855-8.639-5.728-12.646-9.445-3.873-3.743-7.301-7.8-10.21-12.392-2.852-4.579-5.202-9.719-5.965-15.375a28.184 28.184 0 01.136-8.558c.499-2.88 1.59-5.756 3.258-8.225 1.653-2.481 3.798-4.52 6.058-6.175 2.263-1.672 4.672-2.96 7.058-4.115 2.39-1.152 4.779-2.163 7.1-3.183 2.342-1.011 4.444-2.054 6.517-3.316 4.055-2.527 7.712-5.686 10.066-9.76 2.44-4.017 3.59-8.772 3.85-13.644.28-4.908-.48-9.791-2.093-14.503-3.225-9.454-9.467-17.814-16.471-25.246"/>
    <path d="M297.514 116.044c3.938 3.571 7.552 7.591 10.369 12.231a53.525 53.525 0 011.934 3.587c.524 1.257 1.133 2.489 1.527 3.808.926 2.585 1.494 5.317 1.74 8.083.249 2.765.103 5.574-.271 8.296l-.303 2.007c-.088.625-.215 1.31-.364 2.025-.131.707-.28 1.408-.504 2.09-.207.685-.39 1.384-.676 2.039-2.025 5.41-5.762 9.846-9.665 13.644-3.914 3.825-8.201 7.148-12.056 10.539-3.795 3.415-7.307 7.2-9.335 11.422-.99 2.1-1.584 4.264-1.549 6.372-.001.528.014 1.054.135 1.57l.123.777c.055.26.16.509.233.763.264 1.03.734 2.007 1.303 2.95 1.147 1.883 2.786 3.57 4.663 5.022 1.97 1.438 4.053 2.803 6.324 3.993 4.466 2.476 9.34 4.578 14.179 7.131 2.426 1.239 4.82 2.7 7.158 4.286 2.27 1.711 4.574 3.492 6.415 5.82 3.89 4.474 6.064 10.354 6.436 16.12.424 5.816-.873 11.585-3.29 16.692-2.439 5.089-5.882 9.72-10.269 13.236-4.326 3.566-9.42 6.085-14.743 7.519a42.005 42.005 0 01-8.141 1.236c-2.74.095-5.479-.061-8.16-.534-5.348-.99-10.38-2.957-15.083-5.449a60.67 60.67 0 007.568 2.42c2.55.651 5.156 1.147 7.737 1.372 2.593.186 5.184.158 7.745-.138a39.333 39.333 0 007.485-1.744c9.73-3.232 17.75-10.61 21.561-19.833 1.906-4.582 2.776-9.555 2.325-14.345-.462-4.802-2.302-9.35-5.5-12.83-1.515-1.81-3.453-3.316-5.426-4.774-2.077-1.373-4.227-2.675-6.546-3.832-4.575-2.374-9.501-4.43-14.352-7.072-2.424-1.3-4.792-2.856-7.089-4.58-2.3-1.817-4.431-3.999-6.035-6.672a17.98 17.98 0 01-2.57-9.058c-.023-3.215.895-6.296 2.258-8.938 2.768-5.316 6.831-9.305 10.978-12.874 4.198-3.538 8.465-6.558 12.318-9.993 3.85-3.396 7.218-7.23 9.227-11.709.284-.549.469-1.13.682-1.704.231-.568.392-1.157.539-1.753.159-.575.315-1.187.455-1.872l.41-1.912c.51-2.515.772-5.033.73-7.573-.021-5.084-1.457-10.15-3.722-14.836-2.307-4.683-5.42-9.01-8.908-13.025"/>
    <path d="M374.387 225.786c3.514-4.802 4.788-10.84 4.05-16.506-.733-5.658-3.104-11.18-7.066-15.06-3.98-4.025-9.032-6.827-14.233-9.554-5.246-2.662-10.54-5.844-15.316-9.562-2.423-1.839-4.694-3.882-6.905-5.994-2.14-2.188-4.213-4.462-6.044-6.947-3.704-4.92-6.77-10.454-8.559-16.483-.449-1.505-.89-3.013-1.137-4.571-.135-.774-.326-1.54-.413-2.322l-.25-2.347c-.304-3.107-.366-6.006-.494-9.001-.211-5.934-.32-11.811-.705-17.608-.312-5.809-1.024-11.478-2.087-17.214-1.034-5.71-2.398-11.352-4.02-16.911-1.623-5.549-3.57-11.048-5.895-16.298-2.34-5.25-5.151-10.3-8.332-15.112-12.767-19.192-32.253-34.248-55.06-40.696 11.677 1.959 22.956 6.595 32.991 13.147 5.011 3.297 9.723 7.066 14.09 11.213 4.369 4.15 8.286 8.77 11.844 13.651 3.545 4.891 6.695 10.095 9.265 15.587 2.589 5.489 4.723 11.102 6.558 16.843 1.814 5.742 3.217 11.599 4.35 17.498 1.137 5.868 1.958 11.93 2.311 17.917.35 5.992.409 11.93.573 17.797.098 2.904.148 5.916.406 8.687l.2 2.06c.065.686.236 1.358.348 2.037.14.676.221 1.364.391 2.033l.528 2.005c1.441 5.35 4.061 10.383 7.34 14.964 3.286 4.585 7.248 8.74 11.647 12.414 2.17 1.872 4.51 3.55 6.881 5.183 2.389 1.594 4.868 3.08 7.422 4.602 5.058 3.03 10.356 6.3 14.459 10.975 4.164 4.753 6.29 10.87 6.568 16.931.122 3.04-.257 6.101-1.215 8.96a22.445 22.445 0 01-4.491 7.682"/>
    <path d="M334.754 255.284c3.453-5.246 4.205-11.319 3.68-17.148-.29-2.919-.835-5.825-1.71-8.613-.856-2.763-1.996-5.422-3.537-7.841-3.027-4.867-7.337-8.918-12.403-11.987-5.084-3.1-10.804-5.408-16.482-7.982 6.177.767 12.33 2.141 18.151 4.875 5.813 2.71 11.107 7.062 14.579 12.718a34.421 34.421 0 013.808 9.08c.724 3.164 1.223 6.385 1.107 9.634-.042 3.237-.584 6.49-1.743 9.52-1.145 3.02-3.024 5.78-5.45 7.744" />
    <path d="M329.254 177.585c1.544 3.527 3.406 6.881 5.5 10.065 1.072 1.589 2.116 3.17 3.345 4.564a31.69 31.69 0 004.017 3.883c2.892 2.379 6.086 4.26 9.544 5.821 3.497 1.64 6.962 3.453 10.312 5.5a88.123 88.123 0 014.913 3.247c1.715 1.23 3.205 2.745 4.5 4.388 1.306 1.643 2.339 3.472 3.18 5.362a28.8 28.8 0 011.905 5.874c1.686 8.047.515 16.463-2.88 23.88-3.447 7.38-9.633 13.706-17.399 16.71-3.985 1.483-7.888 1.817-11.195 2.973-1.654.56-3.088 1.34-4.154 2.445-.263.28-.547.544-.75.88-.232.31-.46.628-.625.997l-.281.53c-.087.172-.11.304-.177.455a4.502 4.502 0 00-.178 1.009c-.095 1.469.37 3.215 1.01 4.896.643 1.697 1.48 3.376 2.32 5.095 1.917 3.715 2.432 7.926 2.054 11.918-.206 2.01-.717 4.006-1.602 5.864a14.427 14.427 0 01-3.8 4.697c-1.541 1.272-3.362 2.237-5.308 2.658-1.95.426-4.01.148-5.72-.738a8.225 8.225 0 005.545.077c1.764-.577 3.352-1.625 4.646-2.931 1.296-1.295 2.376-2.836 3.037-4.477.632-1.671.953-3.484.988-5.305.09-3.641-.614-7.346-2.455-10.369-.968-1.668-1.918-3.396-2.728-5.259-.787-1.864-1.523-3.87-1.512-6.263a8.017 8.017 0 01.24-1.832c.094-.301.183-.64.297-.903l.352-.765c.216-.518.514-1.004.834-1.48.289-.495.677-.923 1.054-1.358 1.554-1.729 3.597-2.835 5.55-3.56 3.933-1.453 7.791-1.905 10.983-3.235 6.586-2.687 11.892-8.107 14.884-14.654 3.078-6.498 4.136-14.06 2.788-21.095a24.683 24.683 0 00-1.502-5.114c-.673-1.632-1.5-3.205-2.552-4.598a19.521 19.521 0 00-3.61-3.744 84.236 84.236 0 00-4.555-3.32c-3.108-2.12-6.406-3.98-9.751-5.83-3.435-1.82-6.8-4.07-9.666-6.79-2.88-2.704-5.239-6.036-6.969-9.467a57.334 57.334 0 01-4.429-10.7"/>
  </g>
</svg>
