<svg xmlns="http://www.w3.org/2000/svg" width="100%" height="100%" viewBox="0 0 100 100">
  <g id="pointer" fill="currentColor">
    <path d="M49.971 99.5C23.657 99.5 1.691 78.69.549 52.14c-.578-13.21 4.018-25.842 12.95-35.588C22.443 6.807 34.63 1.115 47.838.55A49.09 49.09 0 0168.484 4.06a1.683 1.683 0 01.93 2.204c-.341.86-1.33 1.273-2.191.93A45.349 45.349 0 0047.99 3.92c-12.314.53-23.674 5.821-32.005 14.907-8.32 9.085-12.61 20.87-12.067 33.172 1.107 25.418 22.672 45.18 48.079 44.084C77.416 94.976 97.19 73.4 96.082 47.993a45.782 45.782 0 00-2.64-13.517 1.704 1.704 0 011.026-2.156 1.685 1.685 0 012.156 1.025 48.83 48.83 0 012.828 14.494c1.19 27.28-20.033 50.436-47.301 51.614-.73.036-1.45.048-2.18.048"/>
    <path d="M84.391 18.473c-.436 0-.872-.176-1.214-.518a45.986 45.986 0 00-8.52-6.953 1.687 1.687 0 01-.53-2.333 1.705 1.705 0 012.333-.519 50.599 50.599 0 019.157 7.46 1.715 1.715 0 01-.048 2.392 1.74 1.74 0 01-1.178.471"/>
    <path d="M69.19 51.524c-4.525 9.91-17.806 26.785-18.973 26.785-1.178 0-14.447-16.874-18.96-26.785-1.214-2.64-1.827-5.503-1.827-8.496 0-11.466 9.321-20.8 20.787-20.8s20.787 9.334 20.787 20.8c0 2.993-.6 5.856-1.814 8.496M50.229 13.073c-20.504 0-37.179 16.686-37.179 37.202 0 20.48 16.675 37.167 37.179 37.167s37.19-16.686 37.19-37.167c0-20.516-16.686-37.202-37.19-37.202"/>
    <path d="M50.213 32.513c-5.786 0-10.488 4.713-10.488 10.523 0 5.774 4.702 10.488 10.488 10.488 5.797 0 10.51-4.714 10.51-10.488 0-5.81-4.713-10.523-10.51-10.523"/>
  </g>
</svg>