<?xml version="1.0" encoding="UTF-8" standalone="no"?>
<svg
   xmlns:dc="http://purl.org/dc/elements/1.1/"
   xmlns:cc="http://creativecommons.org/ns#"
   xmlns:rdf="http://www.w3.org/1999/02/22-rdf-syntax-ns#"
   xmlns:svg="http://www.w3.org/2000/svg"
   xmlns="http://www.w3.org/2000/svg"
   version="1.1"
   id="svg2"
   xml:space="preserve"
   width="100"
   height="100"
   viewBox="0 0 100 100"><metadata
     id="metadata8"><rdf:RDF><cc:Work
         rdf:about=""><dc:format>image/svg+xml</dc:format><dc:type
           rdf:resource="http://purl.org/dc/dcmitype/StillImage" /><dc:title></dc:title></cc:Work></rdf:RDF></metadata><defs
     id="defs6"><clipPath
       clipPathUnits="userSpaceOnUse"
       id="clipPath22"><path
         d="M 0,512 H 905.88 V 0 H 0 Z"
         id="path20" /></clipPath><clipPath
       clipPathUnits="userSpaceOnUse"
       id="clipPath2592"><path
         d="M 0,167.244 H 252.283 V 0 H 0 Z"
         id="path2590" /></clipPath><clipPath
       clipPathUnits="userSpaceOnUse"
       id="clipPath3110"><path
         d="M 0,167.244 H 252.283 V 0 H 0 Z"
         id="path3108" /></clipPath><clipPath
       clipPathUnits="userSpaceOnUse"
       id="clipPath3970"><path
         d="M 0,286.299 H 600.945 V 0 H 0 Z"
         id="path3968" /></clipPath><clipPath
       clipPathUnits="userSpaceOnUse"
       id="clipPath3978"><path
         d="M 192.087,272.491 H 418.858 V 13.8083 H 192.087 Z"
         id="path3976" /></clipPath><clipPath
       clipPathUnits="userSpaceOnUse"
       id="clipPath8478"><path
         d="M 0,286.299 H 600.945 V 0 H 0 Z"
         id="path8476" /></clipPath></defs><g
     id="g22790"
     transform="matrix(11.784082,0,0,-11.784082,3461.1813,4021.5825)"><g
       id="g10878"
       transform="translate(-289.47612,332.8288)"><path
         d="m 0,0 c -2.233,0 -4.097,1.766 -4.194,4.019 -0.049,1.121 0.341,2.193 1.099,3.02 0.759,0.827 1.793,1.31 2.914,1.358 C 0.425,8.424 1.014,8.323 1.571,8.099 1.645,8.069 1.68,7.986 1.65,7.912 1.621,7.839 1.537,7.804 1.464,7.833 0.945,8.043 0.396,8.137 -0.168,8.111 -1.213,8.066 -2.177,7.617 -2.884,6.846 -3.59,6.075 -3.954,5.075 -3.908,4.031 -3.814,1.874 -1.984,0.197 0.172,0.29 2.329,0.384 4.007,2.215 3.913,4.371 3.896,4.765 3.821,5.15 3.689,5.518 3.663,5.592 3.702,5.674 3.776,5.701 3.851,5.728 3.933,5.688 3.959,5.614 4.101,5.22 4.181,4.806 4.199,4.384 4.3,2.069 2.499,0.104 0.185,0.004 0.123,0.001 0.062,0 0,0"
         style="fill:#316dbc;fill-opacity:1;fill-rule:nonzero;stroke:none"
         id="path10880" /></g><g
       id="g10882"
       transform="translate(-286.55522,339.7048)"><path
         d="m 0,0 c -0.037,0 -0.074,0.015 -0.103,0.044 -0.216,0.225 -0.46,0.423 -0.723,0.59 -0.068,0.043 -0.087,0.131 -0.045,0.198 0.043,0.066 0.131,0.086 0.198,0.044 C -0.391,0.697 -0.129,0.483 0.104,0.243 0.158,0.186 0.156,0.096 0.1,0.04 0.072,0.014 0.036,0 0,0"
         style="fill:#316dbc;fill-opacity:1;fill-rule:nonzero;stroke:none"
         id="path10884" /></g><g
       id="g10886"
       transform="translate(-287.84522,336.9001)"><path
         d="m 0,0 c -0.384,-0.841 -1.511,-2.273 -1.61,-2.273 -0.1,0 -1.226,1.432 -1.609,2.273 -0.103,0.224 -0.155,0.467 -0.155,0.721 0,0.973 0.791,1.765 1.764,1.765 0.973,0 1.764,-0.792 1.764,-1.765 C 0.154,0.467 0.103,0.224 0,0 m -1.609,3.263 c -1.74,0 -3.155,-1.416 -3.155,-3.157 0,-1.738 1.415,-3.154 3.155,-3.154 1.74,0 3.156,1.416 3.156,3.154 0,1.741 -1.416,3.157 -3.156,3.157"
         style="fill:#316dbc;fill-opacity:1;fill-rule:nonzero;stroke:none"
         id="path10888" /></g><g
       id="g10890"
       transform="translate(-289.45562,338.5134)"><path
         d="m 0,0 c -0.491,0 -0.89,-0.4 -0.89,-0.893 0,-0.49 0.399,-0.89 0.89,-0.89 0.492,0 0.892,0.4 0.892,0.89 C 0.892,-0.4 0.492,0 0,0"
         style="fill:#316dbc;fill-opacity:1;fill-rule:nonzero;stroke:none"
         id="path10892" /></g></g></svg>
