<?xml version="1.0" encoding="UTF-8" standalone="no"?>
<svg
   xmlns:dc="http://purl.org/dc/elements/1.1/"
   xmlns:cc="http://creativecommons.org/ns#"
   xmlns:rdf="http://www.w3.org/1999/02/22-rdf-syntax-ns#"
   xmlns:svg="http://www.w3.org/2000/svg"
   xmlns="http://www.w3.org/2000/svg"
   version="1.1"
   id="svg2"
   xml:space="preserve"
   width="100"
   height="100"
   viewBox="0 0 100 100"><metadata
     id="metadata8"><rdf:RDF><cc:Work
         rdf:about=""><dc:format>image/svg+xml</dc:format><dc:type
           rdf:resource="http://purl.org/dc/dcmitype/StillImage" /><dc:title></dc:title></cc:Work></rdf:RDF></metadata><defs
     id="defs6"><clipPath
       clipPathUnits="userSpaceOnUse"
       id="clipPath22"><path
         d="M 0,512 H 905.88 V 0 H 0 Z"
         id="path20" /></clipPath><clipPath
       clipPathUnits="userSpaceOnUse"
       id="clipPath2592"><path
         d="M 0,167.244 H 252.283 V 0 H 0 Z"
         id="path2590" /></clipPath><clipPath
       clipPathUnits="userSpaceOnUse"
       id="clipPath3110"><path
         d="M 0,167.244 H 252.283 V 0 H 0 Z"
         id="path3108" /></clipPath><clipPath
       clipPathUnits="userSpaceOnUse"
       id="clipPath3970"><path
         d="M 0,286.299 H 600.945 V 0 H 0 Z"
         id="path3968" /></clipPath><clipPath
       clipPathUnits="userSpaceOnUse"
       id="clipPath3978"><path
         d="M 192.087,272.491 H 418.858 V 13.8083 H 192.087 Z"
         id="path3976" /></clipPath><clipPath
       clipPathUnits="userSpaceOnUse"
       id="clipPath8478"><path
         d="M 0,286.299 H 600.945 V 0 H 0 Z"
         id="path8476" /></clipPath></defs><g
     id="g22780"
     transform="matrix(11.782901,0,0,-11.782864,4306.0896,4021.1603)"><g
       id="g10776"
       transform="translate(-361.21102,332.8278)"><path
         d="m 0,0 c -2.233,0 -4.097,1.766 -4.195,4.019 -0.048,1.121 0.342,2.193 1.101,3.02 0.758,0.827 1.793,1.31 2.914,1.358 C 0.425,8.424 1.014,8.323 1.571,8.099 1.645,8.069 1.68,7.985 1.65,7.912 1.621,7.839 1.538,7.804 1.464,7.833 0.945,8.043 0.396,8.136 -0.168,8.111 -1.212,8.066 -2.177,7.617 -2.883,6.846 -3.59,6.075 -3.954,5.075 -3.909,4.031 -3.815,1.874 -1.984,0.197 0.172,0.29 2.329,0.384 4.007,2.215 3.913,4.371 3.896,4.765 3.821,5.15 3.69,5.518 3.663,5.592 3.702,5.674 3.776,5.7 3.851,5.728 3.933,5.688 3.959,5.614 4.1,5.22 4.181,4.806 4.199,4.383 4.3,2.069 2.499,0.104 0.185,0.004 0.123,0.001 0.062,0 0,0"
         style="fill:#316dbc;fill-opacity:1;fill-rule:nonzero;stroke:none"
         id="path10778" /></g><g
       id="g10780"
       transform="translate(-358.28962,339.7038)"><path
         d="m 0,0 c -0.038,0 -0.075,0.015 -0.103,0.044 -0.217,0.225 -0.46,0.423 -0.724,0.59 -0.067,0.043 -0.087,0.131 -0.044,0.197 0.042,0.067 0.131,0.087 0.197,0.045 C -0.391,0.696 -0.13,0.483 0.103,0.243 0.158,0.186 0.156,0.096 0.1,0.04 0.072,0.014 0.036,0 0,0"
         style="fill:#316dbc;fill-opacity:1;fill-rule:nonzero;stroke:none"
         id="path10782" /></g><g
       id="g10784"
       transform="translate(-359.28472,335.7663)"><path
         d="m 0,0 c -0.018,-0.075 -0.038,-0.144 -0.062,-0.199 -0.05,-0.12 -0.174,-0.233 -0.377,-0.344 -0.184,-0.1 -0.368,-0.149 -0.546,-0.149 -0.048,0 -0.099,0.004 -0.154,0.01 -0.042,0.004 -0.093,0.016 -0.166,0.036 l -0.379,0.131 c -0.185,0.068 -0.344,0.142 -0.485,0.229 -0.225,0.139 -0.459,0.329 -0.695,0.566 -0.243,0.243 -0.429,0.47 -0.567,0.694 -0.085,0.137 -0.16,0.297 -0.222,0.47 -0.008,0.025 -0.026,0.071 -0.044,0.12 L -3.75,1.707 c -0.011,0.032 -0.025,0.078 -0.04,0.13 -0.017,0.061 -0.029,0.117 -0.036,0.165 -0.007,0.052 -0.01,0.102 -0.01,0.156 0,0.181 0.049,0.364 0.148,0.546 0.116,0.208 0.226,0.328 0.347,0.378 0.045,0.022 0.111,0.042 0.197,0.063 0.166,0.037 0.262,0.038 0.332,0.007 0.058,-0.019 0.118,-0.073 0.214,-0.266 0.014,-0.024 0.039,-0.067 0.074,-0.133 L -2.482,2.675 C -2.467,2.647 -2.453,2.621 -2.438,2.597 -2.413,2.551 -2.389,2.51 -2.365,2.471 -2.362,2.468 -2.352,2.452 -2.336,2.43 L -2.323,2.41 C -2.299,2.376 -2.278,2.342 -2.259,2.305 -2.235,2.254 -2.223,2.206 -2.223,2.158 -2.223,2.08 -2.26,2.004 -2.34,1.921 -2.391,1.867 -2.448,1.816 -2.515,1.765 -2.57,1.725 -2.615,1.686 -2.653,1.646 -2.66,1.64 -2.666,1.634 -2.67,1.629 -2.667,1.624 -2.666,1.62 -2.665,1.618 -2.657,1.6 -2.647,1.585 -2.634,1.563 -2.622,1.543 -2.616,1.532 -2.612,1.526 l 0.017,-0.029 c 0.116,-0.208 0.256,-0.396 0.404,-0.544 0.154,-0.154 0.34,-0.292 0.555,-0.409 l 0.061,-0.037 c 0.016,-0.011 0.03,-0.02 0.036,-0.022 0.011,-0.006 0.018,-0.008 0.025,-0.011 0.005,0.004 0.01,0.009 0.017,0.015 0.04,0.042 0.08,0.089 0.117,0.139 0.048,0.064 0.101,0.122 0.159,0.178 0.157,0.149 0.296,0.126 0.383,0.078 0.029,-0.017 0.065,-0.035 0.105,-0.064 0.015,-0.01 0.027,-0.018 0.037,-0.024 L -0.68,0.785 c 0.047,-0.032 0.085,-0.054 0.125,-0.073 0.054,-0.033 0.101,-0.059 0.162,-0.09 L -0.252,0.543 C -0.086,0.46 -0.013,0.4 0.013,0.318 0.022,0.295 0.028,0.258 0.028,0.215 0.028,0.154 0.019,0.082 0,0 m -1.904,4.395 c -1.74,0 -3.155,-1.416 -3.155,-3.155 0,-1.74 1.415,-3.155 3.155,-3.155 1.739,0 3.155,1.415 3.155,3.155 0,1.739 -1.416,3.155 -3.155,3.155"
         style="fill:#316dbc;fill-opacity:1;fill-rule:nonzero;stroke:none"
         id="path10786" /></g></g><g
     id="g22790"
     transform="matrix(11.903114,0,0,-11.903114,3502.4318,4790.8161)"><g
       id="g10878"
       transform="translate(-289.47612,332.8288)"><path
         d="m 0,0 c -2.233,0 -4.097,1.766 -4.194,4.019 -0.049,1.121 0.341,2.193 1.099,3.02 0.759,0.827 1.793,1.31 2.914,1.358 C 0.425,8.424 1.014,8.323 1.571,8.099 1.645,8.069 1.68,7.986 1.65,7.912 1.621,7.839 1.537,7.804 1.464,7.833 0.945,8.043 0.396,8.137 -0.168,8.111 -1.213,8.066 -2.177,7.617 -2.884,6.846 -3.59,6.075 -3.954,5.075 -3.908,4.031 -3.814,1.874 -1.984,0.197 0.172,0.29 2.329,0.384 4.007,2.215 3.913,4.371 3.896,4.765 3.821,5.15 3.689,5.518 3.663,5.592 3.702,5.674 3.776,5.701 3.851,5.728 3.933,5.688 3.959,5.614 4.101,5.22 4.181,4.806 4.199,4.384 4.3,2.069 2.499,0.104 0.185,0.004 0.123,0.001 0.062,0 0,0"
         style="fill:#316dbc;fill-opacity:1;fill-rule:nonzero;stroke:none"
         id="path10880" /></g><g
       id="g10882"
       transform="translate(-286.55522,339.7048)"><path
         d="m 0,0 c -0.037,0 -0.074,0.015 -0.103,0.044 -0.216,0.225 -0.46,0.423 -0.723,0.59 -0.068,0.043 -0.087,0.131 -0.045,0.198 0.043,0.066 0.131,0.086 0.198,0.044 C -0.391,0.697 -0.129,0.483 0.104,0.243 0.158,0.186 0.156,0.096 0.1,0.04 0.072,0.014 0.036,0 0,0"
         style="fill:#316dbc;fill-opacity:1;fill-rule:nonzero;stroke:none"
         id="path10884" /></g><g
       id="g10886"
       transform="translate(-287.84522,336.9001)"><path
         d="m 0,0 c -0.384,-0.841 -1.511,-2.273 -1.61,-2.273 -0.1,0 -1.226,1.432 -1.609,2.273 -0.103,0.224 -0.155,0.467 -0.155,0.721 0,0.973 0.791,1.765 1.764,1.765 0.973,0 1.764,-0.792 1.764,-1.765 C 0.154,0.467 0.103,0.224 0,0 m -1.609,3.263 c -1.74,0 -3.155,-1.416 -3.155,-3.157 0,-1.738 1.415,-3.154 3.155,-3.154 1.74,0 3.156,1.416 3.156,3.154 0,1.741 -1.416,3.157 -3.156,3.157"
         style="fill:#316dbc;fill-opacity:1;fill-rule:nonzero;stroke:none"
         id="path10888" /></g><g
       id="g10890"
       transform="translate(-289.45562,338.5134)"><path
         d="m 0,0 c -0.491,0 -0.89,-0.4 -0.89,-0.893 0,-0.49 0.399,-0.89 0.89,-0.89 0.492,0 0.892,0.4 0.892,0.89 C 0.892,-0.4 0.492,0 0,0"
         style="fill:#316dbc;fill-opacity:1;fill-rule:nonzero;stroke:none"
         id="path10892" /></g></g></svg>
