<svg xmlns="http://www.w3.org/2000/svg" width="100%" height="100%" viewBox="0 0 100 100">
  <g id="phone" fill="currentColor">
    <path d="M49.976 99.496C23.665 99.496 1.7 78.687.546 52.14-.018 38.932 4.577 26.3 13.52 16.556 22.45 6.812 34.646 1.12 47.855.555a49.062 49.062 0 0120.632 3.511 1.687 1.687 0 01.93 2.204 1.685 1.685 0 01-2.19.93c-6.116-2.474-12.585-3.57-19.23-3.275-12.302.53-23.672 5.82-31.991 14.905C7.676 27.915 3.386 39.698 3.916 52 5.025 77.415 26.6 97.174 52.004 96.079c25.415-1.108 45.187-22.682 44.08-48.086a46.144 46.144 0 00-2.628-13.515 1.67 1.67 0 011.013-2.145 1.67 1.67 0 012.156 1.014 49.203 49.203 0 012.828 14.504c1.19 27.266-20.03 50.42-47.296 51.597-.73.036-1.45.048-2.18.048"/>
    <path d="M84.398 18.477c-.447 0-.883-.177-1.213-.519a46.057 46.057 0 00-8.531-6.952c-.79-.506-1.025-1.543-.518-2.32a1.684 1.684 0 012.32-.531 50.686 50.686 0 019.156 7.458 1.704 1.704 0 01-.035 2.392 1.74 1.74 0 01-1.179.472"/>
    <path d="M72.673 64.872c-.212.883-.447 1.696-.73 2.344-.59 1.414-2.05 2.746-4.442 4.054-2.168 1.178-4.336 1.755-6.434 1.755-.565 0-1.166-.047-1.814-.117-.495-.048-1.096-.189-1.956-.425L52.83 70.94c-2.18-.801-4.053-1.673-5.715-2.698-2.651-1.638-5.408-3.877-8.189-6.67-2.863-2.863-5.055-5.537-6.68-8.177-1.002-1.614-1.886-3.5-2.617-5.538-.094-.294-.306-.836-.518-1.414l-.625-1.685c-.13-.377-.294-.919-.47-1.531-.201-.72-.343-1.38-.425-1.945a13.507 13.507 0 01-.118-1.838c0-2.132.577-4.289 1.744-6.433 1.367-2.451 2.663-3.865 4.089-4.454.53-.26 1.308-.495 2.32-.742 1.957-.436 3.088-.448 3.913-.083.683.224 1.39.86 2.521 3.134.165.283.46.79.872 1.567l.495.92c.177.33.342.636.519.919.294.542.577 1.025.86 1.484.035.036.153.224.341.483l.154.236c.282.4.53.801.754 1.237.283.601.424 1.167.424 1.732 0 .92-.436 1.815-1.379 2.793-.6.636-1.272 1.237-2.062 1.838-.648.471-1.178.93-1.626 1.402-.082.07-.153.141-.2.2.035.06.047.106.059.13.094.212.212.389.365.648.142.236.212.365.26.436l.2.342c1.367 2.45 3.016 4.666 4.76 6.41 1.815 1.814 4.006 3.44 6.54 4.819l.718.436c.189.13.354.235.424.259.13.07.213.094.295.13.059-.048.118-.106.2-.177.472-.495.943-1.049 1.379-1.638a17.525 17.525 0 011.873-2.097c1.85-1.756 3.488-1.485 4.513-.92.342.2.766.413 1.237.755.177.118.319.212.436.282l.189.13c.554.377 1.001.636 1.473.86.636.39 1.19.695 1.909 1.06l1.661.932c1.956.978 2.816 1.685 3.122 2.65.107.272.177.708.177 1.214 0 .72-.106 1.567-.33 2.534M50.24 13.086c-20.503 0-37.175 16.684-37.175 37.175 0 20.502 16.672 37.175 37.175 37.175 20.49 0 37.175-16.673 37.175-37.175 0-20.49-16.685-37.175-37.175-37.175"/>
  </g>
</svg>